<svg viewBox="0 0 95 55" fill="none"
     xmlns="http://www.w3.org/2000/svg">
    <path xmlns="http://www.w3.org/2000/svg"
          fill="red" d="M31.047 54.217h2.268a.2.2 0 0 0 .129-.04c.032-.024.048-.073.072-.137h.09v.952h-.09q-.024-.1-.072-.137a.2.2 0 0 0-.13-.04h-3.252v-.09q.1-.024.137-.072a.2.2 0 0 0 .04-.13v-3.122a.2.2 0 0 0-.04-.13q-.038-.048-.137-.072v-.089h1.154v.089c-.064.016-.113.04-.137.073a.2.2 0 0 0-.04.129v2.8zM37.358 51.062c.646 0 1.154.177 1.534.524.395.363.597.84.597 1.412q0 .532-.29.993-.558.896-1.84.896c-.638 0-1.147-.178-1.526-.525a1.84 1.84 0 0 1-.46-.67 2 2 0 0 1-.137-.726q.001-.556.282-1.017c.363-.589.977-.887 1.832-.895zm0 .629c-.355 0-.645.105-.88.315-.274.25-.42.573-.42.968 0 .396.138.727.42.969.234.21.533.314.888.314s.654-.104.88-.314a1.28 1.28 0 0 0 .42-.96q.002-.632-.42-.985c-.234-.202-.533-.307-.888-.315zM42.419 52.296v2.244q.002.082.04.13.038.047.137.072v.089h-1.081v-.09c.064-.015.113-.04.137-.072a.2.2 0 0 0 .04-.129v-3.131q-.002-.085-.04-.121c-.024-.033-.073-.057-.137-.073v-.089h1.259v.089c-.081.016-.113.065-.113.121q0 .06.072.145l2.042 2.123v-2.195q-.002-.085-.04-.121c-.024-.033-.073-.057-.137-.073v-.089h1.09v.089q-.1.024-.138.073a.2.2 0 0 0-.04.12v3.132c0 .056.016.097.04.13.024.031.073.056.137.072v.089h-1.162v-.09c.073-.015.113-.056.113-.112 0-.032-.04-.097-.13-.186l-2.073-2.139zM47.955 54.54v-3.123a.2.2 0 0 0-.04-.13q-.039-.048-.138-.072v-.089h2.058q.679-.002 1.041.154c.347.153.606.395.767.742.13.274.202.59.202.952q.002.957-.59 1.453a1.4 1.4 0 0 1-.58.299q-.328.086-.84.088h-2.058v-.088q.1-.025.137-.073a.2.2 0 0 0 .04-.13zm.807-.323h1.017c.323 0 .565-.04.726-.129.347-.194.525-.557.525-1.106 0-.395-.097-.702-.283-.911a.85.85 0 0 0-.379-.25 2 2 0 0 0-.59-.073h-1.016v2.477zM55.79 51.062q.967.002 1.534.524c.395.363.597.84.597 1.412q0 .532-.29.993-.558.896-1.84.896c-.638 0-1.146-.178-1.526-.525a1.84 1.84 0 0 1-.46-.67 2 2 0 0 1-.137-.726c0-.371.097-.71.282-1.017q.548-.883 1.832-.895zm0 .629c-.355 0-.645.105-.88.315-.274.25-.419.573-.419.968 0 .396.137.727.42.969q.353.315.888.314c.355 0 .653-.104.88-.314a1.28 1.28 0 0 0 .419-.96c0-.42-.137-.751-.42-.985q-.353-.303-.887-.315zM60.746 52.296v2.244c0 .056.016.097.04.13.024.031.073.056.137.072v.089h-1.081v-.09c.064-.015.113-.04.137-.072a.2.2 0 0 0 .04-.129v-3.131q-.002-.085-.04-.121c-.024-.033-.073-.057-.137-.073v-.089H61.1v.089c-.08.016-.113.065-.113.121q0 .06.072.145l2.042 2.123v-2.195q-.002-.085-.04-.121c-.024-.033-.073-.057-.137-.073v-.089h1.09v.089c-.065.016-.114.04-.138.073a.2.2 0 0 0-.04.12v3.132c0 .056.016.097.04.13.024.031.073.056.137.072v.089h-1.162v-.09c.073-.015.113-.056.113-.112 0-.032-.04-.097-.13-.186l-2.073-2.139zM61.667 43.83H32.41v.388h29.255zM65.08 3.97C63.24 1.994 62.223.953 61.545 0 58.374.234 53 .33 47.026.33c-4.705 0-9.038-.064-12.218-.2Q33.523.07 32.516 0c-.678.952-1.687 2.001-3.535 3.97-2.244 2.406-4.471 3.963-4.471 3.963s2.066 1.445 4.471 3.963c1.864 1.953 2.857 3.018 3.535 3.97 3.172-.234 8.547-.33 14.519-.33s11.339.096 14.518.33c.678-.952 1.67-2.017 3.535-3.97 2.405-2.518 4.471-3.963 4.471-3.963s-2.227-1.557-4.47-3.962M63.006 29.586c1.009 0 1.816.29 2.405.864q.945.906.944 2.332c0 .581-.145 1.13-.452 1.63-.589.993-1.55 1.485-2.889 1.485q-1.514-.002-2.397-.863a3.1 3.1 0 0 1-.726-1.106 3.3 3.3 0 0 1-.218-1.194c0-.614.145-1.17.444-1.679q.86-1.452 2.88-1.477m-.015 5.157c1.13 0 2.05-.896 2.05-1.993 0-1.098-.92-1.994-2.05-1.994s-2.05.896-2.05 1.994.92 1.993 2.05 1.993M23.735 30.062a1.7 1.7 0 0 0-.662-.306c-.25-.065-.581-.089-1.009-.089h-3.478v.073l.073.072c.04.049.056.162.056.258v5.351a.6.6 0 0 1-.056.234c-.017.024-.04.057-.065.089v.065h1.525v-.065s-.056-.056-.072-.08c-.04-.05-.057-.154-.057-.243V33.3h2.082c.541 0 .953-.057 1.251-.162.299-.113.541-.298.719-.565.21-.314.314-.67.314-1.081q0-.426-.17-.815a1.6 1.6 0 0 0-.46-.597zm-1 1.962c-.186.096-.429.129-.816.129h-1.937v-1.396h1.937c.387 0 .613.024.815.129.145.072.331.274.331.589a.61.61 0 0 1-.33.557zM42.758 35.316V30.07c0-.088.024-.177.056-.234 0-.016.016-.024.024-.04a.2.2 0 0 1 .04-.048v-.065H41.37v.065s.057.056.073.08c.04.049.057.154.057.242v3.6l-3.108-3.398c-.12-.153-.153-.242-.137-.38q0-.086.073-.136v-.065h-1.703v.065s.056.056.08.088c.041.049.05.162.05.25v5.23c0 .17-.017.226-.05.299a.5.5 0 0 1-.08.113v.065h1.525v-.065s-.056-.065-.072-.089c-.04-.056-.057-.17-.057-.315v-3.59l3.148 3.413c.137.145.193.258.218.306.072.146.016.235-.04.275v.065h1.533v-.065s-.073-.08-.097-.113c-.04-.073-.032-.194-.032-.282zM3.77 29.74s.056.056.072.08c.04.049.056.154.056.242v3.446c0 .638-.153.896-.58 1.066-.178.064-.558.105-.743.097-.444-.017-.928-.21-1.13-.42-.089-.089-.299-.33-.226-.436l-.032-.064-1.195.621.024.056s.065.025.081.033c.057.032.137.185.202.274.113.162.234.299.411.46.517.476 1.235.622 1.93.638h.072c.88-.016 1.453-.234 1.808-.525.306-.25.444-.516.524-.718.081-.186.105-.412.113-.646v-3.898c0-.088.016-.17.049-.218q.036-.046.072-.08v-.073H3.753v.073zM56.363 29.82s.04-.056.065-.088v-.065h-1.525v.065s.056.056.072.08c.04.049.057.154.057.242v1.9529999999999998h-3.35v-1.945c0-.088.033-.177.057-.234.016-.024.032-.056.065-.088v-.065h-1.526v.065s.057.056.073.08c.04.049.056.154.056.242v5.351a.5.5 0 0 1-.056.234c-.016.024-.04.057-.065.089v.065h1.526v-.065s-.057-.056-.073-.08c-.04-.05-.056-.154-.056-.243v-2.2520000000000002h3.349v2.2600000000000002a.6.6 0 0 1-.057.234c-.016.024-.032.057-.064.089v.065h1.525v-.065s-.056-.056-.073-.08c-.04-.05-.056-.154-.056-.243V30.07c0-.088.032-.177.056-.233zM84.336 32.766c-.258-.178-.638-.33-1.146-.436l-1.162-.25c-.452-.097-.888-.178-1.025-.25-.21-.105-.347-.266-.347-.476 0-.34.298-.767 1.356-.759.403 0 .758.065 1.113.17.17.048.565.169.727.33.064.065.072.105.072.202l.057.032.645-1.21-.056-.032s-.056.024-.137.016c-.089 0-.234-.081-.388-.146a5.84 5.84 0 0 0-1.92-.387c-1.041 0-1.639.242-2.018.533a1.62 1.62 0 0 0-.654 1.34c0 .589.259.976.597 1.202.3.202.92.411 1.623.549l.718.145c.42.08.807.17 1 .282q.291.158.291.46c0 .34-.274.477-.67.598-.21.064-.476.096-.815.096s-.79-.08-1.073-.16c-.25-.074-.54-.17-.75-.26a1.1 1.1 0 0 1-.372-.233.2.2 0 0 1-.056-.113l-.057-.024-.54 1.283.064.024s.04-.016.08-.024a.75.75 0 0 1 .372.097s.54.234.904.33c.371.097.831.194 1.477.194.984 0 1.606-.25 1.985-.54.468-.356.702-.816.702-1.364 0-.55-.194-.945-.597-1.227zM74.16 29.764s.056.056.072.08c.04.049.056.154.056.243v3.035q.002.531-.056.774a.86.86 0 0 1-.21.42c-.274.306-.734.451-1.396.451-.654 0-1.122-.153-1.388-.452a.86.86 0 0 1-.21-.42q-.059-.253-.057-.774v-3.0260000000000002c0-.09.033-.186.057-.234l.064-.09v-.064h-1.517v.065s.057.056.073.08c.04.049.056.154.056.243v3.494c0 .428.057.8.162 1.106.113.315.306.557.597.742.492.315 1.194.468 2.123.468h.088c.928 0 1.63-.153 2.123-.468a1.43 1.43 0 0 0 .597-.742q.16-.462.161-1.106v-3.5020000000000002c0-.09.033-.186.057-.234q.026-.039.064-.09V29.7h-1.525v.065zM93.924 34.719c-.049.04-.154.056-.243.056h-3.793v-1.59h3.269a.5.5 0 0 1 .234.057q.038.026.089.065h.064v-1.372h-.064a.6.6 0 0 1-.081.072c-.048.04-.153.057-.242.057h-3.269v-1.38h3.689c.088 0 .177.032.234.056.024.017.056.033.088.065h.065v-1.26h-.065s-.056.057-.08.073c-.049.04-.154.057-.242.057h-5.093v.065s.049.048.073.08c.04.057.056.146.056.323V35.3c0 .186-.016.25-.048.307a.3.3 0 0 1-.08.097v.064h5.188a.5.5 0 0 1 .234.057c.025.016.057.04.09.064h.064V34.63h-.065a.6.6 0 0 1-.08.073zM33.299 35.55c-.057-.08-.138-.274-.218-.46l-2.212-4.697a1 1 0 0 1-.097-.339c-.008-.153-.024-.258.033-.298v-.065h-1.59v.065c.056.048.048.137.032.306a1.4 1.4 0 0 1-.12.42L27.1 34.921l-.113.242c-.072.153-.153.339-.185.38-.04.056-.121.153-.162.16v.073h1.63v-.064a.42.42 0 0 1-.12-.331c0-.073.032-.17.08-.283l.081-.185.315-.694h2.639l.411.904c.081.153.097.29.081.379a.4.4 0 0 1-.13.21v.064h1.825v-.072s-.113-.105-.162-.162zm-3.334-4.333.848 1.953H29.11z">
    </path>
    <path xmlns="http://www.w3.org/2000/svg"
          fill="red" d="M33.299 35.55c-.057-.08-.138-.274-.218-.46l-2.212-4.697c-.056-.105-.08-.266-.097-.339-.016-.072-.024-.258.033-.298v-.065h-1.59v.065c.056.048.048.201.032.306a1.5 1.5 0 0 1-.12.42L27.1 34.921l-.113.242c-.072.153-.153.339-.185.38-.04.056-.121.153-.162.16v.073h1.63v-.064a.42.42 0 0 1-.12-.331c0-.073.032-.17.08-.283l.081-.185.315-.694h2.639l.411.904c.081.153.097.29.081.379a.4.4 0 0 1-.13.21v.064h1.825v-.072s-.113-.105-.162-.162zm-3.334-4.333.848 1.953H29.11zM15.108 35.55c-.056-.08-.137-.274-.218-.46l-2.21-4.697a1 1 0 0 1-.098-.339c-.008-.153-.024-.258.032-.298v-.065h-1.59v.065c.057.048.05.137.033.306a1.4 1.4 0 0 1-.121.42L8.91 34.921l-.113.242c-.072.153-.153.339-.185.38-.04.056-.121.153-.162.16v.073h1.63v-.064a.43.43 0 0 1-.12-.331c0-.073.032-.17.08-.283l.08-.185.316-.694h2.639l.411.904c.08.153.097.29.08.379a.4.4 0 0 1-.128.21v.064h1.824v-.072s-.113-.105-.162-.162zm-3.333-4.333.848 1.953H10.92z">
    </path>
    <path xmlns="http://www.w3.org/2000/svg"
          fill="red" d="M15.108 35.55c-.056-.08-.137-.274-.218-.46l-2.21-4.697c-.057-.105-.082-.266-.098-.339-.016-.072-.024-.258.032-.298v-.065h-1.59v.065c.057.048.05.201.033.306a1.5 1.5 0 0 1-.121.42L8.91 34.921l-.113.242c-.072.153-.153.339-.185.38-.04.056-.121.153-.162.16v.073h1.63v-.064a.43.43 0 0 1-.12-.331c0-.073.032-.17.08-.283l.08-.185.316-.694h2.639l.411.904c.08.153.097.29.08.379a.4.4 0 0 1-.128.21v.064h1.824v-.072s-.113-.105-.162-.162zm-3.333-4.333.848 1.953H10.92z">
    </path>
</svg>