<svg xmlns:dc="http://purl.org/dc/elements/1.1/" xmlns:cc="http://creativecommons.org/ns#" xmlns:rdf="http://www.w3.org/1999/02/22-rdf-syntax-ns#" xmlns:svg="http://www.w3.org/2000/svg" xmlns="http://www.w3.org/2000/svg" xmlns:sodipodi="http://sodipodi.sourceforge.net/DTD/sodipodi-0.dtd" xmlns:inkscape="http://www.inkscape.org/namespaces/inkscape" id="svg2" version="1.1" inkscape:version="0.48.2 r9819" viewBox="0 0 1000 444.27081" xml:space="preserve" sodipodi:docname="Bupa.svg"><metadata id="metadata8"><rdf:RDF><cc:Work rdf:about=""><dc:format>image/svg+xml</dc:format><dc:type rdf:resource="http://purl.org/dc/dcmitype/StillImage"/><dc:title/></cc:Work></rdf:RDF></metadata><defs id="defs6"><clipPath clipPathUnits="userSpaceOnUse" id="clipPath16"><path d="m 0,841.89 595.276,0 L 595.276,0 0,0 0,841.89 z" id="path18" inkscape:connector-curvature="0"/></clipPath><clipPath clipPathUnits="userSpaceOnUse" id="clipPath22"><path d="m 0.059998,841.98 595.320002,0 0,-841.92 -595.320002,0 0,841.92 z" id="path24" inkscape:connector-curvature="0"/></clipPath><clipPath clipPathUnits="userSpaceOnUse" id="clipPath32"><path d="m 0,850.394 603.664,0 0,-858.898 -603.664,0 0,858.898 z" clip-rule="evenodd" id="path34" inkscape:connector-curvature="0"/></clipPath><clipPath clipPathUnits="userSpaceOnUse" id="clipPath38"><path d="m 0,841.89 595.276,0 L 595.276,0 0,0 0,841.89 z" id="path40" inkscape:connector-curvature="0"/></clipPath><clipPath clipPathUnits="userSpaceOnUse" id="clipPath44"><path d="m 0.059998,841.98 595.320002,0 0,-841.92 -595.320002,0 0,841.92 z" id="path46" inkscape:connector-curvature="0"/></clipPath><clipPath clipPathUnits="userSpaceOnUse" id="clipPath52"><path d="m 0.06,0.06 595.32,0 0,841.91998 -595.32,0 L 0.06,0.06 z" id="path54" inkscape:connector-curvature="0"/></clipPath><clipPath clipPathUnits="userSpaceOnUse" id="clipPath60"><path d="m 0,850.394 603.664,0 0,-858.898 -603.664,0 0,858.898 z" clip-rule="evenodd" id="path62" inkscape:connector-curvature="0"/></clipPath><clipPath clipPathUnits="userSpaceOnUse" id="clipPath66"><path d="m 0,841.89 595.276,0 L 595.276,0 0,0 0,841.89 z" id="path68" inkscape:connector-curvature="0"/></clipPath><clipPath clipPathUnits="userSpaceOnUse" id="clipPath72"><path d="m 0.059998,841.98 595.320002,0 0,-841.92 -595.320002,0 0,841.92 z" id="path74" inkscape:connector-curvature="0"/></clipPath><clipPath clipPathUnits="userSpaceOnUse" id="clipPath82"><path d="m -0.005,0.055 0.991,0 0,5.464 -0.991,0 0,-5.464 z" id="path84" inkscape:connector-curvature="0"/></clipPath><clipPath clipPathUnits="userSpaceOnUse" id="clipPath90"><path d="m 0,1 0,-2.5577 1.0406,0 0,2.5577" id="path92" inkscape:connector-curvature="0"/></clipPath><clipPath clipPathUnits="userSpaceOnUse" id="clipPath96"><path d="m -0.004995,3e-6 1.005,0 0,5.5746 -1.005,0 0,-5.5746 z" clip-rule="evenodd" id="path98" inkscape:connector-curvature="0"/></clipPath><clipPath clipPathUnits="userSpaceOnUse" id="clipPath102"><path d="m -0.004995,0.055197 0.99103,0 0,5.4642 -0.99103,0 0,-5.4642 z" id="path104" inkscape:connector-curvature="0"/></clipPath><clipPath clipPathUnits="userSpaceOnUse" id="clipPath108"><path d="m -0.004895,0.054613 0.99111,0 0,5.4644 -0.99111,0 0,-5.4644 z" id="path110" inkscape:connector-curvature="0"/></clipPath><clipPath clipPathUnits="userSpaceOnUse" id="clipPath118"><path d="m 0,841.89 595.276,0 L 595.276,0 0,0 0,841.89 z" id="path120" inkscape:connector-curvature="0"/></clipPath><clipPath clipPathUnits="userSpaceOnUse" id="clipPath124"><path d="m 0.059998,841.98 595.320002,0 0,-841.92 -595.320002,0 0,841.92 z" id="path126" inkscape:connector-curvature="0"/></clipPath><clipPath clipPathUnits="userSpaceOnUse" id="clipPath134"><path d="m 0,841.89 595.276,0 L 595.276,0 0,0 0,841.89 z" id="path136" inkscape:connector-curvature="0"/></clipPath><clipPath clipPathUnits="userSpaceOnUse" id="clipPath140"><path d="m 0.059998,841.98 595.320002,0 0,-841.92 -595.320002,0 0,841.92 z" id="path142" inkscape:connector-curvature="0"/></clipPath><clipPath clipPathUnits="userSpaceOnUse" id="clipPath306"><path d="m 483.308,833.386 86.862,0 0,-57.15 -86.862,0 0,57.15 z" clip-rule="evenodd" id="path308" inkscape:connector-curvature="0"/></clipPath><clipPath clipPathUnits="userSpaceOnUse" id="clipPath312"><path d="m 0,841.89 595.276,0 L 595.276,0 0,0 0,841.89 z" id="path314" inkscape:connector-curvature="0"/></clipPath><clipPath clipPathUnits="userSpaceOnUse" id="clipPath318"><path d="m 0.059998,841.98 595.320002,0 0,-841.92 -595.320002,0 0,841.92 z" id="path320" inkscape:connector-curvature="0"/></clipPath><clipPath clipPathUnits="userSpaceOnUse" id="clipPath326"><path d="m 0.06,0.06 595.32,0 0,841.91998 -595.32,0 L 0.06,0.06 z" id="path328" inkscape:connector-curvature="0"/></clipPath><clipPath clipPathUnits="userSpaceOnUse" id="clipPath334"><path d="m 483.308,833.386 86.862,0 0,-57.15 -86.862,0 0,57.15 z" clip-rule="evenodd" id="path336" inkscape:connector-curvature="0"/></clipPath><clipPath clipPathUnits="userSpaceOnUse" id="clipPath340"><path d="m 0,841.89 595.276,0 L 595.276,0 0,0 0,841.89 z" id="path342" inkscape:connector-curvature="0"/></clipPath><clipPath clipPathUnits="userSpaceOnUse" id="clipPath346"><path d="m 0.059998,841.98 595.320002,0 0,-841.92 -595.320002,0 0,841.92 z" id="path348" inkscape:connector-curvature="0"/></clipPath><clipPath clipPathUnits="userSpaceOnUse" id="clipPath356"><path d="m -6.519001,-23.438002 7.892001,0 0,24.925002 -7.892001,0 0,-24.925002 z" id="path358" inkscape:connector-curvature="0"/></clipPath><clipPath clipPathUnits="userSpaceOnUse" id="clipPath364"><path d="m -0.11283,1.2323 1.1516,0 0,-1.6919 -1.1516,0 0,1.6919 z" clip-rule="evenodd" id="path366" inkscape:connector-curvature="0"/></clipPath><clipPath clipPathUnits="userSpaceOnUse" id="clipPath370"><path d="m -6.5202,1.484 7.8918,0 0,-24.923 -7.8918,0 0,24.923 z" id="path372" inkscape:connector-curvature="0"/></clipPath><clipPath clipPathUnits="userSpaceOnUse" id="clipPath376"><path d="m -6.5194,1.4867 7.8924,0 0,-24.924 -7.8924,0 0,24.924 z" id="path378" inkscape:connector-curvature="0"/></clipPath><clipPath clipPathUnits="userSpaceOnUse" id="clipPath394"><path d="m 0,841.89 595.276,0 L 595.276,0 0,0 0,841.89 z" id="path396" inkscape:connector-curvature="0"/></clipPath><clipPath clipPathUnits="userSpaceOnUse" id="clipPath400"><path d="m 0.059998,841.98 595.320002,0 0,-841.92 -595.320002,0 0,841.92 z" id="path402" inkscape:connector-curvature="0"/></clipPath><clipPath clipPathUnits="userSpaceOnUse" id="clipPath3663"><path inkscape:connector-curvature="0" d="m 553.441,92.531 -140.545,0 0,-62.362 140.545,0 0,62.362 z" id="path3665"/></clipPath></defs><sodipodi:namedview pagecolor="#ffffff" bordercolor="#666666" borderopacity="1" objecttolerance="10" gridtolerance="10" guidetolerance="10" inkscape:pageopacity="0" inkscape:pageshadow="2" inkscape:window-width="1920" inkscape:window-height="1028" id="namedview4" showgrid="false" fit-margin-top="0.5" fit-margin-left="0.5" fit-margin-right="0.5" fit-margin-bottom="0.5" inkscape:zoom="0.44851468" inkscape:cx="140.14811" inkscape:cy="68.992723" inkscape:window-x="-8" inkscape:window-y="-8" inkscape:window-maximized="1" inkscape:current-layer="g10"/><g id="g10" inkscape:groupmode="layer" inkscape:label="BUPA_ASU_3555_2002_ONL" transform="matrix(1.25,0,0,-1.25,-586.61466,1441.7834)"><g id="g130"><g id="g132" clip-path="url(#clipPath134)"><g id="g138" clip-path="url(#clipPath140)"/></g></g><g id="g3677" transform="matrix(5.6864349,0,0,5.6864349,-1878.2145,626.85599)"><g id="g3659"><g clip-path="url(#clipPath3663)" id="g3661"><path id="path3667" d="m 526.609,49.08 c 0.003,-0.327 0.089,-0.373 0.237,-0.152 0.852,1.276 3.853,5.71 5.701,7.614 2.168,2.237 3.879,2.642 6.399,0.962 2.522,-1.681 4.491,-3.709 6.866,-4.52 2.377,-0.812 7.629,-0.492 7.629,-0.492 l -0.842,-4.577 c 0,0 -4.729,-0.349 -7.887,0.519 -3.159,0.87 -5.91,3.131 -7.099,3.941 -1.187,0.812 -2.045,0.859 -2.787,0.067 -0.744,-0.793 -4.036,-5.816 -5.695,-8.233 -1.657,-2.419 -4.651,-3.694 -6.015,-0.379 -1.197,2.909 -1.76,35.929 -1.766,36.22 -0.007,0.291 -0.242,0.287 -0.307,0.008 -0.066,-0.278 -9.535,-41.093 -10.886,-45.374 -1.507,-4.773 -4.908,-6.169 -6.477,-2.201 -1.571,3.968 -2.698,10.153 -3.273,12.514 -0.534,2.189 -1.133,2.133 -3.183,0.663 -2.05,-1.47 -5.153,-3.647 -8.557,-3.647 -3.403,0 -33.412,0 -33.412,0 l 0.897,4.874 c 0,0 27.35,10e-4 31.636,10e-4 4.286,0 6.262,3.009 8.573,4.543 2.311,1.533 4.852,2.036 6.657,-0.517 1.763,-2.49 2.376,-7.623 3.567,-13.041 0.029,-0.134 0.143,-0.136 0.17,-10e-4 2.808,13.819 9.392,40.566 11.383,48.535 1.992,7.969 6.646,8.2 7.166,0.461 0.519,-7.74 1.253,-33.465 1.305,-37.788" inkscape:connector-curvature="0" fill="white"/></g></g><path id="path3669" d="m 423.914,62.848 c -0.509,-0.126 -1.325,-0.195 -3.028,-0.195 -1.292,0 -2.959,0 -2.959,0 l 1.495,8.44 4.39,0 c 5.791,0 5.262,-6.969 0.102,-8.245 z m -2.538,19.289 3.963,0 c 4.756,0 4.384,-6.471 0.297,-7.819 -0.557,-0.184 -1.3,-0.236 -2.654,-0.236 -1.292,0 -3.027,0 -3.027,0 l 1.421,8.055 z m 7.018,-9.257 c 1.818,0.391 5.058,2.261 5.058,6.076 0,4.067 -2.61,5.962 -7.199,5.962 -2.823,0 -7.261,0.007 -8.88,0.007 l -4.477,-25.171 c 0.55,0 5.393,0.002 8.128,0.002 1.858,0 3.628,0.062 4.624,0.271 4.565,0.964 6.415,4.282 6.782,6.715 0.509,3.371 -1.618,5.598 -4.036,6.138" inkscape:connector-curvature="0" fill="white"/><path id="path3671" d="m 442.326,59.365 c 6.292,0 8.658,3.285 9.41,7.194 0.248,1.285 1.441,7.806 1.533,8.464 0.272,1.942 -1.327,2.7 -2.531,2.7 -0.427,0 -1.17,0 -1.17,0 0,0 -1.727,-9.883 -1.921,-11.009 -0.418,-2.421 -1.581,-4.078 -4.86,-4.078 -1.866,0 -3.683,1.126 -3.256,3.65 0.165,0.976 1.402,8.159 1.506,8.737 0.348,1.942 -1.308,2.7 -2.671,2.7 -0.195,0 -1.036,0 -1.036,0 -0.253,-1.5 -1.388,-7.819 -1.822,-10.296 -0.174,-0.995 -0.239,-2.007 -0.163,-2.66 0.387,-3.358 3.333,-5.402 6.981,-5.402" inkscape:connector-curvature="0" fill="white"/><path id="path3673" d="m 464.429,62.295 c -6.559,0.364 -4.426,12.939 2.245,12.569 6.032,-0.334 4.155,-12.923 -2.245,-12.569 z m 3.553,15.796 c -3.338,0 -5.608,-1.622 -6.764,-3.309 l 0.05,0.241 c 0.364,1.734 -1.116,2.7 -2.372,2.7 l -1.245,0 c 0,0 -3.382,-19.358 -3.847,-21.688 -0.549,-2.742 1.674,-3.378 2.38,-3.378 0.66,0 0.482,0 1.026,0 l 1.826,9.922 c 0.709,-1.417 2.733,-3.214 5.957,-3.214 5.808,0 9.401,4.531 9.761,9.836 0.384,5.643 -2.929,8.89 -6.772,8.89" inkscape:connector-curvature="0" fill="white"/><path id="path3675" d="m 485.181,62.65 c -6.032,0.335 -4.155,12.888 2.244,12.533 6.56,-0.365 4.427,-12.903 -2.244,-12.533 z m 8.132,15.092 -0.523,-2.745 c -0.709,1.417 -2.704,3.116 -5.928,3.116 -5.693,0 -9.067,-4.689 -9.631,-9.686 -0.647,-5.712 3.042,-9.051 6.805,-9.051 3.535,0 5.429,1.564 6.581,3.35 l -0.065,-0.271 c -0.332,-1.674 1.061,-2.7 2.374,-2.7 l 1.137,0 3.161,17.987 -3.911,0" inkscape:connector-curvature="0" fill="white"/></g></g></svg>