<?xml version="1.0" encoding="UTF-8"?>
<svg version="1.1" xmlns="http://www.w3.org/2000/svg" viewBox="0 0 757 159">
<path d="M0 0 C10.23 0 20.46 0 31 0 C31 41.91 31 83.82 31 127 C35.95 127 40.9 127 46 127 C46 127.99 46 128.98 46 130 C30.82 130 15.64 130 0 130 C0 129.01 0 128.02 0 127 C4.95 127 9.9 127 15 127 C14.505 66.115 14.505 66.115 14 4 C7.07 3.505 7.07 3.505 0 3 C0 2.01 0 1.02 0 0 Z " fill="#FFFFFF" transform="translate(139,26)"/>
<path d="M0 0 C7.11735354 5.8059026 10.82306043 12.81177298 13.03515625 21.66015625 C13.03515625 24.63015625 13.03515625 27.60015625 13.03515625 30.66015625 C-6.43484375 30.66015625 -25.90484375 30.66015625 -45.96484375 30.66015625 C-46.01312205 51.75661604 -46.01312205 51.75661604 -37.96484375 69.66015625 C-37.96484375 70.32015625 -37.96484375 70.98015625 -37.96484375 71.66015625 C-29.11405404 76.14617295 -21.35977283 79.63361558 -11.359375 76.96484375 C-3.95126031 74.29747416 1.75950379 70.5783905 5.41015625 63.47265625 C6.43401371 61.21571828 7.24925297 59.01786609 8.03515625 56.66015625 C9.02515625 56.66015625 10.01515625 56.66015625 11.03515625 56.66015625 C10.72008189 64.06440383 7.42437622 69.24873615 2.24609375 74.4609375 C-6.38959108 81.62180373 -17.12284837 82.59391662 -27.96484375 81.66015625 C-38.51768293 80.08510563 -47.90700596 75.74666612 -55.296875 67.91796875 C-64.24343837 55.80763238 -66.17566588 43.30549525 -64.96484375 28.66015625 C-62.70898936 17.741821 -55.73486674 7.46900874 -46.96484375 0.66015625 C-31.34413647 -8.48582978 -15.47567287 -11.10863996 0 0 Z M-39.77734375 3.84765625 C-44.74138074 11.59557886 -44.96484375 18.4605993 -44.96484375 27.66015625 C-32.09484375 27.66015625 -19.22484375 27.66015625 -5.96484375 27.66015625 C-5.20533251 13.26832379 -5.20533251 13.26832379 -10.27734375 0.09765625 C-15.14322033 -4.31558065 -19.79456699 -4.85234298 -26.1796875 -4.71484375 C-32.05287506 -3.92406394 -36.14433204 -0.70169373 -39.77734375 3.84765625 Z " fill="#FFFFFF" transform="translate(743.96484375,77.33984375)"/>
<path d="M0 0 C1.32 0.33 2.64 0.66 4 1 C5.49789742 1.08966287 6.99943021 1.13013894 8.5 1.125 C9.2528125 1.12757812 10.005625 1.13015625 10.78125 1.1328125 C13.32656368 1.04878742 13.32656368 1.04878742 17 0 C17.33 8.25 17.66 16.5 18 25 C30.87 25.495 30.87 25.495 44 26 C44 26.66 44 27.32 44 28 C35.09 28 26.18 28 17 28 C17.06302041 37.13656605 17.13851714 46.27279855 17.23571491 55.4090662 C17.28035918 59.6518417 17.31962819 63.8945225 17.34643555 68.13745117 C17.37252813 72.23547728 17.41297207 76.33313779 17.46318626 80.43093681 C17.47981486 81.99090449 17.49135403 83.55093534 17.49761391 85.11097908 C17.5072991 87.30361996 17.53540857 89.49533395 17.56762695 91.68774414 C17.57873001 92.93350723 17.58983307 94.17927032 17.60127258 95.46278381 C18.10533188 99.93442695 19.12328415 104.45841198 22.75 107.4375 C28.08498937 108.77124734 33.02694021 108.31305106 38 106 C39.10083881 104.18498655 39.10083881 104.18498655 40 102 C40.52980469 100.83210938 40.52980469 100.83210938 41.0703125 99.640625 C41.59238281 98.45726562 41.59238281 98.45726562 42.125 97.25 C42.47820313 96.45078125 42.83140625 95.6515625 43.1953125 94.828125 C43.46085938 94.22484375 43.72640625 93.6215625 44 93 C44.99 93 45.98 93 47 93 C46.10247043 99.82431969 44.29440495 104.45666179 39 109 C32.13241368 113.34479951 23.92276996 112.91927233 16.11328125 111.4609375 C10.10478977 109.82634042 5.90072108 107.71531583 2.25 102.5 C0.02072551 98.04145102 -0.12273571 94.27728272 -0.11352539 89.30371094 C-0.11367142 88.63988403 -0.11381744 87.97605713 -0.1139679 87.29211426 C-0.11327332 85.1061675 -0.10550231 82.92030681 -0.09765625 80.734375 C-0.09579045 79.21551561 -0.09436731 77.69665562 -0.09336853 76.17779541 C-0.0895561 72.18622161 -0.0797367 68.19468438 -0.06866455 64.203125 C-0.05842303 60.1276092 -0.05386504 56.05208747 -0.04882812 51.9765625 C-0.03811327 43.98435638 -0.0205268 35.99218695 0 28 C-4.62 28 -9.24 28 -14 28 C-14 27.34 -14 26.68 -14 26 C-9.38 26 -4.76 26 0 26 C0 17.42 0 8.84 0 0 Z " fill="#FFFFFF" transform="translate(624,47)"/>
<path d="M0 0 C4.67949206 3.8441729 8.04940169 7.64353526 8.828125 13.84375 C9.01689209 17.75065665 9.01620611 20.50134182 7.08203125 23.94921875 C3.33635009 26.05045452 -0.20116585 26.60793049 -4.48046875 26.38671875 C-6.97105538 25.24519988 -8.57007435 24.29711315 -10.48046875 22.38671875 C-10.71092142 16.27972287 -10.71092142 16.27972287 -9.98046875 13.44921875 C-9.14452686 10.00095844 -9.25496489 6.93840452 -9.48046875 3.38671875 C-11.40637303 0.34581725 -14.15469228 -0.46059736 -17.48046875 -1.61328125 C-24.87667016 -2.49062376 -31.36655953 -2.11359215 -37.48046875 2.38671875 C-45.66392505 10.12782606 -46.33214841 24.05621385 -46.70703125 34.62109375 C-47.00009142 48.27793385 -47.12928656 62.72310766 -38.41796875 74.07421875 C-32.79779775 78.49860869 -25.86109065 79.96867092 -18.76953125 79.66796875 C-11.14488312 78.73115192 -4.37013274 76.56125795 0.51953125 70.38671875 C2.76489831 66.4884429 4.70238025 62.50026937 6.51953125 58.38671875 C8.00453125 58.88171875 8.00453125 58.88171875 9.51953125 59.38671875 C8.88234072 66.1834177 4.68810603 71.54984842 -0.10546875 76.13671875 C-8.52676339 83.0154211 -17.87852623 84.40470386 -28.48046875 83.38671875 C-39.61040065 81.72362548 -49.76392925 77.86195878 -57.48046875 69.38671875 C-65.50790778 58.31829693 -68.59373591 46.41693162 -67.078125 32.76171875 C-64.93548374 21.19906298 -60.16288306 10.49679016 -50.48046875 3.38671875 C-34.94856386 -5.80346775 -16.3859789 -10.65733745 0 0 Z " fill="#FFFFFF" transform="translate(411.48046875,75.61328125)"/>
<path d="M0 0 C3.95677494 3.40466681 6.34193221 5.90321429 7.10546875 11.2265625 C7.46323418 19.17475654 7.46323418 19.17475654 4.8125 23.0625 C0.48176871 24.79479252 -3.70952909 25.17848266 -8.3125 24.3125 C-10.1328125 22.98828125 -10.1328125 22.98828125 -11.3125 21.3125 C-11.0625 18.0625 -11.0625 18.0625 -10.3125 14.3125 C-9.34966603 9.59474591 -9.34966603 9.59474591 -10 4.9375 C-11.21033009 3.2312787 -11.21033009 3.2312787 -13 2.375 C-16.53890131 2.27935402 -19.15334018 3.819079 -22.3125 5.3125 C-23.3025 5.6425 -24.2925 5.9725 -25.3125 6.3125 C-26.41928353 8.09697752 -26.41928353 8.09697752 -27.3125 10.3125 C-27.7146875 11.11945313 -28.116875 11.92640625 -28.53125 12.7578125 C-28.9540625 13.64210938 -29.376875 14.52640625 -29.8125 15.4375 C-30.2353125 16.30632812 -30.658125 17.17515625 -31.09375 18.0703125 C-34.14824268 26.19604623 -34.62911104 34.40090329 -34.7265625 43.0078125 C-34.74592865 44.08126923 -34.7652948 45.15472595 -34.7852478 46.26071167 C-34.84451033 49.65289636 -34.89121392 53.04511598 -34.9375 56.4375 C-34.97572893 58.75261808 -35.01478344 61.06772269 -35.0546875 63.3828125 C-35.15016746 69.02593081 -35.23439307 74.66911558 -35.3125 80.3125 C-29.7025 80.3125 -24.0925 80.3125 -18.3125 80.3125 C-18.3125 81.3025 -18.3125 82.2925 -18.3125 83.3125 C-34.1525 83.3125 -49.9925 83.3125 -66.3125 83.3125 C-66.3125 82.3225 -66.3125 81.3325 -66.3125 80.3125 C-61.3625 80.3125 -56.4125 80.3125 -51.3125 80.3125 C-51.6425 54.9025 -51.9725 29.4925 -52.3125 3.3125 C-59.2425 2.8175 -59.2425 2.8175 -66.3125 2.3125 C-66.3125 1.6525 -66.3125 0.9925 -66.3125 0.3125 C-56.0825 0.3125 -45.8525 0.3125 -35.3125 0.3125 C-34.9825 5.2625 -34.6525 10.2125 -34.3125 15.3125 C-33.4875 13.78625 -32.6625 12.26 -31.8125 10.6875 C-28.00944 4.38477615 -23.52042069 0.04845798 -16.375 -2.125 C-10.50328393 -3.24397143 -5.32496779 -2.71271944 0 0 Z " fill="#FFFFFF" transform="translate(594.3125,72.6875)"/>
<path d="M0 0 C5.5017544 4.40140352 8.85721372 8.4120727 10.8125 15.25 C11.05732727 18.26713562 11.05732727 18.26713562 11.05200195 21.4831543 C11.05573318 22.69428391 11.05946442 23.90541351 11.06330872 25.15324402 C11.05917465 26.44716568 11.05504059 27.74108734 11.05078125 29.07421875 C11.05680532 30.42609936 11.06441411 31.77797375 11.0735321 33.12983704 C11.11052699 38.85033966 11.12915823 44.5706406 11.11791992 50.29125977 C11.11207404 53.79979743 11.13029128 57.30752465 11.16380882 60.81589699 C11.17562756 62.79843803 11.16041718 64.78108042 11.14485168 66.76359558 C11.1580394 67.96526871 11.17122711 69.16694183 11.18481445 70.4050293 C11.18544388 71.46392868 11.1860733 72.52282806 11.1867218 73.61381531 C11.57718308 76.44929325 11.57718308 76.44929325 14.1290741 78.13484192 C17.70619449 79.62139488 20.06209051 79.0000819 23.8125 78.25 C25.1325 78.25 26.4525 78.25 27.8125 78.25 C24.55326267 82.16108479 21.80737622 83.36381228 16.8125 84.25 C10.14565568 84.34788189 4.33242585 83.08717709 -1.1875 79.25 C-5.5618726 74.6513006 -6.30955804 71.24123815 -6.34521484 65.02197266 C-6.35547699 63.73698883 -6.36573914 62.452005 -6.37631226 61.12808228 C-6.37975018 60.44162251 -6.3831881 59.75516273 -6.38673019 59.04790115 C-6.39853946 56.8954785 -6.41799726 54.74325466 -6.43984985 52.59091187 C-6.50139817 46.47180822 -6.55549344 40.35272581 -6.58886719 34.23339844 C-6.60983956 30.48854172 -6.64516173 26.74404932 -6.68962479 22.99940109 C-6.70376348 21.5745409 -6.71250242 20.14961628 -6.71567917 18.72468948 C-6.7206003 16.72865269 -6.74539015 14.73269502 -6.77099609 12.73681641 C-6.77908295 11.60225006 -6.7871698 10.46768372 -6.79550171 9.29873657 C-7.23694363 5.86545596 -8.12364385 4.00712804 -10.1875 1.25 C-13.83186764 -1.17957843 -15.66677548 -1.01845889 -20 -1 C-21.20269531 -1.00515625 -22.40539062 -1.0103125 -23.64453125 -1.015625 C-27.20077568 -0.74900469 -29.93563286 -0.20823639 -33.1875 1.25 C-34.61326742 5.52730226 -34.08898272 9.81488856 -33.796875 14.26953125 C-33.67760665 18.27247515 -34.00542554 20.01395458 -36.48046875 23.22265625 C-39.1875 25.25 -39.1875 25.25 -42.75 25.8125 C-46.1875 25.25 -46.1875 25.25 -48.5625 23.75 C-50.77235863 20.3502175 -51.35218372 17.23235173 -51.1875 13.25 C-49.4706181 6.72584879 -45.72759184 2.9865561 -40.1875 -0.75 C-27.96793892 -7.59456469 -12.01054133 -6.59402269 0 0 Z " fill="#FFFFFF" transform="translate(53.1875,74.75)"/>
<path d="M0 0 C4.35760345 3.35764813 7.23380748 7.42657785 8.91796875 12.6796875 C9.47736961 17.4287995 9.45181962 22.14048405 9.421875 26.91796875 C9.4292522 28.28941646 9.43880567 29.66085401 9.45042419 31.03227234 C9.47697696 34.61992423 9.48272482 38.20724338 9.48132324 41.79498291 C9.47908359 47.55393783 9.4931829 53.31248525 9.5369091 59.07127953 C9.54674142 61.07820346 9.53760792 63.08519128 9.5282135 65.09211731 C9.53509689 66.3073558 9.54198029 67.5225943 9.54907227 68.7746582 C9.5481105 69.84529007 9.54714874 70.91592194 9.54615784 72.01899719 C9.70315551 74.69422251 9.70315551 74.69422251 11.26914978 76.49797058 C13.80158078 78.31297672 15.82232145 78.50109246 18.91796875 78.6796875 C22.6985592 77.82672072 22.6985592 77.82672072 25.91796875 76.6796875 C25.91796875 77.6696875 25.91796875 78.6596875 25.91796875 79.6796875 C20.13870822 83.17766098 14.18980856 84.39629906 7.51953125 83.27734375 C1.98640872 81.68161387 -2.15471388 78.87583909 -6.08203125 74.6796875 C-7.4608821 71.92198581 -7.2219914 69.683281 -7.23974609 66.59692383 C-7.25000824 65.31831985 -7.26027039 64.03971588 -7.27084351 62.72236633 C-7.27428143 62.03665369 -7.27771935 61.35094105 -7.28126144 60.64444923 C-7.29305637 58.49575731 -7.31251316 56.34726585 -7.3343811 54.19865417 C-7.3959584 48.08880351 -7.44992788 41.97897079 -7.48339844 35.86889648 C-7.50442177 32.13166854 -7.53979143 28.39480209 -7.58415604 24.6577816 C-7.5982623 23.23736535 -7.60702628 21.81688509 -7.61021042 20.39640236 C-7.49298221 10.09686008 -7.49298221 10.09686008 -11.08203125 0.6796875 C-15.61910312 -2.91628868 -22.63273458 -1.76031782 -28.08203125 -1.3203125 C-31.46100063 -0.17489915 -33.2229779 0.46740497 -35.26953125 3.35546875 C-36.41228495 6.6244036 -35.84985857 9.20405393 -35.39453125 12.6171875 C-34.82239567 19.24155246 -34.82239567 19.24155246 -37.08203125 23.0546875 C-40.78798049 25.06207667 -42.92264626 25.28468895 -47.08203125 24.6796875 C-50.26706695 22.91953619 -50.91500097 22.18077834 -52.08203125 18.6796875 C-52.5112099 13.52954375 -52.45626681 9.84884304 -49.53515625 5.34375 C-37.66453189 -8.25002951 -14.64865541 -9.28939123 0 0 Z " fill="#FFFFFF" transform="translate(493.08203125,75.3203125)"/>
<path d="M0 0 C4.78803223 3.61874436 7.22731628 8.01448662 8.91796875 13.71484375 C9.47416912 18.42482505 9.47573286 23.09335782 9.45703125 27.83203125 C9.46695591 29.17963239 9.47890384 30.52722 9.49276733 31.87478638 C9.52490814 35.39499771 9.53550336 38.9148981 9.53961182 42.4352417 C9.54842132 48.08950062 9.58386194 53.74350761 9.63178635 59.3975563 C9.64435424 61.36679657 9.64303133 63.33610962 9.64151001 65.3053894 C9.64846893 66.49737946 9.65542786 67.68936951 9.66259766 68.91748047 C9.66385651 69.96733124 9.66511536 71.01718201 9.66641235 72.09884644 C9.73252423 74.94856277 9.73252423 74.94856277 11.91796875 77.71484375 C17.3005178 79.08686606 20.82787646 78.48079414 25.91796875 76.71484375 C25.91796875 77.70484375 25.91796875 78.69484375 25.91796875 79.71484375 C19.98661882 83.30487134 14.04839685 84.38626312 7.2265625 83.27734375 C0.40662067 81.48850655 -3.15179841 78.61019301 -7.08203125 72.71484375 C-7.3470459 70.00946045 -7.3470459 70.00946045 -7.36914062 66.70214844 C-7.38255493 65.4636615 -7.39596924 64.22517456 -7.40979004 62.94915771 C-7.41235306 62.28754387 -7.41491608 61.62593002 -7.41755676 60.94426727 C-7.42586082 58.86681304 -7.44638198 56.78979529 -7.47009277 54.71246338 C-7.51830704 50.29665525 -7.55121247 45.880803 -7.58203125 41.46484375 C-7.61778453 36.35963683 -7.65991234 31.25464136 -7.7179718 26.14963531 C-7.73791317 24.11183265 -7.74633596 22.07419539 -7.75427246 20.03631592 C-7.53349688 9.85505945 -7.53349688 9.85505945 -11.58203125 0.83984375 C-16.470651 -2.82662106 -23.27370559 -1.77962211 -29.08203125 -1.28515625 C-32.37661702 -0.06343815 -34.47456683 1.4999149 -36.08203125 4.71484375 C-35.82414638 7.97397492 -35.4352456 11.20758914 -35.04296875 14.453125 C-35.08792732 18.20716545 -35.80369866 19.77589874 -38.08203125 22.71484375 C-41.81458573 25.2032134 -43.6664406 25.25710927 -48.08203125 24.71484375 C-50.90825596 22.54082475 -51.8922796 20.89052152 -52.4609375 17.3671875 C-52.65527376 13.21089909 -52.338773 10.29530336 -50.64453125 6.46484375 C-37.75352013 -7.36941209 -16.05151771 -9.90797247 0 0 Z " fill="#FFFFFF" transform="translate(256.08203125,75.28515625)"/>
<path d="M0 0 C0 0.66 0 1.32 0 2 C-0.66386719 2.15855469 -1.32773437 2.31710938 -2.01171875 2.48046875 C-7.61602281 3.96131406 -11.35868969 5.22078022 -15 10 C-19.20350712 18.89437738 -18.7269044 29.722597 -16 39 C-14.41578447 43.32490841 -12.71282558 45.61118605 -8.5625 47.875 C-5.69465621 48.78063488 -2.96936813 49.55009574 0 50 C0 50.66 0 51.32 0 52 C-10.16537627 51.34416927 -19.6503565 48.38230858 -27 41 C-30.59018736 36.10591374 -33 31.1578549 -33 25 C-31.61584946 17.05555263 -27.3949297 11.24769277 -20.96484375 6.49609375 C-14.89246572 2.80417607 -7.17400839 0 0 0 Z " fill="#FFFFFF" transform="translate(471,107)"/>
<path d="M0 0 C0.495 0.99 0.495 0.99 1 2 C0.33613281 2.15855469 -0.32773438 2.31710938 -1.01171875 2.48046875 C-7.38118206 4.16349482 -11.44191014 5.92188573 -15.078125 11.71875 C-18.42919861 20.01123723 -17.60987027 31.61721018 -15 40 C-12.96681502 44.21697625 -11.70906512 45.6261293 -7.5625 47.8125 C-4.68573841 48.77142053 -1.99175836 49.54670328 1 50 C1 50.66 1 51.32 1 52 C-10.95739787 50.61469171 -20.45944268 48.06668736 -28.2890625 38.41015625 C-31.74867581 33.12117906 -32.63998283 27.07058844 -31.6640625 20.86328125 C-29.33232868 13.15644673 -23.06772115 7.86091626 -16.1875 4.125 C-10.97323725 1.71654582 -5.67012399 0.72224013 0 0 Z " fill="#FFFFFF" transform="translate(233,107)"/>
<path d="M0 0 C-2.47438442 1.2866799 -4.87794751 2.32923032 -7.5 3.3125 C-11.31169768 5.15028281 -12.80525289 6.42337509 -15 10 C-18.20891073 19.4997609 -18.43378902 30.46039074 -15.03515625 39.9765625 C-12.95080324 44.05088272 -10.24086225 46.23689556 -5.83203125 47.73828125 C-3.90713059 48.23909611 -1.95415016 48.62938532 0 49 C0 49.66 0 50.32 0 51 C-12.10034727 49.6070047 -20.36047463 46.64600494 -28.40625 37.28125 C-32.20314501 31.84647872 -33.0534407 26.48054145 -32 20 C-28.30928802 10.75965125 -21.89550737 5.55430387 -13 1.625 C-8.46395795 -0.07426034 -4.80885888 -0.35621177 0 0 Z " fill="#FFFFFF" transform="translate(32,108)"/>
<path d="M0 0 C2.16796875 2.046875 2.16796875 2.046875 4.1875 4.75 C4.94804687 5.73871094 5.70859375 6.72742187 6.4921875 7.74609375 C6.89405273 8.27444824 7.29591797 8.80280273 7.70996094 9.34716797 C10.40941856 12.80578419 13.32189513 16.09194318 16.1940918 19.40722656 C19.09240398 22.79615376 21.59864198 26.25522491 24 30 C20.1346086 29.44888966 17.78092016 28.42791612 14.671875 26.0859375 C13.87136719 25.48910156 13.07085937 24.89226563 12.24609375 24.27734375 C11.42238281 23.64957031 10.59867188 23.02179687 9.75 22.375 C8.94175781 21.77042969 8.13351563 21.16585937 7.30078125 20.54296875 C-7.75455729 9.24544271 -7.75455729 9.24544271 -10 7 C-10.3125 4.625 -10.3125 4.625 -10 2 C-6.86427846 -1.61814024 -4.39888605 -1.2252857 0 0 Z " fill="#FFFFFF" transform="translate(24,27)"/>
<path d="M0 0 C4 1 4 1 5.18847656 2.76586914 C5.50268555 3.51473389 5.81689453 4.26359863 6.140625 5.03515625 C6.66269531 6.24848633 6.66269531 6.24848633 7.1953125 7.48632812 C7.54335938 8.33646484 7.89140625 9.18660156 8.25 10.0625 C8.79527344 11.34350586 8.79527344 11.34350586 9.3515625 12.65039062 C10.24795761 14.76163701 11.12996502 16.87778585 12 19 C12.22139648 18.45996338 12.44279297 17.91992676 12.67089844 17.36352539 C13.68169138 14.9230547 14.71543905 12.49298451 15.75 10.0625 C16.09804688 9.21236328 16.44609375 8.36222656 16.8046875 7.48632812 C17.15273438 6.67744141 17.50078125 5.86855469 17.859375 5.03515625 C18.17358398 4.2862915 18.48779297 3.53742676 18.81152344 2.76586914 C20 1 20 1 24 0 C24 7.92 24 15.84 24 24 C23.34 24 22.68 24 22 24 C21.67 18.06 21.34 12.12 21 6 C18.36 11.94 15.72 17.88 13 24 C12.34 24 11.68 24 11 24 C8.36 18.06 5.72 12.12 3 6 C2.67 11.94 2.34 17.88 2 24 C1.34 24 0.68 24 0 24 C0 16.08 0 8.16 0 0 Z " fill="#FFFFFF" transform="translate(502,1)"/>
<path d="M0 0 C3.00685978 1.79132072 4.52657334 3.24682123 6.375 6.1875 C7.4205429 10.89244307 7.37320841 15.61547565 4.91796875 19.87890625 C2.78629197 22.55155237 1.26703458 23.91098847 -2 25 C-8.1188126 25.50154202 -11.10653554 25.07788705 -16 21 C-18.89519533 16.657207 -19.2757288 13.57165413 -18.375 8.4375 C-16.83209585 4.58023963 -15.18003353 2.63710098 -12 0 C-7.81597182 -1.39467606 -4.27099461 -0.96829228 0 0 Z M-14 4 C-16.55035441 8.23557092 -16.66202204 12.17669656 -16 17 C-14.76546291 20.14744519 -14.76546291 20.14744519 -12 22 C-7.7651479 23.26413495 -4.2865277 23.47545589 -0.125 21.9375 C2.60104251 19.45199065 3.79029573 17.49470122 5 14 C4.93105717 10.07025878 4.31462868 7.60303831 2.5 4.125 C-2.44138224 -0.0751749 -9.02702518 -0.37019 -14 4 Z " fill="#FFFFFF" transform="translate(416,1)"/>
<path d="M0 0 C4.95 0 9.9 0 15 0 C15 0.66 15 1.32 15 2 C10.71 2 6.42 2 2 2 C2 4.97 2 7.94 2 11 C5.96 11 9.92 11 14 11 C14 11.66 14 12.32 14 13 C10.04 13 6.08 13 2 13 C2 15.97 2 18.94 2 22 C6.29 22 10.58 22 15 22 C15.33 22.66 15.66 23.32 16 24 C10.72 24 5.44 24 0 24 C0 16.08 0 8.16 0 0 Z " fill="#FFFFFF" transform="translate(560,1)"/>
<path d="M0 0 C2.9375 1.5 2.9375 1.5 5 3 C4.67 3.66 4.34 4.32 4 5 C3.29875 4.67 2.5975 4.34 1.875 4 C-1.39912675 2.86117331 -3.55706125 2.56963266 -7 3 C-9.69990662 4.79993774 -11.5418865 6.083773 -13 9 C-13.53365513 14.81345947 -13.53365513 14.81345947 -11.125 19.9375 C-8.6112029 22.3773619 -7.73816508 22.94967056 -4.25 23.1875 C-0.84144516 22.99085261 1.82227123 22.21056334 5 21 C4 24 4 24 2.375 25.1875 C-2.12272914 26.72619681 -5.82079357 26.43086389 -10.25 24.8125 C-13.4686267 22.6911324 -14.61898801 21.60597575 -16 18 C-16.73372017 13.63473553 -17.00996967 9.76268292 -14.7578125 5.83203125 C-10.39356604 0.56670903 -6.92088337 -0.4773023 0 0 Z " fill="#FFFFFF" transform="translate(362,0)"/>
<path d="M0 0 C2.9375 1.5 2.9375 1.5 5 3 C4.67 3.66 4.34 4.32 4 5 C3.34 4.649375 2.68 4.29875 2 3.9375 C-1.93843263 2.7067398 -5.06251818 2.75052769 -9 4 C-11.58640487 6.13378402 -12.73233972 7.6198767 -13.375 10.93359375 C-13.6080256 14.78579827 -13.24399542 16.61774051 -11.125 19.9375 C-8.6112029 22.3773619 -7.73816508 22.94967056 -4.25 23.1875 C-0.84144516 22.99085261 1.82227123 22.21056334 5 21 C4 24 4 24 2.375 25.1875 C-1.51368145 26.51783839 -5.05033022 26.76257245 -8.9375 25.2421875 C-12.55103904 23.33002309 -14.54210697 21.78504622 -16 18 C-16.74722522 13.71063983 -16.9617225 9.68680666 -14.76171875 5.828125 C-10.38569181 0.57254922 -6.92554848 -0.47762403 0 0 Z " fill="#FFFFFF" transform="translate(706,0)"/>
<path d="M0 0 C0.99 0.66 1.98 1.32 3 2 C3 2.66 3 3.32 3 4 C0.98177083 3.70703125 -1.03645833 3.4140625 -3.0546875 3.12109375 C-5.08140667 2.8315703 -5.08140667 2.8315703 -7 4 C-7 6.31 -7 8.62 -7 11 C-6.0925 11.12375 -5.185 11.2475 -4.25 11.375 C-1.39003836 11.92499262 0.55989718 12.46363897 3 14 C4.54163175 17.0832635 4.29747535 19.60878099 4 23 C1.69696158 25.85576764 0.14544949 25.98181881 -3.5 26.4375 C-7.48536323 25.9393296 -8.57526306 25.10366328 -11 22 C-8 22 -8 22 -4.4375 22.5625 C-1.14687006 23.30533512 -1.14687006 23.30533512 1 22 C1 20.35 1 18.7 1 17 C0.21753906 16.63648437 -0.56492187 16.27296875 -1.37109375 15.8984375 C-2.38300781 15.39570313 -3.39492188 14.89296875 -4.4375 14.375 C-5.44683594 13.88773438 -6.45617187 13.40046875 -7.49609375 12.8984375 C-10 11 -10 11 -10.9765625 7.96875 C-11 5 -11 5 -8.9375 2.125 C-5.54248102 -0.33097117 -4.09302737 -0.62285199 0 0 Z " fill="#FFFFFF" transform="translate(465,0)"/>
<path d="M0 0 C0.99 0.66 1.98 1.32 3 2 C3 2.66 3 3.32 3 4 C0.03 3.67 -2.94 3.34 -6 3 C-6.66 4.65 -7.32 6.3 -8 8 C-5.30895996 11.32422593 -1.86640714 12.38313883 2 14 C4 16 4 16 4.375 18.875 C4 22 4 22 2.4375 24.375 C-0.93510779 26.62340519 -3.02512383 26.56783945 -7 26 C-9.4375 24 -9.4375 24 -11 22 C-8 22 -8 22 -4.4375 22.625 C-3.303125 22.74875 -2.16875 22.8725 -1 23 C1.24366663 21.18917496 1.24366663 21.18917496 1.1875 18.625 C-0.27963956 15.3818494 -1.2332921 15.21437951 -4.4375 13.875 C-5.24058594 13.58367188 -6.04367187 13.29234375 -6.87109375 12.9921875 C-9 12 -9 12 -11 9 C-10.85815007 5.5956017 -10.61773643 3.68637382 -8.3125 1.125 C-5.33245569 -0.32475128 -3.27793445 -0.34871643 0 0 Z " fill="#FFFFFF" transform="translate(753,0)"/>
<path d="M0 0 C6.27 0 12.54 0 19 0 C19 0.66 19 1.32 19 2 C16.36 2 13.72 2 11 2 C11 9.26 11 16.52 11 24 C10.01 24 9.02 24 8 24 C8 16.74 8 9.48 8 2 C5.36 2 2.72 2 0 2 C0 1.34 0 0.68 0 0 Z " fill="#FFFFFF" transform="translate(605,1)"/>
<path d="M0 0 C0.66 0 1.32 0 2 0 C2 7.92 2 15.84 2 24 C1.34 24 0.68 24 0 24 C0 16.08 0 8.16 0 0 Z " fill="#FFFFFF" transform="translate(655,1)"/>
</svg>
