<svg xmlns="http://www.w3.org/2000/svg" viewBox="0 0 719.58 219.81">
  <defs>
    <radialGradient id="a" cx="361.11" cy="136.27" r="247.24" fx="159.9" fy="136.27" gradientTransform="matrix(.01396 -.9999 2.67974 .03742 -8.41 492.25)" gradientUnits="userSpaceOnUse">
      <stop offset=".41" stop-color="#ec1c24"/>
      <stop offset=".47" stop-color="#f25c17"/>
      <stop offset=".53" stop-color="#f7930d"/>
      <stop offset=".58" stop-color="#fbbb06"/>
      <stop offset=".62" stop-color="#fed401"/>
      <stop offset=".64" stop-color="#fd0"/>
    </radialGradient>
  </defs>
  <path fill="#fff" d="m651.38,97.72l17.8,7.45c3.31,1.41,4.75,5.32,3.14,8.54l-.27.55c8.37-2.59,17.79-1.16,23.9,1.79,20.36,9.81,19.09,26.72,13.06,40.89,0,0-17.9,39.66-20.17,49.54,0,0-14.73-6.78-18.16-8.69s-4.97-4.32-3.28-8.45c2.31-5.65,14.64-34.3,16.03-37.64,2.45-5.88-.06-13.19-6.69-16.12-6.21-2.75-12.97-1.96-16.47,6.27l-14.93,35.61c-1.67,3.92-6.19,5.74-10.11,4.07l-16.32-6.95,32.48-76.86Z"/>
  <path fill="#fff" d="m49.62,76.1c21.64-8.61,39.59-5.86,55.02,1.13l-6.1,18.49c-1.81,4.77-6.94,7.46-11.85,6.09-9.39-2.62-18.4-2.84-27.81.62-19.26,6.87-30.61,29.72-20.81,52,9.42,21.44,29.33,29.67,48.75,22.21,7.13-2.74,12.26-6.49,16.45-11.2,3.2-3.59,8.54-4.32,12.58-1.72l15.47,10.11c-7.41,12.45-17.99,22.27-36.35,28.84,0,0-59.09,22.21-85.59-37.01,0,0-25.52-62.07,40.24-89.55Z"/>
  <path fill="#fff" d="m179.46,70.37l-18.85,4.99c-2.52.67-4.1,3.07-3.82,5.6-5.78-1.89-11.98-2.24-18.1-.71-19.17,4.81-30.31,26.24-24.89,47.88,5.42,21.64,25.36,35.28,44.53,30.48,5.84-1.46,10.93-4.48,15.04-8.57.95,2.42,3.59,3.81,6.18,3.13l18.57-5.13-18.66-77.66Zm-23.23,68.02c-9.22,2.31-18.81-4.25-21.42-14.66-2.61-10.41,2.75-20.72,11.97-23.04,9.22-2.31,18.81,4.25,21.42,14.66,2.61,10.41-2.75,20.72-11.97,23.04Z"/>
  <path fill="#fff" d="m282.71,88.42c-4.53-21.79-23.85-36.2-43.15-32.19-6.15,1.28-11.7,4.4-16.07,8.59-1.32-2.33-4.02-3.67-6.79-3.13l-17.98,3.76,20.33,103.89,17.98-3.76c3.46-.68,5.72-4.04,5.04-7.5l-4.79-24.49c5.57,2.5,12.96,2.72,18.67,1.53,19.3-4.01,31.28-24.93,26.75-46.71Zm-33.8,27.36c-9.22,2.23-18.73-4.41-21.24-14.82-2.51-10.41,2.93-20.65,12.15-22.87,9.22-2.23,18.73,4.41,21.24,14.82,2.51,10.41-2.93,20.65-12.15,22.87Z"/>
  <path fill="#fff" d="m360.43,55.36l-.18,69.08,15.68.07c4.52.01,8.2-3.65,8.21-8.17l.18-69.08-15.68-.07c-4.52-.01-8.2,3.65-8.21,8.17Z"/>
  <path fill="#fff" d="m407.62,78.45c-.94-.07-1.76.68-1.75,1.62.17,9.02,7.16,16.65,16.35,17.34s17.05-5.16,18.87-14.55c.18-.93-.53-1.8-1.47-1.88l-32-2.53Z"/>
  <ellipse cx="373" cy="20.54" fill="#fff" rx="16.04" ry="16.39" transform="rotate(-89.85 373 20.54)"/>
  <path fill="#fff" d="m341.67,72.35l4.71-22.74s-15.93-5.32-27.63,5.68l-.54-6.94-18.32,1.41c-3.08.24-5.29,2.87-5.01,6.49l5.53,71.03,16.55-1.28c4.26-.48,6.94-3.83,6.64-7.75l-2.59-33.18s-1.21-7.91,3.16-12.21c2.86-2.82,8.25-4.14,17.51-.5Z"/>
  <path fill="#fff" d="m591.57,132.46c-3.15,8.31-9.44,9.38-15.79,7-6.75-2.52-9.78-9.92-7.59-15.85,1.24-3.37,12.52-35.71,14.58-41.41,1.51-4.16.89-7.04-3.59-8.25l-18.64-6.07-17.52,50c-5.42,14.31-1.46,32.97,25.44,41.46,36.44,11.5,45.39-15.81,45.39-15.81l17.28-45.24c1.42-3.75-.46-7.94-4.21-9.36l-17.34-5.53-18.01,49.06Z"/>
  <path fill="#fff" d="m488.64,49.02c-11.32,22.63,49.69,17.81,42.22,66.14-2.49,16.12-14.73,30.3-44.6,30.22-27.73-.07-50.64-18.65-50.64-18.65,0,0,5.89-9.05,9.33-14.68,3.11-5.1,8.18-4.71,12.59-2.08,15.36,9.16,38.19,14.18,42.33,3.87,2.78-6.92-.43-11.51-12.54-18.84-11.23-6.8-39.96-22.58-31.02-50.24,13.31-41.17,70.2-25.55,87.18-8.75,0,0-6.68,10.6-8.74,13.79-1.49,2.32-5.92,6.35-13.31,2.06-9.98-5.79-27.4-13.64-32.8-2.84Z"/>
</svg>