<svg viewBox="0 0 219 46" fill="none" xmlns="http://www.w3.org/2000/svg">
    <g>
        <path d="M54.918 25.9885C54.918 20.6051 58.4975 16.9717 63.2668 16.9717C64.9504 16.9717 66.9648 17.4067 69.0434 18.0642V22.3254H68.8903C67.7005 20.4617 65.7749 18.0642 63.6717 18.0642C61.0253 18.0642 58.9566 21.4356 58.9566 25.9588C58.9566 30.4821 61.1734 33.8831 63.6717 33.8831C65.5676 33.8831 67.4487 31.7674 68.8903 29.5922H69.0434V33.8831C67.0537 34.5159 65.1183 34.9657 63.1533 34.9657C58.5518 34.9657 54.918 31.3323 54.918 25.9885Z" fill="white"></path>
        <path d="M76.119 21.0102V33.6852H78.8739C80.9229 33.6852 83.1397 30.4176 83.5297 30.1951H83.6236V34.6838H71.8828V34.5701C71.9667 34.2487 72.5098 32.5086 72.5098 30.8823V21.0102C72.5098 19.374 71.9667 17.6339 71.8828 17.3224V17.2285H76.7114V17.3224C76.6571 17.6339 76.119 19.374 76.119 21.0102Z" fill="white"></path>
        <path d="M89.9175 26.1612V33.6901H93.3291C95.378 33.6901 97.5949 30.7339 97.9849 30.5658H98.0985V34.6886H85.7109V34.5749C85.7652 34.2536 86.3429 32.5135 86.3429 30.8871V21.0151C86.3429 19.3788 85.7702 17.6388 85.7109 17.3273V17.2334H98.0145V21.3562H97.9306C97.5356 21.1585 95.3188 18.2419 93.2748 18.2419H89.9175V25.311H91.3641C93.3785 25.311 95.5706 24.2185 95.936 24.1048H96.0594V27.3724H95.936C95.5706 27.2587 93.3785 26.1662 91.3641 26.1662H89.9175V26.1612Z" fill="white"></path>
        <path d="M102.084 29.6809L105.466 20.1846C105.915 18.9241 105.268 17.5201 105.184 17.2977V17.2334H109.48L114.506 30.7388C115.133 32.4344 115.725 33.6258 116.357 34.6046V34.6886H110.704V34.5749C110.758 34.2289 111.237 32.3998 110.615 30.7339L109.904 28.7664H103.59L103.17 29.9627C102.484 31.9648 103.308 34.1399 103.422 34.5453V34.6886H99.9805V34.6046C100.469 33.7197 101.343 31.8264 102.084 29.6809ZM109.504 27.6789L106.69 20.0956L103.994 27.6789H109.504Z" fill="white"></path>
        <path d="M126.939 30.1951C126.001 27.9261 124.722 26.8435 123.612 26.621H122.506V30.8823C122.506 32.5086 123.049 34.2537 123.103 34.5701V34.6838H118.27V34.5701C118.353 34.2487 118.897 32.5086 118.897 30.8823V21.0102C118.897 19.374 118.353 17.6339 118.27 17.3224V17.2285H126.056C129.438 17.2285 131.738 19.0329 131.738 21.7567C131.738 24.5349 129.699 25.9932 126.796 26.275C128.272 26.621 129.438 27.4515 130.262 28.9098C131.625 31.4211 132.114 33.1463 133.614 34.575V34.6887H129.294C128.648 34.0559 127.68 31.8858 126.939 30.2001V30.1951ZM122.511 18.1233V25.6422H124.752C126.771 25.6422 127.853 24.3915 127.853 21.9544C127.853 19.6409 126.826 18.1233 124.836 18.1233H122.511ZM123.054 26.5914C122.965 26.5914 122.871 26.5914 122.817 26.621C122.871 26.621 122.97 26.5914 123.054 26.5914Z" fill="white"></path>
        <path d="M134.669 20.9263C134.161 19.3196 133.168 17.6587 132.961 17.3225V17.2286H138.708V17.3225C138.619 17.6636 138.106 19.4976 138.678 21.1784L141.715 30.4176L144.307 22.1176L143.907 20.9213C143.398 19.3147 142.401 17.6537 142.179 17.3176V17.2236H147.886V17.3176C147.802 17.6834 147.284 19.4927 147.886 21.1734L150.947 30.388L153.569 21.9199C154.216 19.8881 153.569 17.7427 153.485 17.3176V17.2236H156.665V17.3176C156.512 17.5993 155.529 19.3394 155.04 20.9213L150.72 34.6789H148.558L144.894 23.8676L141.512 34.6789H139.35L134.664 20.9213L134.669 20.9263Z" fill="white"></path>
        <path d="M158.003 29.6809L161.409 20.1846C161.859 18.9241 161.182 17.5201 161.128 17.2977V17.2334H165.384L170.445 30.7388C171.067 32.4344 171.634 33.6258 172.286 34.6046V34.6886H166.603V34.5749C166.692 34.2289 167.176 32.3998 166.549 30.7339L165.813 28.7664H159.528L159.109 29.9627C158.393 31.9648 159.247 34.1399 159.331 34.5453V34.6886H155.895V34.6046C156.403 33.7197 157.257 31.8264 157.998 29.6809H158.003ZM165.409 27.6789L162.599 20.0956L159.894 27.6789H165.404H165.409Z" fill="white"></path>
        <path d="M171.145 17.2285H186.154V22.0088H186.04C185.665 21.7567 183.478 18.2914 181.468 18.2914H180.446V30.8823C180.446 32.5086 181.009 34.2537 181.068 34.5701V34.6838H176.24V34.5701C176.294 34.2487 176.867 32.5086 176.867 30.8823V18.2914H175.815C173.825 18.2914 171.633 21.7567 171.268 22.0088H171.145V17.2285Z" fill="white"></path>
        <path d="M192.37 26.1612V33.6901H195.781C197.83 33.6901 200.013 30.7339 200.447 30.5658H200.536V34.6886H188.148V34.5749C188.203 34.2536 188.771 32.5135 188.771 30.8871V21.0151C188.771 19.3788 188.208 17.6388 188.148 17.3273V17.2334H200.482V21.3562H200.368C199.963 21.1585 197.746 18.2419 195.697 18.2419H192.37V25.311H193.802C195.811 25.311 197.998 24.2185 198.373 24.1048H198.487V27.3724H198.373C197.993 27.2587 195.806 26.1662 193.802 26.1662H192.37V26.1612Z" fill="white"></path>
        <path d="M211.892 30.1951C210.954 27.9261 209.651 26.8435 208.57 26.621H207.459V30.8823C207.459 32.5086 207.992 34.2537 208.051 34.5701V34.6838H203.223V34.5701C203.277 34.2487 203.855 32.5086 203.855 30.8823V21.0102C203.855 19.374 203.282 17.6339 203.223 17.3224V17.2285H211.009C214.391 17.2285 216.667 19.0329 216.667 21.7567C216.667 24.4805 214.618 25.9932 211.754 26.275C213.23 26.621 214.396 27.4515 215.22 28.9098C216.583 31.4211 217.062 33.1463 218.577 34.575V34.6887H214.257C213.571 34.0559 212.603 31.8858 211.897 30.2001L211.892 30.1951ZM207.464 18.1233V25.6422H209.705C211.695 25.6422 212.806 24.3915 212.806 21.9544C212.806 19.5173 211.784 18.1233 209.789 18.1233H207.464ZM207.972 26.5914C207.918 26.5914 207.834 26.5914 207.775 26.621C207.829 26.621 207.913 26.5914 207.972 26.5914Z" fill="white"></path>
        <path d="M20.4214 0.5H23.2455L23.4726 0.574151C23.6455 0.638416 23.8133 0.717511 23.9762 0.811436L41.538 11.0295C42.2045 11.4151 42.7377 11.9638 43.1031 12.6114L43.6659 14.7717V37.8822L42.1058 36.9676C40.7628 36.1965 39.9433 34.7678 39.9433 33.2205V15.7406C39.9433 14.9397 39.5137 14.1686 38.8077 13.7731L22.9888 4.5635C22.2729 4.13342 21.3941 4.13342 20.6782 4.5635L4.85433 13.778C4.14831 14.1735 3.68915 14.9447 3.68915 15.7455V33.2304C3.68915 34.7728 2.89919 36.2014 1.55626 36.9775L-0.00390625 37.8921V14.7717C-0.00390625 13.2293 0.795926 11.7957 2.12898 11.0246L19.6957 0.811436C19.8586 0.717511 20.0265 0.638416 20.1993 0.574151L20.4264 0.5H20.4214ZM21.8137 11.8007C22.2186 11.8007 22.6136 11.9144 22.9888 12.1121L33.1299 18.0096L31.5598 18.9241C30.2268 19.6953 28.5728 19.6953 27.2694 18.9241L22.5543 16.2053C22.105 15.9531 21.557 15.9531 21.1077 16.2053L14.0376 20.2984C13.6031 20.5505 13.3217 21.0399 13.3217 21.559V30.0765C13.3217 30.5956 13.6031 31.0553 14.0376 31.3074L21.8137 35.8603L27.2694 32.6817C28.5728 31.9105 30.2268 31.9105 31.5598 32.6817L33.1299 33.5962L25.5413 38.0107L32.1622 41.8666L36.8476 39.1477C38.1807 38.3765 39.8001 38.3765 41.143 39.1477L42.7032 40.0622L34.3247 44.9266C32.9818 45.6977 31.3673 45.6977 30.0342 44.9266L10.7445 33.7495C10.0582 33.3145 9.60889 32.5729 9.60889 31.7474V19.9029C9.60889 19.0774 10.0582 18.3013 10.7445 17.9009L20.6782 12.122C21.0534 11.9243 21.4484 11.8106 21.8137 11.8106V11.8007ZM4.68647 38.5693C5.42705 38.5693 6.17258 38.7473 6.81935 39.1428L11.4752 41.8616L13.8599 40.4874C15.2028 39.7162 16.8173 39.7162 18.1503 40.4874L19.7203 41.4019L13.6327 44.9216C12.2997 45.6928 10.6852 45.6928 9.34228 44.9216L0.968729 40.0573L2.5289 39.1428C3.18555 38.7473 3.92613 38.5693 4.68647 38.5693Z" fill="white"></path>
    </g>
</svg>