<?xml version="1.0" encoding="UTF-8"?>
<svg version="1.1" xmlns="http://www.w3.org/2000/svg" viewBox="0 0 1359 537">
<path d="M0 0 C24.5025 -0.061875 49.005 -0.12375 74.25 -0.1875 C81.95118164 -0.21481201 89.65236328 -0.24212402 97.58691406 -0.27026367 C107.08154297 -0.28381348 107.08154297 -0.28381348 111.54388428 -0.28633118 C114.62223973 -0.28909601 117.70043573 -0.30021583 120.77874756 -0.31672668 C181.74181828 -0.62896081 181.74181828 -0.62896081 201.9375 18.4375 C211.48022559 28.86252139 214.54942446 41.09923819 214.27734375 55.00390625 C213.81555376 64.52688882 210.56431558 73.08292914 204 80 C203.44828125 80.59167969 202.8965625 81.18335937 202.328125 81.79296875 C195.00958943 88.87693588 185.13252485 93.99320135 175 95 C175 95.99 175 96.98 175 98 C188.53 98 202.06 98 216 98 C214.13152176 106.71956512 212.23573983 115.39446303 210.1171875 124.05078125 C209.85745148 125.11620651 209.59771545 126.18163177 209.33010864 127.27934265 C208.78832715 129.49857438 208.24550555 131.71755244 207.70166016 133.9362793 C206.86603488 137.34911509 206.03642337 140.76337912 205.20703125 144.17773438 C204.67744561 146.3438386 204.14751085 148.50985751 203.6171875 150.67578125 C203.3692746 151.69851639 203.12136169 152.72125153 202.86593628 153.77497864 C202.63544586 154.71073227 202.40495544 155.6464859 202.16748047 156.6105957 C201.96557098 157.43662796 201.7636615 158.26266022 201.55563354 159.11372375 C201 161 201 161 200 162 C197.4479402 162.12629223 194.92461045 162.18873178 192.37109375 162.203125 C191.58920181 162.20882507 190.80730988 162.21452515 190.00172424 162.22039795 C188.33295043 162.22987674 186.66415765 162.23639328 184.99536133 162.24023438 C182.49979975 162.24976215 180.00512713 162.28067712 177.50976562 162.3125 C153.90275582 162.46848795 129.43359737 157.11876943 112 140 C112 139.34 112 138.68 112 138 C111.34 138 110.68 138 110 138 C96.59220497 122.69161547 93.73819738 104.48841094 93 85 C107.355 84.505 107.355 84.505 122 84 C121.65077872 73.18933409 121.65077872 73.18933409 117 65 C108.12642857 59.45401785 99.92007603 60.60667089 89 60 C89 93 89 126 89 160 C59.63 160 30.26 160 0 160 C0 107.2 0 54.4 0 0 Z " fill="#FFFFFF" transform="translate(688,3)"/>
<path d="M0 0 C37.9603125 -0.12375 37.9603125 -0.12375 76.6875 -0.25 C84.64061279 -0.28641602 92.59372559 -0.32283203 100.7878418 -0.36035156 C110.59533691 -0.37841797 110.59533691 -0.37841797 115.20515442 -0.3817749 C118.38434816 -0.38546045 121.56326726 -0.40028268 124.74238586 -0.42230225 C181.48737749 -0.79784274 181.48737749 -0.79784274 202.06640625 17.875 C211.1765223 27.63443317 214.80667246 39.87130283 215 53 C214.30256783 64.70136204 209.91787009 75.28804284 201.1875 83.2578125 C194.44092288 88.63097928 187.66399109 91.72940885 179.37109375 94.04296875 C178.58863281 94.35878906 177.80617188 94.67460937 177 95 C176.67 95.99 176.34 96.98 176 98 C189.2 98 202.4 98 216 98 C215.39611238 102.83110095 214.86454109 107.04269388 213.70898438 111.66577148 C213.45201782 112.70301865 213.19505127 113.74026581 212.93029785 114.8089447 C212.65423706 115.90195389 212.37817627 116.99496307 212.09375 118.12109375 C211.66660706 119.83184837 211.66660706 119.83184837 211.23083496 121.5771637 C210.6312611 123.97380599 210.02937131 126.36986996 209.42529297 128.76538086 C208.49731228 132.44816651 207.57822579 136.13309197 206.66015625 139.81835938 C206.0760458 142.14856915 205.49142842 144.47865194 204.90625 146.80859375 C204.63018921 147.91577255 204.35412842 149.02295135 204.06970215 150.16368103 C203.8127356 151.17886307 203.55576904 152.1940451 203.29101562 153.23999023 C203.06530884 154.1374144 202.83960205 155.03483856 202.60705566 155.9594574 C202 158 202 158 201 159 C199.45362665 159.1193852 197.90188219 159.17011201 196.35107422 159.19287109 C195.35848602 159.20893402 194.36589783 159.22499695 193.3432312 159.24154663 C188.73940663 159.28619252 184.13572984 159.32717373 179.53173828 159.35009766 C177.11887888 159.3665292 174.70606548 159.39364558 172.29345703 159.43212891 C149.13666395 159.79949423 130.58690578 156.35582238 113 140 C100.20725388 126.69739806 93.54440615 108.78624217 93.75 90.4375 C93.8325 88.313125 93.915 86.18875 94 84 C103.57 84 113.14 84 123 84 C122.2685676 72.46802751 122.2685676 72.46802751 117 64 C108.20006772 59.74868096 108.20006772 59.74868096 90 60 C90 92.67 90 125.34 90 159 C60.3 159 30.6 159 0 159 C0 106.53 0 54.06 0 0 Z " fill="#FFFFFF" transform="translate(231,378)"/>
<path d="M0 0 C18.81 -0.04125 37.62 -0.0825 57 -0.125 C62.88972656 -0.14320801 68.77945313 -0.16141602 74.84765625 -0.18017578 C82.16601562 -0.18920898 82.16601562 -0.18920898 85.61645508 -0.19088745 C87.97290813 -0.19391336 90.32935854 -0.20085036 92.68579102 -0.21115112 C129.70380173 -0.36455943 171.7923571 0.20835143 199.96875 27.9375 C213.64389915 42.81222363 217.16970708 60.4208448 217.25 80.0625 C217.2809375 81.91391602 217.2809375 81.91391602 217.3125 83.80273438 C217.39675828 103.92993118 211.56005218 120.32195438 197.98046875 135.21484375 C176.88277645 155.58642045 144.81012213 160.19900392 116.81762695 160.11352539 C115.52771693 160.11364593 114.23780691 160.11376646 112.90880871 160.11389065 C109.45357266 160.11411426 105.998372 160.10836413 102.54314423 160.10128021 C99.28800052 160.09553943 96.03285812 160.09531462 92.77770996 160.09460449 C83.28930204 160.08937968 73.80090056 160.07541841 64.3125 160.0625 C43.089375 160.041875 21.86625 160.02125 0 160 C0 107.2 0 54.4 0 0 Z M89 60 C89 73.2 89 86.4 89 100 C92.795 100.0825 96.59 100.165 100.5 100.25 C101.68013672 100.28641602 102.86027344 100.32283203 104.07617188 100.36035156 C110.59509907 100.42857801 115.66443717 99.96284068 121 96 C126.17334955 90.92726665 126.73957448 85.00707421 127 78 C126.32560257 72.79449483 124.88333269 69.11578867 121.625 65 C112.18378508 57.80669339 100.40497724 60 89 60 Z " fill="#FFFFFF" transform="translate(6,190)"/>
<path d="M0 0 C3.20918049 0.02916991 6.41671724 0.02049712 9.62597656 0.00756836 C25.83369509 0.02324802 41.72499052 1.29965897 57.25878906 6.21655273 C58.49822266 6.60170044 58.49822266 6.60170044 59.76269531 6.99462891 C80.27647568 13.61422515 97.93955303 26.00559984 107.94628906 45.46655273 C117.63152859 64.77114582 117.82949442 90.97523749 111.94628906 111.46655273 C105.03692121 131.85026411 91.65773886 144.87435363 73.19628906 154.97045898 C35.8232789 173.1442246 -16.7075017 172.50716937 -55.42675781 159.68041992 C-65.15180452 156.2307963 -73.83906028 151.7818622 -82.05371094 145.46655273 C-82.92511719 144.80139648 -83.79652344 144.13624023 -84.69433594 143.45092773 C-97.43046398 132.90260082 -104.83517464 117.51672847 -108.05371094 101.46655273 C-108.25370163 98.79356793 -108.38087458 96.2261698 -108.38964844 93.55639648 C-108.39963364 92.46144615 -108.39963364 92.46144615 -108.40982056 91.34437561 C-108.41987767 89.80740853 -108.42463975 88.27039839 -108.42431641 86.73339844 C-108.42865559 84.43339005 -108.46495129 82.13535924 -108.50292969 79.83569336 C-108.64589433 61.22589995 -103.71871715 43.42675239 -90.41699219 29.76733398 C-89.63710937 29.00807617 -88.85722656 28.24881836 -88.05371094 27.46655273 C-87.30476563 26.69698242 -86.55582031 25.92741211 -85.78417969 25.13452148 C-63.70396557 3.6401837 -29.29512329 -0.2895396 0 0 Z M-13.05371094 63.46655273 C-13.14242366 66.49633077 -13.16890444 69.50322295 -13.15136719 72.53295898 C-13.14995224 73.44158188 -13.14853729 74.35020477 -13.14707947 75.28636169 C-13.14146287 78.20062494 -13.12890759 81.11481254 -13.11621094 84.02905273 C-13.11119807 85.99975475 -13.1066348 87.97045797 -13.10253906 89.94116211 C-13.09148805 94.78298832 -13.07421232 99.62475768 -13.05371094 104.46655273 C-10.33753299 104.48519797 -7.62148475 104.49879483 -4.90527344 104.50952148 C-4.14158447 104.51528198 -3.37789551 104.52104248 -2.59106445 104.52697754 C5.4669462 104.55081781 13.06265426 104.23602186 19.54003906 98.91967773 C23.9811761 94.3305028 24.17404617 89.66403235 24.38378906 83.52905273 C24.24074378 77.67663487 23.68673894 73.09535946 19.94628906 68.46655273 C12.12883855 61.39362132 1.10644098 62.18856066 -8.80761719 62.29858398 C-11.90603065 62.0956652 -11.90603065 62.0956652 -13.05371094 63.46655273 Z " fill="#FFFFFF" transform="translate(335.0537109375,-0.466552734375)"/>
<path d="M0 0 C0.72671906 0.00060425 1.45343811 0.0012085 2.20217896 0.00183105 C34.40264786 0.0743636 69.3651783 4.71120666 93.31640625 28.40625 C107.27402581 43.21671963 112.5061196 61.4087549 112.38354492 81.38842773 C112.37504665 83.48847171 112.40390673 85.58576975 112.43554688 87.68554688 C112.53148548 106.18010724 107.29416557 123.11095592 94.9375 137.1875 C94.36644531 137.85265625 93.79539062 138.5178125 93.20703125 139.203125 C81.85622653 151.49781327 62.5717472 161.86253513 45.74202538 163.38627529 C43.35781617 163.47320399 40.98002606 163.50334907 38.59423828 163.50976562 C37.69539413 163.51969543 36.79654999 163.52962524 35.87046814 163.53985596 C32.91621751 163.5689012 29.96218209 163.58267424 27.0078125 163.59375 C25.98952236 163.59940475 24.97123222 163.60505951 23.92208481 163.61088562 C18.52617114 163.64080061 13.13036333 163.65929932 7.734375 163.66796875 C2.20939794 163.67888788 -3.31458082 163.72685422 -8.83924675 163.78391266 C-13.12916717 163.8215048 -17.41885607 163.83159467 -21.70892715 163.8346405 C-23.74276268 163.84062521 -25.77659757 163.85644573 -27.8102684 163.88301086 C-51.56444101 164.17099302 -73.65849829 156.93680572 -91.0625 140.1875 C-108.47809821 122.0999173 -111.6158583 101.08516264 -111.33203125 77.01953125 C-110.80115279 57.95236449 -103.95155357 40.49884597 -90.0625 27.1875 C-89.41152344 26.50558594 -88.76054687 25.82367188 -88.08984375 25.12109375 C-65.78672128 3.16175737 -29.51660232 -0.04547169 0 0 Z M-15.0625 63.1875 C-15.0625 76.7175 -15.0625 90.2475 -15.0625 104.1875 C-11.5975 104.249375 -8.1325 104.31125 -4.5625 104.375 C-3.48677734 104.40231201 -2.41105469 104.42962402 -1.30273438 104.45776367 C6.23458976 104.52242891 12.14540324 103.85820125 17.8125 98.4375 C21.53336307 92.74676825 22.73571024 86.93487096 21.9375 80.1875 C20.66644363 74.25921365 18.90550289 69.94110219 13.9375 66.1875 C7.43815804 63.16708912 2.03613324 62.81057646 -5.0625 63 C-10.0125 63.0928125 -10.0125 63.0928125 -15.0625 63.1875 Z " fill="#FFFFFF" transform="translate(563.0625,373.8125)"/>
<path d="M0 0 C0.88324951 -0.0049649 1.76649902 -0.00992981 2.67651367 -0.01504517 C5.62191538 -0.02973553 8.56726285 -0.0364877 11.51269531 -0.04199219 C13.56846111 -0.04774745 15.62422689 -0.05350513 17.67999268 -0.05926514 C22.0112737 -0.06980094 26.34253607 -0.0756236 30.67382812 -0.07910156 C36.16587665 -0.0845269 41.65766969 -0.10841346 47.14963913 -0.13707352 C51.41050874 -0.15592766 55.67132034 -0.16091789 59.93222809 -0.16243744 C61.95237848 -0.16542441 63.97252886 -0.17331511 65.99263763 -0.18662262 C94.19685696 -0.35882254 122.29403537 2.68588557 143.59082031 23.16113281 C153.08697964 33.71916299 158.57204005 45.88718845 162.36425781 59.39160156 C162.61836929 60.28992706 162.87248077 61.18825256 163.1342926 62.11380005 C166.24456718 73.28084698 168.94554945 84.54968476 171.64038086 95.82275391 C172.51919729 99.49798016 173.40501186 103.17146305 174.29199219 106.84472656 C178.55472679 124.58487786 182.57134301 142.36059046 186.59082031 160.16113281 C155.57082031 160.16113281 124.55082031 160.16113281 92.59082031 160.16113281 C90.28082031 150.26113281 87.97082031 140.36113281 85.59082031 130.16113281 C84.60082031 126.20113281 84.60082031 126.20113281 83.59082031 122.16113281 C72.37082031 121.83113281 61.15082031 121.50113281 49.59082031 121.16113281 C49.26082031 123.80113281 48.93082031 126.44113281 48.59082031 129.16113281 C46.28082031 139.39113281 43.97082031 149.62113281 41.59082031 160.16113281 C12.22082031 160.16113281 -17.14917969 160.16113281 -47.40917969 160.16113281 C-45.15895717 147.78490898 -45.15895717 147.78490898 -43.73608398 141.86865234 C-43.58085172 141.21961661 -43.42561945 140.57058088 -43.26568317 139.9018774 C-42.75783113 137.78185601 -42.24568308 135.66289956 -41.73339844 133.54394531 C-41.3677649 132.02206504 -41.00237383 130.50012649 -40.63720703 128.97813416 C-39.66238375 124.91889839 -38.68362084 120.86062263 -37.70388412 116.80257034 C-36.88998473 113.42952685 -36.07828524 110.05595538 -35.26649189 106.68240452 C-28.61946383 79.06355248 -21.91289519 51.45907276 -15.08197021 23.8850708 C-14.37776272 21.03393441 -13.67965393 18.18134355 -12.98193359 15.32861328 C-12.5268224 13.47978578 -12.07158671 11.63098892 -11.61621094 9.78222656 C-11.4079216 8.9250856 -11.19963226 8.06794464 -10.98503113 7.18482971 C-9.04726272 -0.64664063 -7.60912845 0.01009747 0 0 Z M65.59082031 51.16113281 C60.75931584 70.91573352 60.75931584 70.91573352 56.15332031 90.72363281 C55.9082373 91.79073486 55.9082373 91.79073486 55.65820312 92.87939453 C54.94269437 96.09918394 54.59082031 98.83456683 54.59082031 102.16113281 C62.84082031 102.16113281 71.09082031 102.16113281 79.59082031 102.16113281 C78.41519709 95.10739346 77.24955014 88.1750286 75.68066406 81.21972656 C75.50829727 80.44476334 75.33593048 79.66980011 75.15834045 78.87135315 C74.79937807 77.26049509 74.43889779 75.64997453 74.0769043 74.03979492 C73.52246936 71.57259646 72.97328531 69.10427049 72.42480469 66.63574219 C72.07289334 65.05950281 71.72069068 63.48332844 71.36816406 61.90722656 C71.20460922 61.17289902 71.04105438 60.43857147 70.87254333 59.68199158 C70.22022081 56.78717275 69.52997565 53.97859884 68.59082031 51.16113281 C67.60082031 51.16113281 66.61082031 51.16113281 65.59082031 51.16113281 Z " fill="#FFFFFF" transform="translate(948.4091796875,2.8388671875)"/>
<path d="M0 0 C3.24888468 0.02150123 6.49556487 0.00001941 9.74438477 -0.02539062 C40.42754296 -0.06665537 70.66584073 6.17404891 93.79711914 27.46679688 C103.46929029 37.34555808 110.76346532 52.81499773 110.87133789 66.70898438 C110.80946289 67.96710938 110.74758789 69.22523437 110.68383789 70.52148438 C96.27261401 73.29568822 81.75026592 75.2372418 67.20605469 77.16577148 C63.77958418 77.62030014 60.35426517 78.08296164 56.92916775 78.54770947 C53.61756906 78.995663 50.30495355 79.43587857 46.99243164 79.87695312 C45.77462509 80.0425322 44.55681854 80.20811127 43.30210876 80.37870789 C37.37279628 81.15745082 31.66425241 81.71550106 25.68383789 81.52148438 C25.2468457 80.29171875 25.2468457 80.29171875 24.80102539 79.03710938 C22.32355922 72.41446921 22.32355922 72.41446921 18.05883789 66.89648438 C8.65095639 63.06364376 -1.21540828 63.19486796 -11.31616211 62.52148438 C-11.31616211 76.38148437 -11.31616211 90.24148437 -11.31616211 104.52148438 C-7.68616211 104.27398437 -4.05616211 104.02648437 -0.31616211 103.77148438 C0.81176758 103.70348633 1.93969727 103.63548828 3.10180664 103.56542969 C9.56826755 103.06152 14.14255258 101.94179497 19.68383789 98.52148438 C23.11821724 94.4544562 24.30213132 90.59775416 25.68383789 85.52148438 C40.24424568 87.40305422 54.80414055 89.2885301 69.36314392 91.18093872 C75.44820225 91.97183633 81.53350377 92.76074682 87.61938477 93.54528809 C91.07881937 93.9922544 94.53754357 94.44459045 97.99633789 94.89648438 C99.20757324 95.05149414 100.41880859 95.20650391 101.66674805 95.36621094 C102.74102051 95.50768555 103.81529297 95.64916016 104.92211914 95.79492188 C105.83002197 95.91270996 106.7379248 96.03049805 107.67333984 96.15185547 C109.68383789 96.52148438 109.68383789 96.52148438 110.68383789 97.52148438 C110.99341233 103.18669669 110.34388352 107.9295221 108.55883789 113.33398438 C108.21780029 114.3776416 108.21780029 114.3776416 107.86987305 115.44238281 C101.38635321 134.55309819 88.20700679 147.16324283 70.34204102 156.02954102 C33.62210104 173.26773055 -17.85974462 172.52886246 -55.65234375 159.45483398 C-75.50679904 152.19158876 -92.15117206 139.67071912 -101.25756836 120.16601562 C-110.1023343 98.07041953 -110.95136307 70.41643722 -101.58569336 48.36523438 C-97.75153661 39.85381814 -93.09618751 33.01949832 -86.31616211 26.52148438 C-85.66518555 25.83957031 -85.01420898 25.15765625 -84.34350586 24.45507812 C-62.84344917 3.28642886 -28.54197717 -0.22367309 0 0 Z " fill="#FFFFFF" transform="translate(107.316162109375,-0.521484375)"/>
<path d="M0 0 C22.89375 -0.061875 45.7875 -0.12375 69.375 -0.1875 C76.57231934 -0.21481201 83.76963867 -0.24212402 91.18505859 -0.27026367 C100.05395508 -0.28381348 100.05395508 -0.28381348 104.22134399 -0.28633118 C107.09812531 -0.28909762 109.97473626 -0.30022405 112.85147095 -0.31672668 C141.95931529 -0.47618288 173.44094966 0.24865025 195.78515625 21.6875 C209.68784362 36.20318064 213.51986711 52.43452512 213.42163086 72.04248047 C213.02839637 88.6154322 207.92935645 102.61471525 196.390625 114.7265625 C182.47117516 127.96368637 164.41876507 133.42286568 146 137 C144.80375 137.23460937 143.6075 137.46921875 142.375 137.7109375 C129.07387831 140.00538099 115.4635012 140.19203092 102 140 C98.9944084 127.59473585 96.00760799 115.18448895 93.125 102.75 C92.80269409 101.38657471 92.80269409 101.38657471 92.47387695 99.99560547 C92.18130005 98.72160889 92.18130005 98.72160889 91.8828125 97.421875 C91.71152832 96.68549805 91.54024414 95.94912109 91.36376953 95.19042969 C91 93 91 93 91 88 C101.23 88 111.46 88 122 88 C121.90767269 75.84174298 121.90767269 75.84174298 117 65 C107.50370366 59.58186839 107.50370366 59.58186839 89 60 C89 92.67 89 125.34 89 159 C59.63 159 30.26 159 0 159 C0 106.53 0 54.06 0 0 Z " fill="#FFFFFF" transform="translate(914,378)"/>
<path d="M0 0 C1.00241226 -0.00570007 2.00482452 -0.01140015 3.03761292 -0.01727295 C5.14770476 -0.02665355 7.25781079 -0.03322901 9.36791992 -0.03710938 C12.52745495 -0.04675607 15.68632165 -0.07782309 18.84570312 -0.109375 C49.52588956 -0.26958838 80.46902504 4.63780704 103.48828125 26.4375 C111.68347093 34.85269478 118.652671 46.63089055 119.31640625 58.578125 C119.12890625 61.203125 119.12890625 61.203125 118.12890625 62.203125 C115.52073255 62.62703906 112.92475807 62.99375077 110.30444336 63.32641602 C109.48499741 63.43385132 108.66555145 63.54128662 107.8212738 63.65197754 C105.10010997 64.00771276 102.37820181 64.35738071 99.65625 64.70703125 C97.77433008 64.95185312 95.89245906 65.19705115 94.01063538 65.44261169 C89.04791793 66.08916684 84.08454984 66.73058849 79.12103271 67.37097168 C74.06010617 68.02483607 68.99980651 68.68351409 63.93945312 69.34179688 C54.00321446 70.63363928 44.06628235 71.92006366 34.12890625 73.203125 C33.45735692 71.91399013 32.79181766 70.62172296 32.12890625 69.328125 C31.75765625 68.60882813 31.38640625 67.88953125 31.00390625 67.1484375 C30.12890625 65.203125 30.12890625 65.203125 30.12890625 63.203125 C28.46905827 62.51965818 26.8005382 61.85724185 25.12890625 61.203125 C24.28328125 60.8628125 23.43765625 60.5225 22.56640625 60.171875 C18.11200777 58.91654452 13.86053713 58.74462973 9.25390625 58.578125 C7.93519531 58.52011719 7.93519531 58.52011719 6.58984375 58.4609375 C4.43651832 58.36731466 2.28274211 58.28416041 0.12890625 58.203125 C0.12890625 63.153125 0.12890625 68.103125 0.12890625 73.203125 C1.60875 73.19152344 3.08859375 73.17992187 4.61328125 73.16796875 C92.98323141 72.69037157 92.98323141 72.69037157 112.75390625 90.578125 C121.02472723 99.71955871 122.74289886 109.44158986 122.484375 121.54296875 C121.73599531 129.24881237 118.95502811 136.13600037 114.12890625 142.203125 C113.70609375 142.74195313 113.28328125 143.28078125 112.84765625 143.8359375 C100.0998112 158.33986325 77.3775849 162.78476373 59.12890625 165.203125 C58.3488623 165.30753906 57.56881836 165.41195312 56.76513672 165.51953125 C17.67212686 170.43826154 -31.87601648 172.07898681 -65.91015625 149.15625 C-68.33786962 147.26395378 -70.61361559 145.29385761 -72.87109375 143.203125 C-73.48984375 142.68621094 -74.10859375 142.16929687 -74.74609375 141.63671875 C-84.0821168 133.32182322 -89.76819643 120.34031979 -91.87109375 108.203125 C-91.54109375 107.213125 -91.21109375 106.223125 -90.87109375 105.203125 C-80.37951611 103.76576143 -69.88754992 102.33127194 -59.39507675 100.90045929 C-54.52311795 100.23599942 -49.65129899 99.57054701 -44.77978516 98.90283203 C-40.07928855 98.25859465 -35.37844377 97.61695702 -30.67734528 96.97712708 C-28.88306255 96.7324547 -27.08890768 96.48684282 -25.29488373 96.24028015 C-22.78383432 95.8953355 -20.27235279 95.55372156 -17.76074219 95.21289062 C-17.01771347 95.1100325 -16.27468475 95.00717438 -15.50914001 94.90119934 C-12.24671421 94.46169971 -9.17247302 94.203125 -5.87109375 94.203125 C-5.67515625 94.80640625 -5.47921875 95.4096875 -5.27734375 96.03125 C-3.60265913 100.50670028 -2.31357978 103.48415287 2.06640625 105.703125 C6.6382958 107.66640163 11.26749984 108.30723638 16.2109375 108.51953125 C17.14228516 108.56142578 18.07363281 108.60332031 19.03320312 108.64648438 C19.99291016 108.68580078 20.95261719 108.72511719 21.94140625 108.765625 C22.92044922 108.80880859 23.89949219 108.85199219 24.90820312 108.89648438 C27.31495523 109.00214666 29.72191328 109.10309965 32.12890625 109.203125 C32.12890625 103.923125 32.12890625 98.643125 32.12890625 93.203125 C29.00421875 93.23792969 29.00421875 93.23792969 25.81640625 93.2734375 C-61.58708231 94.03149507 -61.58708231 94.03149507 -81.26953125 76.01171875 C-88.29130059 68.08225727 -90.08007734 57.72206484 -89.75 47.42578125 C-88.70649077 36.82932151 -85.63907518 28.51756541 -77.93359375 21.015625 C-56.69893861 3.74477216 -26.50184498 0.12105163 0 0 Z " fill="#FFFFFF" transform="translate(512.87109375,186.796875)"/>
<path d="M0 0 C0.70066668 0.00223072 1.40133336 0.00446144 2.12323236 0.00675976 C3.23214012 0.00441978 3.23214012 0.00441978 4.36345005 0.00203252 C6.85936574 -0.00198019 9.35522141 0.0012132 11.85113764 0.00434887 C13.63289154 0.00299495 15.41464517 0.00121507 17.19639826 -0.00096118 C22.04956413 -0.00553661 26.90270885 -0.00374551 31.75587511 -0.0005821 C36.82298959 0.00194094 41.89010219 -0.00039588 46.95721674 -0.00196826 C55.46824708 -0.00379013 63.97926876 -0.00138322 72.49029779 0.00337231 C82.34518376 0.00881496 92.20004904 0.00705232 102.0549345 0.00154591 C110.4999128 -0.00298476 118.94488485 -0.003636 127.38986397 -0.00101542 C132.44078616 0.00054761 137.49169861 0.0007404 142.54262018 -0.00255191 C147.29001384 -0.00542995 152.0373807 -0.00345618 156.78477144 0.00234234 C158.53236391 0.00367031 160.27995862 0.00327522 162.02755022 0.00107968 C164.40281834 -0.00163042 166.77799919 0.00174755 169.15326166 0.00675976 C169.85392834 0.00452904 170.55459502 0.00229832 171.27649403 0 C176.02409715 0.01959354 176.02409715 0.01959354 177.13824701 1.13374341 C177.23206004 2.9749237 177.25568655 4.81971982 177.2517724 6.66328442 C177.25165155 7.8610249 177.2515307 9.05876538 177.25140619 10.29280102 C177.24629023 11.56160107 177.24117426 12.83040112 177.23590326 14.13764966 C177.23489618 15.29647656 177.2338891 16.45530346 177.23285151 17.64924634 C177.22760028 21.99825535 177.21363917 26.34725032 177.20074701 30.69624341 C177.18012201 40.41061841 177.15949701 50.12499341 177.13824701 60.13374341 C146.44824701 60.13374341 115.75824701 60.13374341 84.13824701 60.13374341 C84.13824701 63.76374341 84.13824701 67.39374341 84.13824701 71.13374341 C110.20824701 71.13374341 136.27824701 71.13374341 163.13824701 71.13374341 C163.13824701 77.40374341 163.13824701 83.67374341 163.13824701 90.13374341 C137.06824701 90.13374341 110.99824701 90.13374341 84.13824701 90.13374341 C84.13824701 93.43374341 84.13824701 96.73374341 84.13824701 100.13374341 C114.82824701 100.13374341 145.51824701 100.13374341 177.13824701 100.13374341 C177.13824701 119.93374341 177.13824701 139.73374341 177.13824701 160.13374341 C174.19860514 161.60356434 171.24644705 161.24740322 168.02627802 161.21603405 C167.28544619 161.21280493 166.54461437 161.2095758 165.78133309 161.20624882 C163.28615802 161.19413547 160.79109095 161.17477066 158.29596186 161.15547192 C156.51244071 161.14533318 154.72891699 161.13563907 152.94539118 161.12635815 C148.09232326 161.0998366 143.23931495 161.06706542 138.38629341 161.03320825 C133.31873865 160.9989053 128.25115189 160.97029987 123.18356562 160.94110119 C113.58233555 160.8849089 103.98114557 160.82356069 94.37995923 160.76037985 C83.45148651 160.68871435 72.52298166 160.62276657 61.59447026 160.55730939 C39.10902082 160.42250237 16.62362153 160.28048144 -5.86175299 160.13374341 C-5.88508015 139.4199912 -5.90273126 118.70624115 -5.91356516 97.99247849 C-5.9187285 88.37541846 -5.92577193 78.75836657 -5.93719244 69.14131176 C-5.9471381 60.76223171 -5.95360613 52.38315756 -5.95584148 44.00407177 C-5.95714879 39.56458216 -5.9602359 35.12510942 -5.96748304 30.6856252 C-5.97424141 26.51197067 -5.97637033 22.33834007 -5.97486067 18.1646806 C-5.97513708 16.62833221 -5.97714329 15.09198307 -5.98095846 13.55563939 C-5.98589286 11.46714723 -5.98475224 9.37874684 -5.9820075 7.2902528 C-5.9829293 6.11865392 -5.98385109 4.94705504 -5.98480082 3.73995316 C-5.77353834 -0.7346834 -4.01558402 0.01657247 0 0 Z " fill="#FFFFFF" transform="translate(237.86175298690796,189.8662565946579)"/>
<path d="M0 0 C2.82559054 0.00315464 5.65012408 -0.02038315 8.47558594 -0.0456543 C35.46791918 -0.13970577 64.84484754 4.18210113 86.09277344 22.31567383 C86.66898438 22.75008789 87.24519531 23.18450195 87.83886719 23.63208008 C100.89924964 33.84186681 107.80485762 50.34113884 109.84277344 66.44067383 C109.92527344 67.71942383 110.00777344 68.99817383 110.09277344 70.31567383 C108.04207484 72.36637243 104.03160324 72.08334673 101.20825195 72.43896484 C100.38226501 72.54640015 99.55627808 72.65383545 98.70526123 72.76452637 C95.96125113 73.12034942 93.2164946 73.47002396 90.47167969 73.81958008 C88.57213575 74.06443704 86.67263571 74.30963474 84.7731781 74.55516052 C80.78620701 75.06964156 76.79889076 75.58132678 72.8112793 76.09082031 C67.69139032 76.74501592 62.57213403 77.40400672 57.45309544 78.06482029 C52.58450602 78.69308715 47.71560313 79.31890806 42.84667969 79.94458008 C41.91233156 80.06486635 40.97798344 80.18515263 40.01532173 80.30908394 C37.37928233 80.64800352 34.74302609 80.98517869 32.10668945 81.32177734 C31.32063828 81.42306442 30.5345871 81.5243515 29.72471619 81.62870789 C24.32231032 82.31567383 24.32231032 82.31567383 22.09277344 82.31567383 C21.92261719 81.65180664 21.75246094 80.98793945 21.57714844 80.30395508 C19.63397439 73.10024725 19.63397439 73.10024725 15.09277344 67.31567383 C8.89459313 63.91963981 3.12545378 63.78078388 -3.84472656 63.62817383 C-7.49535156 63.52504883 -11.14597656 63.42192383 -14.90722656 63.31567383 C-14.90722656 76.18567383 -14.90722656 89.05567383 -14.90722656 102.31567383 C-4.01722656 102.31567383 6.87277344 102.31567383 18.09277344 102.31567383 C19.54741222 105.22495139 18.65309935 106.9942721 17.92114258 110.14233398 C17.64077652 111.36344879 17.36041046 112.5845636 17.07154846 113.84268188 C16.75715602 115.18006797 16.44261285 116.51741862 16.12792969 117.85473633 C15.81201372 119.21937342 15.49670866 120.58415208 15.18199158 121.94906616 C14.35129287 125.54424583 13.51228806 129.13743775 12.67156982 132.73028564 C11.81543341 136.39561019 10.96712379 140.06274419 10.11816406 143.72973633 C8.45071168 150.92684811 6.77448497 158.12187897 5.09277344 165.31567383 C0.68265837 165.36540142 -3.72738287 165.39490807 -8.13769531 165.42114258 C-9.36999878 165.43528198 -10.60230225 165.44942139 -11.87194824 165.46398926 C-37.76048537 165.57904942 -65.29120257 159.01124792 -84.90722656 141.31567383 C-85.60332031 140.71239258 -86.29941406 140.10911133 -87.01660156 139.48754883 C-98.78369374 128.63263434 -106.21213896 112.08323468 -107.08422852 96.06445312 C-107.52476013 69.64835209 -106.45489781 46.57066213 -86.90722656 26.31567383 C-63.22228079 4.26685917 -31.03210132 -0.07210557 0 0 Z " fill="#FFFFFF" transform="translate(849.9072265625,186.684326171875)"/>
<path d="M0 0 C0.7516745 0.00060425 1.503349 0.0012085 2.27780151 0.00183105 C33.04666403 0.06895389 65.59364064 4.4820785 88.375 27.1875 C89.0865625 27.87585938 89.798125 28.56421875 90.53125 29.2734375 C101.26148536 40.37510408 106.13398333 55.04709659 107.375 70.1875 C102.50211504 71.68593613 97.74458841 72.68778919 92.68310547 73.33251953 C91.94884338 73.43034729 91.2145813 73.52817505 90.45806885 73.62896729 C88.05342819 73.94794991 85.64787299 74.25931615 83.2421875 74.5703125 C81.56018282 74.79128607 79.87822755 75.01263606 78.19631958 75.23434448 C74.68159798 75.69649941 71.16643076 76.15504452 67.65087891 76.61083984 C63.14996134 77.19454877 58.65007798 77.78582203 54.15048027 78.37961006 C50.68153295 78.83679238 47.21216403 79.2907043 43.74264908 79.74355698 C42.08318276 79.96041285 40.42382615 80.17810997 38.76458359 80.3966713 C36.44616173 80.70141449 34.12722994 81.00192663 31.80810547 81.30126953 C31.12642303 81.39163483 30.4447406 81.48200012 29.74240112 81.57510376 C26.26275131 82.01947844 22.88304968 82.28296322 19.375 82.1875 C19.20484375 81.52363281 19.0346875 80.85976563 18.859375 80.17578125 C16.95876179 72.92469285 16.95876179 72.92469285 12.375 67.1875 C5.85836374 64.18954876 -0.60852678 63.67372748 -7.6875 63.5 C-10.966875 63.396875 -14.24625 63.29375 -17.625 63.1875 C-17.625 76.3875 -17.625 89.5875 -17.625 103.1875 C-6.405 103.1875 4.815 103.1875 16.375 103.1875 C14.70075973 110.70877409 13.02604264 118.22991073 11.34644318 125.74998474 C10.56446915 129.25180175 9.78343177 132.75382171 9.00463867 136.25634766 C8.11145919 140.27311118 7.21405163 144.28891961 6.31640625 148.3046875 C6.0372084 149.56304413 5.75801056 150.82140076 5.47035217 152.1178894 C5.21015793 153.27894196 4.94996368 154.43999451 4.68188477 155.63623047 C4.33880028 157.17511429 4.33880028 157.17511429 3.98878479 158.74508667 C3.375 161.1875 3.375 161.1875 2.375 163.1875 C-3.40088386 163.31320564 -9.17593341 163.40280763 -14.95288086 163.4621582 C-16.90875148 163.48695656 -18.86453303 163.52080662 -20.82006836 163.56469727 C-44.58213854 164.08378644 -65.39101641 158.64310354 -84.625 144.1875 C-85.21152344 143.7646875 -85.79804687 143.341875 -86.40234375 142.90625 C-95.34940674 135.92713511 -101.83547957 125.77586591 -105.625 115.1875 C-106.016875 114.1459375 -106.40875 113.104375 -106.8125 112.03125 C-113.81523648 89.66139734 -111.48091051 62.48010144 -100.89819336 41.77954102 C-97.61934744 35.77617836 -93.56779262 30.91687325 -88.625 26.1875 C-87.95082031 25.49398438 -87.27664062 24.80046875 -86.58203125 24.0859375 C-64.46620104 2.59250401 -29.13314084 -0.04331052 0 0 Z " fill="#FFFFFF" transform="translate(109.625,373.8125)"/>
<path d="M0 0 C28.69184847 -0.84021682 61.29284785 2.23647082 83.5 22.4375 C96.82092409 35.17015953 106.26169202 52.23814817 107.08926582 71.02660751 C107.12265297 73.42441962 107.12369177 75.82023601 107.11352539 78.21826172 C107.11367142 79.12621994 107.11381744 80.03417816 107.1139679 80.96965027 C107.11327391 83.95635406 107.10550563 86.94299467 107.09765625 89.9296875 C107.09579024 92.00619472 107.0943672 94.08270239 107.09336853 96.15921021 C107.08955774 101.61390405 107.07973975 107.0685711 107.06866455 112.52325439 C107.05661694 119.07369432 107.05204134 125.62414322 107.04621124 132.17459106 C107.03652722 142.11641266 107.01736058 152.0581755 107 162 C77.63 162 48.26 162 18 162 C17.75 125.125 17.75 125.125 17.70214844 113.53564453 C17.66887716 110.06965908 17.66887716 110.06965908 17.63043213 106.60372925 C17.61593833 105.0750532 17.60905121 103.54629225 17.60845947 102.01754761 C17.70470042 88.97976931 17.70470042 88.97976931 13 77 C8.38649228 73.05929549 4.36892449 71.96339508 -1.546875 71.68359375 C-2.39121094 71.64169922 -3.23554687 71.59980469 -4.10546875 71.55664062 C-4.97816406 71.51732422 -5.85085938 71.47800781 -6.75 71.4375 C-7.63816406 71.39431641 -8.52632812 71.35113281 -9.44140625 71.30664062 C-11.62746183 71.20086374 -13.8136506 71.09945826 -16 71 C-14.68919455 63.48458579 -13.18028909 56.03564393 -11.50390625 48.59375 C-11.26969467 47.54779663 -11.03548309 46.50184326 -10.79417419 45.42419434 C-10.30195893 43.22899966 -9.80862309 41.03405596 -9.31420898 38.83935547 C-8.56465486 35.50957263 -7.82019047 32.17867979 -7.07617188 28.84765625 C-6.59405631 26.70045203 -6.11164429 24.55331435 -5.62890625 22.40625 C-5.30062584 20.93544983 -5.30062584 20.93544983 -4.9657135 19.43493652 C-3.48928576 12.90354799 -1.81247974 6.44607283 0 0 Z " fill="#FFFFFF" transform="translate(1251,1)"/>
<path d="M0 0 C29.08718118 -0.85179381 61.45017198 2.58265069 84 23 C84.67160156 23.58007812 85.34320312 24.16015625 86.03515625 24.7578125 C99.33233735 37.00454191 106.21891758 55.36486796 107.11059952 73.21389961 C107.28060367 79.50107003 107.22965924 85.78943319 107.1953125 92.078125 C107.19157555 94.1012152 107.1887318 96.12430723 107.18673706 98.1473999 C107.17915431 103.43435797 107.1595527 108.72120359 107.1373291 114.00811768 C107.11312759 120.37179745 107.10406415 126.73551514 107.09242249 133.09922791 C107.07312454 142.73289646 107.03476469 152.36631899 107 162 C77.63 162 48.26 162 18 162 C17.75 125.125 17.75 125.125 17.70214844 113.53564453 C17.66887716 110.06965908 17.66887716 110.06965908 17.63043213 106.60372925 C17.61593833 105.0750532 17.60905121 103.54629225 17.60845947 102.01754761 C17.70470042 88.97976931 17.70470042 88.97976931 13 77 C8.38649228 73.05929549 4.36892449 71.96339508 -1.546875 71.68359375 C-2.39121094 71.64169922 -3.23554687 71.59980469 -4.10546875 71.55664062 C-4.97816406 71.51732422 -5.85085938 71.47800781 -6.75 71.4375 C-7.63816406 71.39431641 -8.52632812 71.35113281 -9.44140625 71.30664062 C-11.62746183 71.20086374 -13.8136506 71.09945826 -16 71 C-14.66950369 62.38942379 -12.94746189 53.91945738 -10.99609375 45.4296875 C-10.57107323 43.56450974 -10.57107323 43.56450974 -10.13746643 41.66165161 C-9.54328305 39.05788479 -8.94777059 36.45446959 -8.34985352 33.8515625 C-7.58348756 30.51471593 -6.82265422 27.17663632 -6.06347561 23.83814812 C-5.33532353 20.63889012 -4.60308433 17.44056907 -3.87109375 14.2421875 C-3.59817001 13.0433493 -3.32524628 11.84451111 -3.04405212 10.60934448 C-2.79031326 9.50704498 -2.5365744 8.40474548 -2.27514648 7.26904297 C-2.0524559 6.29707977 -1.82976532 5.32511658 -1.60032654 4.32369995 C-1 2 -1 2 0 0 Z " fill="#FFFFFF" transform="translate(566,1)"/>
<path d="M0 0 C30.19524641 0.16048497 61.56331591 4.33997189 84.32250977 25.99902344 C101.5228743 44.27088609 104.36391124 65.47218724 104.17797852 89.39355469 C104.17237269 91.52731526 104.16810727 93.66107974 104.16511536 95.79484558 C104.1537442 101.36954698 104.12434473 106.94400822 104.09100342 112.51861572 C104.05469278 119.22937305 104.04110454 125.94021136 104.02364349 132.65103912 C103.99470192 142.80886681 103.93716076 152.96616913 103.88500977 163.12402344 C74.51500977 162.79402344 45.14500977 162.46402344 14.88500977 162.12402344 C14.63500977 124.68652344 14.63500977 124.68652344 14.5871582 112.91137695 C14.55389527 109.39614406 14.55389527 109.39614406 14.51544189 105.88096619 C14.50092844 104.32807891 14.49406022 102.77510769 14.49346924 101.22215271 C14.79211329 88.52057913 14.79211329 88.52057913 9.88500977 77.12402344 C5.3573281 73.38008096 0.29928326 72.09473711 -5.44311523 71.80761719 C-6.24233398 71.76572266 -7.04155273 71.72382813 -7.86499023 71.68066406 C-8.68999023 71.64134766 -9.51499023 71.60203125 -10.36499023 71.56152344 C-11.62569336 71.49674805 -11.62569336 71.49674805 -12.91186523 71.43066406 C-14.97939694 71.32493801 -17.04717304 71.22401048 -19.11499023 71.12402344 C-10.56910492 31.6448926 -10.56910492 31.6448926 -6.11499023 13.12402344 C-5.82487061 11.91012939 -5.53475098 10.69623535 -5.23583984 9.44555664 C-4.96908447 8.34945068 -4.7023291 7.25334473 -4.42749023 6.12402344 C-4.08137695 4.70089844 -4.08137695 4.70089844 -3.72827148 3.24902344 C-2.83863405 0.16645805 -2.83863405 0.16645805 0 0 Z " fill="#FFFFFF" transform="translate(1084.114990234375,187.8759765625)"/>
<path d="M0 0 C29.37 0 58.74 0 89 0 C89.1875 37.375 89.1875 37.375 89.20776367 49.12255859 C89.23768703 52.63511846 89.23768703 52.63511846 89.27412415 56.14761353 C89.28709714 57.69712479 89.290491 59.2467362 89.28596497 60.79629517 C89.21644889 74.16612889 89.21644889 74.16612889 95 86 C99.47797027 89.01577589 103.99631424 90.04981571 109.328125 90.31640625 C110.0490332 90.35451416 110.76994141 90.39262207 111.51269531 90.43188477 C112.41600586 90.47498779 113.31931641 90.51809082 114.25 90.5625 C115.81088584 90.64027429 117.37175735 90.71833638 118.93261719 90.79663086 C119.70031433 90.83501572 120.46801147 90.87340057 121.25897217 90.91294861 C121.83351135 90.94167557 122.40805054 90.97040253 123 91 C120.07467469 106.16159169 116.73234159 121.20755642 113.25 136.25 C112.73801814 138.47129354 112.22629797 140.69264741 111.71484375 142.9140625 C110.47956619 148.27673813 109.24110766 153.63867083 108 159 C102.29326281 159.10013847 96.58705577 159.1720575 90.87963867 159.21972656 C88.94497754 159.23963346 87.01037488 159.26676909 85.07592773 159.30175781 C61.11054247 159.7238366 39.21422829 154.16173263 21.30859375 137.26171875 C20.16583984 136.14216797 20.16583984 136.14216797 19 135 C18.05833984 134.11248047 18.05833984 134.11248047 17.09765625 133.20703125 C4.48578103 120.25197575 -0.18814423 101.19454689 -0.11352539 83.66821289 C-0.11367142 82.76010864 -0.11381744 81.85200439 -0.1139679 80.91638184 C-0.11327501 77.9351151 -0.10551199 74.95391198 -0.09765625 71.97265625 C-0.09578985 69.89757827 -0.094367 67.82249985 -0.09336853 65.74742126 C-0.08956083 60.30096203 -0.07974553 54.8545297 -0.06866455 49.40808105 C-0.05660853 42.86512559 -0.05203987 36.3221611 -0.04621124 29.77919769 C-0.03653279 19.85277978 -0.017364 9.92642084 0 0 Z " fill="#FFFFFF" transform="translate(685,378)"/>
<path d="M0 0 C1.226548 0.00303635 1.226548 0.00303635 2.47787476 0.00613403 C3.76315567 0.00350555 3.76315567 0.00350555 5.07440186 0.00082397 C7.9211527 -0.00359561 10.76784197 -0.00065618 13.61459351 0.00271606 C15.58375053 0.00204306 17.55290747 0.00107306 19.52206421 -0.00018311 C23.65480335 -0.00166022 27.78752093 0.00049492 31.92025757 0.00515747 C37.23033871 0.01085476 42.54036932 0.00757583 47.85044861 0.00158501 C51.91834904 -0.00202023 55.9862374 -0.00088219 60.05413818 0.0017128 C62.01265468 0.00238217 63.97117226 0.00155329 65.9296875 -0.00076675 C68.6619255 -0.00329267 71.39408047 0.00054645 74.12631226 0.00613403 C74.94401093 0.0041098 75.76170959 0.00208557 76.60418701 0 C82.18783105 0.02126611 82.18783105 0.02126611 83.30209351 1.13552856 C83.39889392 3.18580595 83.42396294 5.23947735 83.42234802 7.29203796 C83.42320245 7.94217721 83.42405687 8.59231646 83.42493719 9.2621569 C83.42659377 11.45638436 83.42106776 13.65053658 83.4156189 15.84475708 C83.41533704 17.41138711 83.41549473 18.97801727 83.4160614 20.54464722 C83.41634942 24.81099233 83.41045194 29.07730958 83.40348744 33.3436482 C83.39725469 37.79729908 83.39665017 42.25095053 83.39546204 46.7046051 C83.39234849 55.144203 83.38413479 63.58378801 83.37411255 72.02338022 C83.36086711 83.4235869 83.35545169 94.82379708 83.34961033 106.22400951 C83.34019491 124.19452552 83.32027615 142.16501434 83.30209351 160.13552856 C53.60209351 160.13552856 23.90209351 160.13552856 -6.69790649 160.13552856 C-6.73820953 120.30269641 -6.73820953 120.30269641 -6.74673462 103.66482544 C-6.75267801 92.15757809 -6.75968079 80.65033804 -6.77334595 69.14309692 C-6.78329161 60.76401687 -6.78975964 52.38494272 -6.79199499 44.00585693 C-6.7933023 39.56636732 -6.79638941 35.12689458 -6.80363655 30.68741035 C-6.81039491 26.51375583 -6.81252383 22.34012523 -6.81101418 18.16646576 C-6.81129059 16.63011737 -6.8132968 15.09376822 -6.81711197 13.55742455 C-6.82204636 11.46893239 -6.82090575 9.38053199 -6.81816101 7.29203796 C-6.8190828 6.12043908 -6.8200046 4.9488402 -6.82095432 3.74173832 C-6.59478956 -1.04853565 -4.21523238 0.01605431 0 0 Z " fill="#FFFFFF" transform="translate(980.6979064941406,189.86447143554688)"/>
<path d="M0 0 C1.226548 0.00303635 1.226548 0.00303635 2.47787476 0.00613403 C3.76315567 0.00350555 3.76315567 0.00350555 5.07440186 0.00082397 C7.9211527 -0.00359561 10.76784197 -0.00065618 13.61459351 0.00271606 C15.58375053 0.00204306 17.55290747 0.00107306 19.52206421 -0.00018311 C23.65480335 -0.00166022 27.78752093 0.00049492 31.92025757 0.00515747 C37.23033871 0.01085476 42.54036932 0.00757583 47.85044861 0.00158501 C51.91834904 -0.00202023 55.9862374 -0.00088219 60.05413818 0.0017128 C62.01265468 0.00238217 63.97117226 0.00155329 65.9296875 -0.00076675 C68.6619255 -0.00329267 71.39408047 0.00054645 74.12631226 0.00613403 C74.94401093 0.0041098 75.76170959 0.00208557 76.60418701 0 C82.18783105 0.02126611 82.18783105 0.02126611 83.30209351 1.13552856 C83.39889392 3.18580595 83.42396294 5.23947735 83.42234802 7.29203796 C83.42320245 7.94217721 83.42405687 8.59231646 83.42493719 9.2621569 C83.42659377 11.45638436 83.42106776 13.65053658 83.4156189 15.84475708 C83.41533704 17.41138711 83.41549473 18.97801727 83.4160614 20.54464722 C83.41634942 24.81099233 83.41045194 29.07730958 83.40348744 33.3436482 C83.39725469 37.79729908 83.39665017 42.25095053 83.39546204 46.7046051 C83.39234849 55.144203 83.38413479 63.58378801 83.37411255 72.02338022 C83.36086711 83.4235869 83.35545169 94.82379708 83.34961033 106.22400951 C83.34019491 124.19452552 83.32027615 142.16501434 83.30209351 160.13552856 C53.60209351 160.13552856 23.90209351 160.13552856 -6.69790649 160.13552856 C-6.73820953 120.30269641 -6.73820953 120.30269641 -6.74673462 103.66482544 C-6.75267801 92.15757809 -6.75968079 80.65033804 -6.77334595 69.14309692 C-6.78329161 60.76401687 -6.78975964 52.38494272 -6.79199499 44.00585693 C-6.7933023 39.56636732 -6.79638941 35.12689458 -6.80363655 30.68741035 C-6.81039491 26.51375583 -6.81252383 22.34012523 -6.81101418 18.16646576 C-6.81129059 16.63011737 -6.8132968 15.09376822 -6.81711197 13.55742455 C-6.82204636 11.46893239 -6.82090575 9.38053199 -6.81816101 7.29203796 C-6.8190828 6.12043908 -6.8200046 4.9488402 -6.82095432 3.74173832 C-6.59478956 -1.04853565 -4.21523238 0.01605431 0 0 Z " fill="#FFFFFF" transform="translate(650.6979064941406,189.86447143554688)"/>
<path d="M0 0 C29.7 0 59.4 0 90 0 C90 52.47 90 104.94 90 159 C60.3 159 30.6 159 0 159 C0 106.53 0 54.06 0 0 Z " fill="#FFFFFF" transform="translate(809,378)"/>
<path d="M0 0 C29.37 0 58.74 0 89 0 C89 52.8 89 105.6 89 160 C59.63 160 30.26 160 0 160 C0 107.2 0 54.4 0 0 Z " fill="#FFFFFF" transform="translate(1144,3)"/>
<path d="M0 0 C29.37 0 58.74 0 89 0 C89 52.8 89 105.6 89 160 C59.63 160 30.26 160 0 160 C0 107.2 0 54.4 0 0 Z " fill="#FFFFFF" transform="translate(459,3)"/>
<path d="M0 0 C29.7 0 59.4 0 90 0 C90 24.75 90 49.5 90 75 C60.3 75 30.6 75 0 75 C0 50.25 0 25.5 0 0 Z " fill="#FFFFFF" transform="translate(127,462)"/>
<path d="M0 0 C29.7 0 59.4 0 90 0 C90 24.75 90 49.5 90 75 C60.3 75 30.6 75 0 75 C0 50.25 0 25.5 0 0 Z " fill="#FFFFFF" transform="translate(870,275)"/>
</svg>
