<svg class="site-logo" viewBox="0 0 203 36" fill="none" xmlns="http://www.w3.org/2000/svg">
    <path class="site-logo-text" d="M79.3896 9.78992C84.2861 9.78992 88.2117 13.4559 88.2117 17.95C88.2117 22.4441 84.2861 26.1824 79.3896 26.1824C74.4931 26.1824 70.6611 22.5399 70.6611 17.95C70.6611 13.3601 74.4931 9.78992 79.3896 9.78992ZM79.3896 23.2722C82.3466 23.2722 84.665 20.8602 84.665 17.95C84.665 15.0398 82.3466 12.7214 79.3896 12.7214C76.4326 12.7214 74.21 15.0866 74.21 17.95C74.21 20.8133 76.4815 23.2722 79.3896 23.2722Z" fill="white"></path>
    <path class="site-logo-text" d="M132.28 19.1102H126.579V22.7996H136.608V25.7098H123.196V10.2625H136.063V13.1961H126.577V16.2H132.278V19.1102H132.28Z" fill="white"></path>
    <path class="site-logo-text" d="M172.797 25.7098V10.2625H176.18V25.7098H172.797Z" fill="white"></path>
    <path class="site-logo-text" d="M153.473 19.6062H158.134V22.2078C157.163 22.8698 155.602 23.2488 154.208 23.2488C150.755 23.2488 148.956 20.6941 148.956 17.9968C148.956 15.11 151.015 12.7214 153.972 12.7214C155.366 12.7214 157.131 13.2558 158.455 14.1967L161.28 12.5553C159.058 10.7586 156.384 9.78778 153.948 9.78778C149.171 9.78778 145.433 13.4537 145.433 17.9713C145.433 22.4888 149.122 26.1547 154.067 26.1547C156.479 26.1547 159.296 25.2329 161.306 23.7427V16.811H153.476V19.602L153.473 19.6062Z" fill="white"></path>
    <path class="site-logo-text" d="M105.461 16.1063C103.451 15.9403 101.416 15.8466 101.416 14.4735C101.416 13.1003 102.787 12.5809 104.326 12.5809C106.14 12.5809 107.641 13.0705 108.69 13.5985L111.673 11.8656C110.344 10.9672 107.63 9.78992 104.42 9.78992C101.509 9.78992 98.033 10.948 98.033 14.6864C98.033 18.6121 102.008 18.991 105.39 19.2039C107.709 19.3934 109.293 19.7233 109.293 21.2136C109.293 22.7038 107.732 23.4127 105.767 23.4127C103.302 23.4127 101.416 22.4398 100.09 21.518L97.2666 23.1594C99.0634 24.6177 101.75 26.1803 105.72 26.1803C109.691 26.1803 112.676 24.6901 112.676 20.8815C112.676 16.6237 108.275 16.2916 105.461 16.1042V16.1063Z" fill="white"></path>
    <path class="site-logo-text" d="M59.048 21.7245C57.7941 22.6825 56.2187 23.3786 54.554 23.3786C51.9886 23.3786 50.1578 21.8522 49.5362 19.7446C49.3829 19.2273 49.302 18.6759 49.302 18.1032C49.302 17.4582 49.402 16.8387 49.5936 16.2639C50.2557 14.2691 52.0099 12.8278 54.4347 12.8278C55.8675 12.8278 57.5451 13.3941 58.8905 14.3436L61.7368 12.7001L61.624 12.5915C59.7783 11.0076 56.9873 9.89423 54.1495 9.89423C50.5878 9.89423 47.833 11.7996 46.5472 14.5054C46.032 15.5911 45.751 16.8046 45.751 18.0777C45.751 19.3508 46.0001 20.4706 46.4642 21.5159C47.7117 24.3345 50.524 26.2867 54.2666 26.2867C57.4897 26.2867 60.0891 24.9115 61.8624 23.3488L59.0459 21.7224L59.048 21.7245Z" fill="white"></path>
    <path class="site-logo-text" d="M200.143 21.7245C198.889 22.6825 197.313 23.3786 195.649 23.3786C193.083 23.3786 191.253 21.8522 190.631 19.7446C190.478 19.2273 190.397 18.6759 190.397 18.1032C190.397 17.4582 190.497 16.8387 190.688 16.2639C191.35 14.2691 193.105 12.8278 195.529 12.8278C196.962 12.8278 198.64 13.3941 199.985 14.3436L202.832 12.7001L202.719 12.5915C200.873 11.0076 198.082 9.89423 195.244 9.89423C191.683 9.89423 188.928 11.7996 187.642 14.5054C187.127 15.5911 186.846 16.8046 186.846 18.0777C186.846 19.3508 187.095 20.4706 187.559 21.5159C188.806 24.3345 191.619 26.2867 195.361 26.2867C198.584 26.2867 201.184 24.9115 202.957 23.3488L200.141 21.7224L200.143 21.7245Z" fill="white"></path>
    <path class="site-logo-shape" d="M34.4678 25.0967L18.2349 34.5L2 25.0967L18.2349 15.6934L34.4678 25.0967Z" stroke="white" stroke-width="1.21799" stroke-miterlimit="10"></path>
    <path class="site-logo-shape" d="M34.4678 20.3641L18.2349 29.7675L2 20.3663L18.2349 10.9608L34.4678 20.3641Z" stroke="white" stroke-width="1.21799" stroke-miterlimit="10"></path>
    <path class="site-logo-shape" d="M34.4678 15.6337L18.2349 25.0371L2 15.6337L18.2349 6.23041L34.4678 15.6337Z" stroke="white" stroke-width="1.21799" stroke-miterlimit="10"></path>
    <path class="site-logo-shape" d="M34.4678 10.9033L18.2349 20.3067L2 10.9033L18.2349 1.5L34.4678 10.9033Z" stroke="white" stroke-width="1.21799" stroke-miterlimit="10"></path>
</svg>