<svg xmlns="http://www.w3.org/2000/svg" viewBox="0 0 969.34 175.48">
    <path d="M555.41 108.77c.17 8.33.17 18.84.17 32.87s0 24.45-.17 32.87h9.64c-.27-8.5-.27-19-.27-32.87 0-14.11 0-24.54.27-32.87zm43.13-31.27c-.79 5.87-1.4 10.69-1.75 14.37h-.44c-.44-3.68-1-8.5-1.84-14.46-2.28-15.6-4.91-36.55-5.61-43.22h-11.31c-.61 7-3.85 28.14-5.87 43-.79 5.7-1.49 10.61-1.93 14.38h-.44c-.35-3.68-.87-8.59-1.67-14.38-2.19-15.6-5.25-37.34-5.69-43h-11.76c3 13.24 10.71 54.88 12.9 65.75 1-.09 2.63-.09 5.08-.09 1.93 0 4.12 0 5.79.09 1-6.49 3.85-23.93 6-38.22.87-5.44 1.57-12.1 2.1-17.27h.26c.53 5.08 1.23 11.57 2 17.18 1.92 14 4.56 32.52 5.43 38.31 1.23-.09 3.42-.09 6.31-.09 1.93 0 3.77 0 5.09.09 1.84-10.26 10.26-52.33 13-65.75h-9.91c-.61 6.75-3.72 28.14-5.74 43.31zm45.61 75.8c-1.23 5.78-2 10.25-2.63 13.67h-.35c-.61-3.33-1.4-7.89-2.63-13.5-2.89-15.51-7-37.6-7.89-44.7h-10.78c3.77 13.67 12.36 56.27 14.38 65.74 1.22-.09 3.33-.09 6.92-.09 2.63 0 5.08 0 6.84.09 2-9.47 10.6-50.4 14.2-65.74h-10.08c-.97 6.57-5.17 29.01-7.98 44.53zm-39-44.53c.27 6.75.53 23.49.53 36 0 5.53.35 11 .79 17h-.09a142.71 142.71 0 0 0-4.29-14.38c-5.88-15.25-13.85-33.39-15.52-38.65h-11.43c.17 7.71.17 18.93.17 32.87s-.08 24.45-.17 32.87h8.32c-.08-5.17-.08-18.15-.17-36.2-.09-6.49-.35-13.06-.7-19.9h.08a121.66 121.66 0 0 0 4.91 16.74c6.23 14.47 13.68 32.61 16 39.36h9.73c-.08-8.5-.08-18.41-.08-33 0-13.94.08-26.12.17-32.78zm26.49-8.83c-.27-8.51-.27-19-.27-32.87 0-14.12 0-24.55.27-32.88H622c.17 8.33.17 18.85.17 32.88s0 24.45-.17 32.87zm58.58-32.88v14.56c0 7.27-.19 18.32-.19 18.32h32.64c-.09-.88-.09-2.63-.09-3.95s0-4.16.09-5.21c-8.51.18-16.75.92-23.32.92V70.49h5.19c5.39 0 18.13.73 18.13.73v-9.11s-12.74.73-18.13.73h-5.19V42.43c6.57 0 14.81.74 23.32.92-.09-1.06-.09-3.81-.09-5.21s0-3.07.09-4h-32.66c.26 7.15.17 18.99.17 32.92zm-40.2 32.88c-.09-5.18-.09-18.15-.18-36.21-.09-6.48-.35-13.06-.7-19.89h.09a120.28 120.28 0 0 0 4.91 16.74c6.22 14.46 13.67 32.61 16 39.36h9.73c-.09-8.51-.09-18.41-.09-33 0-13.94.09-26.12.17-32.79h-8.28c.26 6.75.52 23.5.52 36 0 5.52.35 11.05.79 17h-.08a140.12 140.12 0 0 0-4.3-14.38c-5.87-15.25-13.85-33.4-15.52-38.66h-11.41c.18 7.72.18 18.94.18 32.88s-.09 24.45-.18 32.87zm189.71 8.83h-11.06c-1.75 6.13-6.14 22-10.17 36.37-1 3.34-1.93 7.72-2.81 11.93h-.43c-.79-4.21-1.84-8.94-2.63-12.1-4.21-14.29-8.59-30.33-10.26-36.2h-12c.18 8.59.18 18.41.18 32.78 0 13.94 0 23.49-.18 33h8.15c-.08-13.5-.26-22.62-.26-36.9-.09-6.23-.44-13-.52-19.73h.26c1 5.7 2.45 12.36 3.77 17.36l10.9 39.23h4.12l10.78-38.66c1.23-4.64 2.54-11.65 3.68-17.79h.26c-.17 6.4-.52 13.32-.52 19.11 0 14.2-.09 23.84-.44 37.34h9.29c-.18-9.47-.26-19-.26-33-.02-14.33.09-24.15.15-32.74zm80.23 0c.26 6.75.52 23.49.52 36 0 5.53.35 11 .79 17h-.08a140.12 140.12 0 0 0-4.3-14.38c-5.87-15.25-13.85-33.39-15.52-38.65h-11.39c.18 7.71.18 18.93.18 32.87s-.09 24.45-.18 32.87h8.33c-.09-5.17-.09-18.15-.18-36.2-.09-6.49-.35-13.06-.7-19.9h.09a120.28 120.28 0 0 0 4.91 16.74c6.22 14.47 13.67 32.61 16 39.36h9.73c-.09-8.5-.09-18.41-.09-33 0-13.94.09-26.12.18-32.78zm-71.29 0c.27 7.1.18 18.93.18 32.87v14.6c0 7.26-.19 18.31-.19 18.31h32.61c-.09-.88-.09-2.63-.09-3.94s0-4.16.09-5.21c-8.5.17-16.74.91-23.32.91v-21.2h5.19c5.39 0 16.72.72 16.72.72v-9.1s-11.33.72-16.72.72h-5.19v-20.44c6.58 0 14.82.74 23.32.91-.09-1.05-.09-3.8-.09-5.21s0-3.07.09-3.94zm120.58 4.12c0-1.49 0-3.07.09-4.12H935.5c.09 1.05.09 2.63.09 4.12 0 1.31 0 3.07-.09 4.21 4.39-.09 8.68-.09 12.45-.09 0 22.52 0 52.24-.26 57.5 1.4-.09 3.33-.09 4.73-.09s3.42 0 4.82.09c-.26-5.26-.26-35-.26-57.5 3.77 0 8.06 0 12.36.09-.09-1.14-.09-2.86-.09-4.21zm-300.72-4.12c.27 7.1.18 18.93.18 32.87v14.6c0 7.26-.19 18.31-.19 18.31h32.61c-.09-.88-.09-2.63-.09-3.94s0-4.16.09-5.21c-8.5.17-16.74.91-23.32.91v-21.2H683c5.39 0 18.13.72 18.13.72v-9.1s-12.74.72-18.13.72h-5.19v-20.44c6.58 0 14.82.74 23.32.91-.09-1.05-.09-3.8-.09-5.21s0-3.07.09-3.94zm80.75 0c.08 1.05.08 2.63.08 4.12 0 1.31 0 3.07-.08 4.21 4.38-.09 8.67-.09 12.44-.09 0 22.52 0 52.24-.26 57.5 1.4-.09 3.33-.09 4.73-.09s3.42 0 4.82.09c-.26-5.26-.26-35-.26-57.5 3.77 0 8.06 0 12.36.09-.09-1.14-.09-2.9-.09-4.21 0-1.49 0-3.07.09-4.12zm-21.39 28.47c-9.2-3.77-10.78-8.24-10.78-13.59s2.8-8 8.68-8c6.75 0 9.37 3.16 9.37 9.82 0 1.58-.08 3.59-.17 5.43 1.14 0 2.72-.08 4.38-.08s3.07 0 4.12.08c.09-2.19.18-3.76.18-5.87 0-11.48-5.26-17.27-18-17.27-11.66 0-17.62 5.79-17.62 15.87s4.12 16.39 16.3 21.3c8.77 3.51 11.22 8.24 11.22 14.29 0 5.52-2.54 8.32-9.11 8.32-7 0-9.82-3-9.82-11.22 0-1.13 0-2.8.09-4.29-1.32.09-3 .09-4.82.09-1.67 0-3.16-.09-4.3-.18-.09 2-.18 3.33-.18 6 0 10.87 5.44 17.53 19 17.53 12.09 0 17.79-6.31 17.79-16.74s-5.11-17-16.33-21.49zm-499.76-19.47c.78 40.93-14.8 39.48-20.14 38.27-10.07-2.27-11.18-17.47-11.18-42.36v-79.2h-50.66v96.35c0 29.12 15.53 44.64 44.13 44.64 10.72 0 35.92 1.36 47.81-26h8.58v24.77h32.16V34.48h-50.7zM351.47.13L299.72 0v119.53c0 35.09 17.1 54.83 44.67 56h28.74v-34.92h-21.66zM63.34 32.73C28.49 37.18 0 64.55 0 103.46s28.49 66.26 63.34 70.72c32.14 4.12 51.72-2.54 62.35-7.53V112.6h-7.13c-30.26 0-54.69 20.83-54.69 54.68-5.06-.87-8.87-1.53-14.09-3.75.25-2.1.3-30.61.29-60.08s0-58-.29-60.07c5.22-2.23 9-2.88 14.09-3.75 0 33.85 24.43 54.68 54.69 54.68h7.11V40.24c-10.61-5-30.18-11.63-62.33-7.51zm431.33 86.71l-26 13.52a21.62 21.62 0 0 0-11.65 19.16v8.12l-13.33.29V61.44h56.27v-27.2h-57.43V0h-17.36a232.77 232.77 0 0 1-54.84 56.53v4.9h21.52v57.43c0 41.92 19.6 56.61 54.46 56.61 13.62 0 25.05-1.88 36.85-8.24 12.19-6.57 16.84-14.05 16.84-14.05l-.28-33.87z" fill="white">
    </path>
</svg>
