<svg xmlns="http://www.w3.org/2000/svg" viewBox="0 0 272 95.39">
    <path fill="white" d="M69.61 49.77c0 2.02-.52 5.68 1.88 6.65v.62l-13.52.02c-.34-.88-.55-2.65-.48-3.53l-.54.52c-2.85 3.01-7.34 3.94-11.68 3.94-6.78 0-12.09-3.14-12.09-9.98 0-10.29 11.31-9.87 18.16-11.06 1.83-.31 5.38-.87 5.38-2.94 0-2.2-2.24-3.01-4.41-3.01-4.14 0-4.38 2.75-4.43 3.31l-12.46-.05c.05-9.18 9.11-10.95 17.46-10.95 16.83 0 16.73 6.81 16.73 13.09v13.37Zm-12.89-7.34c-1.63.75-3.46 1.19-5.29 1.57-2.99.63-4.55 1.32-4.55 3.51 0 1.51 1.76 3.01 4.21 3.01 3.05 0 5.43-1.69 5.63-5.08v-3.01ZM188.03 44.07c-.15 2.58 2.06 6.29 6.17 6.29 2.12 0 4.31-.76 5.1-2.75h12.41c-1.97 7.5-9.61 10.67-17.44 10.72-11.4.07-19.3-6.15-19.3-17.01 0-10.05 7.34-17.7 18.22-17.7 13.66 0 19.46 9.18 19.67 20.36l-24.82.09Zm11.87-6.63c0-3.01-2.49-5.88-5.85-5.91-4.53-.04-6.39 3.33-6.12 5.88l11.96.03Z"></path>
    <path fill="white" fill-rule="evenodd" d="M221.78 80.03V64.34h-5.55v19.21l17.38.01v-3.53h-11.83z"></path>
    <path fill="white" d="M240.33 69.8h3.57v2.5h-3.57v6.73c0 1.26.41 1.58 2.06 1.58.52 0 1-.03 1.51-.1v2.92c-.82.11-1.89.13-2.85.13-2.99 0-5.6-.53-5.6-3.24V72.3h-2.96v-2.5h2.96v-4.08h4.88v4.08ZM258.24 81.74h-.07c-1.13 1.51-3.13 2.15-5.39 2.15-5.36 0-7.97-3.6-7.97-7.45s2.65-7.21 7.87-7.21c2.1 0 4.16.7 5.29 2.07h.03v-6.99h4.88v19.21h-4.64v-1.78Zm-4.26-9.63c-3.2 0-4.3 2.15-4.3 4.44s1.27 4.47 4.3 4.47c3.23 0 4.19-2.21 4.19-4.49s-1.03-4.41-4.19-4.41ZM265.64 79.51h4.85v4.05h-4.85v-4.05ZM120.72 63.05c7.59 0 12.06 4.63 12.06 10.59s-4.31 10.06-11.9 10.06-12.22-4.28-12.22-10.06 4.47-10.59 12.06-10.59Zm0 17.3c4.84 0 6.67-3.37 6.67-6.71 0-3.51-1.82-6.88-6.67-6.88s-6.67 3.37-6.67 6.88 1.82 6.71 6.67 6.71ZM0 91.44h270.49v3.95H0zM0 0h270.49v4.04H0zM.32 57.54h14.85V41.8H31.3V31.32H15.17v-8.46h20.28V12.61H.32v44.93z"></path>
    <path fill="white" fill-rule="evenodd" d="M87.24 10.84H74.2v9.27h13.04v-9.27z"></path>
    <path fill="white" d="M74.2 57.54h13.1V24.83H74.2v32.71zM92.64 57.54h12.85V44.42c.5-4.1 2.02-6.37 5.08-7.59 1.2-.48 5.04-.08 5.65.22v-13s-8.54-1.93-11.43 6.71h-.15v-5.97H92.63v32.75ZM155.36 24.75h-12.54l-5.69 20.78-5.73-20.78h-13l11.31 32.79h14.53l11.12-32.79zM267.63 24.63h-12.35l-5.06 21.13-5.29-21.13h-10.77l-5.17 20.84-5.14-20.83h-12.69l10.85 32.9 12.66-.07 4.62-19.5 5.27 19.57h12.54l10.53-32.91zM183.95 77.23c0 4.86 4.75 6.67 10.32 6.67s10.63-1.34 10.63-6.36c0-3.58-2.39-5.1-6.94-5.67-3.59-.46-8.06-.72-8.06-2.28 0-1.3.36-2.67 4.01-2.67 2.86 0 4.55 1.12 4.45 2.82h5.59c-.03-4.36-4.89-6.27-9.72-6.27-4.55 0-9.8 1.1-9.89 6.02-.07 4.23 4.21 5.1 7.08 5.53 4.1.62 7.89 1.17 7.59 2.89-.47 2.75-2.91 2.39-4.81 2.39-2.69 0-4.12-.94-4.23-3.06h-6.02ZM.62 83.53h5.21l-.01-13.31 10.42 13.34h5.69V64.35h-4.98v13.32L6.92 64.31H.62v19.22z"></path>
    <path fill="white" fill-rule="evenodd" d="M171.63 11.03h-13.04v9.27h13.04v-9.27z"></path>
    <path fill="white" d="M158.59 57.54h13.1V24.83h-13.1v32.71zM43.2 68.02v-3.73H25.12v19.25h.02v.02H43.2v-3.73H30.42v-4.32h12.09v-3.59H30.42v-3.9H43.2zM75.71 64.25h-5.39l-3.69 13.78-3.87-13.78H57.4l-3.84 13.67-3.66-13.67-5.39-.03 6.11 19.31 5.58-.01 3.89-13.73 3.89 13.77 5.63-.02 6.1-19.29zM101.36 64.18v7.32H90.7v-7.32h-5.34v19.38h5.34v-8.3h10.66v8.3h5.34V64.18h-5.34zM153.93 64.19l-5.71 13.65-5.63-13.67-7.76.02v19.25h5.1V68.49L146 83.34v.04h4.39l.04.01.01-.01h.02v-.06l6.04-15.03v15.27h5.1V64.19h-7.67zM182.79 68.02v-3.73h-18.07v19.25h.02v.02h18.05v-3.73h-12.77v-4.32h12.09v-3.59h-12.09v-3.9h12.77zM272 15.59c0 1.54-.51 2.8-1.53 3.76s-2.2 1.44-3.55 1.44-2.59-.5-3.59-1.49-1.49-2.19-1.49-3.58.5-2.59 1.49-3.58c.99-.99 2.19-1.49 3.59-1.49.96 0 1.85.25 2.66.76.81.5 1.42 1.15 1.82 1.93.4.78.6 1.54.6 2.25Zm-.64.23c0-1.36-.45-2.46-1.34-3.31-.9-.84-1.93-1.27-3.1-1.27s-2.28.44-3.14 1.31c-.87.87-1.3 1.92-1.3 3.15s.43 2.27 1.3 3.14c.87.87 1.92 1.31 3.14 1.31s2.33-.45 3.18-1.35c.85-.9 1.27-1.9 1.27-2.99Zm-6.58-2.9h2.42c.58 0 1.06.13 1.43.38.37.26.55.63.55 1.13 0 .37-.13.72-.38 1.03-.25.31-.7.51-1.35.59.43.16.73.36.93.61.2.25.53.9 1 1.95h-.88c-.47-1.03-.85-1.7-1.14-2-.29-.3-.8-.45-1.53-.45h-.33v2.45h-.73v-5.69Zm.73 2.63h.96c.78 0 1.28-.09 1.51-.28.23-.19.34-.46.34-.8s-.13-.61-.38-.75-.71-.21-1.35-.21h-1.08v2.06Z"></path>
</svg>