<svg xmlns="http://www.w3.org/2000/svg" viewBox="0 0 192 72.228">
    <g id="Group_310" data-name="Group 310" transform="translate(0.238 31.387)">
        <path id="Path_679" data-name="Path 679" d="M57.442,140.827H79.208v5.524H64.564v6H78.127v5.523H64.564v11.447H57.442Z" transform="translate(-57.442 -140.026)" fill="#fff"></path>
        <path id="Path_680" data-name="Path 680" d="M121.035,140.827H128.4l10.763,28.5h-7.642l-1.44-4.483H119.554l-1.44,4.483h-7.6Zm7.321,18.732-3.521-11.767h-.08l-3.521,11.767Z" transform="translate(-90.16 -140.026)" fill="#fff"></path>
        <path id="Path_681" data-name="Path 681" d="M191.145,140.827h14.243c6.4,0,10.322,2.962,10.322,9.366a7.871,7.871,0,0,1-5.881,7.684l6.522,11.447h-7.962l-5.6-10.246h-4.521v10.246h-7.122Zm7.122,12.968h6.521c2.281-.04,3.8-1.2,3.8-3.842s-1.52-3.8-3.8-3.842h-6.521Z" transform="translate(-139.87 -140.026)" fill="#fff"></path>
        <path id="Path_682" data-name="Path 682" d="M265.226,140.827h10.442L280.709,162h.08l5.2-21.173h10.323v28.5h-6.722V147.191h-.08l-5.642,22.134h-6.281l-5.8-22.134h-.08v22.134h-6.481Z" transform="translate(-185.541 -140.026)" fill="#fff"></path>
        <path id="Path_683" data-name="Path 683" d="M355.763,169.325v-28.5h20.965v5.524H362.885v5.2h12.923v5.523H362.885V163.8h15.044v5.523Z" transform="translate(-241.357 -140.026)" fill="#fff"></path>
        <path id="Path_684" data-name="Path 684" d="M423.62,140.827h14.243c6.4,0,10.322,2.962,10.322,9.366a7.871,7.871,0,0,1-5.881,7.684l6.521,11.447h-7.962l-5.6-10.246h-4.521v10.246H423.62Zm7.122,12.968h6.521c2.281-.04,3.8-1.2,3.8-3.842s-1.52-3.8-3.8-3.842h-6.521Z" transform="translate(-283.19 -140.026)" fill="#fff"></path>
        <path id="Path_685" data-name="Path 685" d="M495.31,159.513c2.481,2.241,4.841,3.562,8.242,3.562,1.88,0,5.321-.8,5.321-3.283,0-1.441-1.08-2.161-3.2-2.521l-5.921-.96c-5.282-.841-8.162-3.643-8.162-7.845,0-6.884,5.561-9.726,11.642-9.726a16.9,16.9,0,0,1,12.563,5.483l-5.4,3.883a9.838,9.838,0,0,0-7.642-3.6c-1.641,0-4.041,1.04-4.041,2.882,0,1.521,1.24,2.281,3.961,2.721l2.721.44c5.682.921,10.363,2.682,10.363,8.125,0,8.565-7.722,10.166-13.043,10.166a16.3,16.3,0,0,1-12.843-5.8Z" transform="translate(-324.033 -138.74)" fill="#fff"></path>
    </g>
    <g id="Group_311" data-name="Group 311" transform="translate(0.238 0.047)">
        <path id="Path_686" data-name="Path 686" d="M57.442,57.05H79.207v5.523H64.564v6H78.127V74.1H64.564V85.548H57.442Z" transform="translate(-57.442 -57.05)" fill="#fff"></path>
        <path id="Path_687" data-name="Path 687" d="M120.537,57.05h14.244c6.4,0,10.322,2.962,10.322,9.366a7.872,7.872,0,0,1-5.881,7.684l6.521,11.447h-7.962L132.18,75.3h-4.521V85.548h-7.122Zm7.122,12.968h6.521c2.281-.04,3.8-1.2,3.8-3.842s-1.521-3.8-3.8-3.843h-6.521Z" transform="translate(-96.34 -57.05)" fill="#fff"></path>
        <path id="Path_688" data-name="Path 688" d="M197.9,57.05h7.362l10.762,28.5h-7.642l-1.44-4.483H196.42l-1.44,4.483h-7.6Zm7.321,18.732L201.7,64.014h-.08L198.1,75.782Z" transform="translate(-137.547 -57.05)" fill="#fff"></path>
        <path id="Path_689" data-name="Path 689" d="M265.226,57.05h10.443l5.041,21.173h.08l5.2-21.173h10.322v28.5h-6.722V63.414h-.08L283.87,85.548h-6.281l-5.8-22.134h-.08V85.548h-6.481Z" transform="translate(-185.541 -57.05)" fill="#fff"></path>
    </g>
    <g id="Group_312" data-name="Group 312" transform="translate(0 65.405)">
        <path id="Path_690" data-name="Path 690" d="M61.62,229.614a1.656,1.656,0,0,0-1.524-.843c-.989,0-1.66.635-1.66,2.05,0,1.252.563,2.051,1.66,2.051a1.361,1.361,0,0,0,1.433-1.171H60.1v-1.252h2.793v3.6H61.638v-.58a2.439,2.439,0,0,1-1.877.762c-1.95,0-2.938-1.415-2.938-3.384s1.061-3.439,3.165-3.439a3.34,3.34,0,0,1,2.975,1.615Z" transform="translate(-56.822 -227.41)" fill="#fff"></path>
        <path id="Path_691" data-name="Path 691" d="M75.707,227.883h3.229c1.451,0,2.339.671,2.339,2.123a1.784,1.784,0,0,1-1.333,1.742l1.478,2.595h-1.8l-1.27-2.322H77.321v2.322H75.707Zm1.614,2.939H78.8a.871.871,0,0,0,0-1.742H77.321Z" transform="translate(-68.465 -227.702)" fill="#fff"></path>
        <path id="Path_692" data-name="Path 692" d="M92.844,234.342v-6.459H97.6v1.252H94.458v1.18h2.93v1.252h-2.93v1.524h3.41v1.252Z" transform="translate(-79.03 -227.702)" fill="#fff"></path>
        <path id="Path_693" data-name="Path 693" d="M109.467,227.883h1.669l2.439,6.459h-1.732l-.326-1.016h-2.385l-.326,1.016h-1.723Zm1.659,4.246-.8-2.668h-.018l-.8,2.668Z" transform="translate(-87.807 -227.702)" fill="#fff"></path>
        <path id="Path_694" data-name="Path 694" d="M122.756,227.883h4.988v1.252h-1.687v5.208h-1.614v-5.208h-1.687Z" transform="translate(-97.47 -227.702)" fill="#fff"></path>
        <path id="Path_695" data-name="Path 695" d="M144.249,227.883H147.4c1.306,0,2.186.453,2.186,1.66,0,.826-.472,1.261-1.351,1.461v.018c.879.063,1.587.526,1.587,1.479,0,1.334-1,1.841-2.639,1.841h-2.938Zm1.542,2.54h1.342c.517,0,.843-.2.843-.672,0-.544-.308-.671-.843-.671h-1.342Zm.018,2.722h1.315c.852,0,1.088-.336,1.088-.753,0-.535-.2-.771-.8-.771h-1.605Z" transform="translate(-110.721 -227.702)" fill="#fff"></path>
        <path id="Path_696" data-name="Path 696" d="M161.4,227.883h3.229c1.451,0,2.34.671,2.34,2.123a1.784,1.784,0,0,1-1.333,1.742l1.478,2.595h-1.8l-1.27-2.322h-1.024v2.322H161.4Zm1.615,2.939h1.478a.871.871,0,0,0,0-1.742h-1.478Z" transform="translate(-121.294 -227.702)" fill="#fff"></path>
        <path id="Path_697" data-name="Path 697" d="M178.525,227.883h1.615v6.459h-1.615Z" transform="translate(-131.852 -227.702)" fill="#fff"></path>
        <path id="Path_698" data-name="Path 698" d="M184.451,227.883h4.988v1.252h-1.687v5.208h-1.614v-5.208h-1.687Z" transform="translate(-135.505 -227.702)" fill="#fff"></path>
        <path id="Path_699" data-name="Path 699" d="M199.195,227.883h1.615v6.459h-1.615Z" transform="translate(-144.595 -227.702)" fill="#fff"></path>
        <path id="Path_700" data-name="Path 700" d="M206.417,232.119a2.616,2.616,0,0,0,1.868.808c.426,0,1.206-.181,1.206-.744,0-.327-.245-.49-.726-.572l-1.342-.218c-1.2-.191-1.85-.826-1.85-1.779,0-1.56,1.261-2.2,2.639-2.2a3.83,3.83,0,0,1,2.848,1.243l-1.225.88a2.23,2.23,0,0,0-1.732-.817c-.372,0-.916.236-.916.653,0,.344.281.517.9.617l.617.1c1.288.209,2.349.608,2.349,1.842,0,1.942-1.751,2.3-2.957,2.3a3.7,3.7,0,0,1-2.911-1.315Z" transform="translate(-148.287 -227.41)" fill="#fff"></path>
        <path id="Path_701" data-name="Path 701" d="M223.036,227.883h1.615v2.323h2.4v-2.323h1.615v6.459h-1.615v-2.722h-2.4v2.722h-1.615Z" transform="translate(-159.293 -227.702)" fill="#fff"></path>
        <path id="Path_702" data-name="Path 702" d="M247.555,227.883h4.933v1.252h-3.319V230.5h3.074v1.252h-3.074v2.595h-1.614Z" transform="translate(-174.409 -227.702)" fill="#fff"></path>
        <path id="Path_703" data-name="Path 703" d="M262.35,227.883h1.669l2.439,6.459h-1.732l-.326-1.016h-2.385l-.327,1.016h-1.723Zm1.66,4.246-.8-2.668h-.018l-.8,2.668Z" transform="translate(-182.059 -227.702)" fill="#fff"></path>
        <path id="Path_704" data-name="Path 704" d="M278.557,227.883h3.229c1.451,0,2.339.671,2.339,2.123a1.784,1.784,0,0,1-1.333,1.742l1.478,2.595h-1.8L281.2,232.02h-1.025v2.322h-1.614Zm1.614,2.939h1.478a.871.871,0,0,0,0-1.742h-1.478Z" transform="translate(-193.521 -227.702)" fill="#fff"></path>
        <path id="Path_705" data-name="Path 705" d="M295.649,227.883h2.367l1.143,4.8h.018l1.179-4.8H302.7v6.459h-1.524v-5.017h-.018l-1.279,5.017h-1.424l-1.315-5.017h-.018v5.017h-1.469Z" transform="translate(-204.059 -227.702)" fill="#fff"></path>
        <path id="Path_706" data-name="Path 706" d="M317.346,234.342v-6.459H322.1v1.252H318.96v1.18h2.93v1.252h-2.93v1.524h3.41v1.252Z" transform="translate(-217.435 -227.702)" fill="#fff"></path>
        <path id="Path_707" data-name="Path 707" d="M332.946,227.883h3.229c1.451,0,2.339.671,2.339,2.123a1.784,1.784,0,0,1-1.333,1.742l1.478,2.595h-1.8l-1.269-2.322H334.56v2.322h-1.614Zm1.614,2.939h1.478a.871.871,0,0,0,0-1.742H334.56Z" transform="translate(-227.052 -227.702)" fill="#fff"></path>
        <path id="Path_708" data-name="Path 708" d="M349.647,232.119a2.617,2.617,0,0,0,1.868.808c.426,0,1.206-.181,1.206-.744,0-.327-.245-.49-.725-.572l-1.343-.218c-1.2-.191-1.85-.826-1.85-1.779,0-1.56,1.261-2.2,2.639-2.2a3.83,3.83,0,0,1,2.848,1.243l-1.224.88a2.231,2.231,0,0,0-1.732-.817c-.372,0-.916.236-.916.653,0,.344.282.517.9.617l.617.1c1.288.209,2.349.608,2.349,1.842,0,1.942-1.75,2.3-2.956,2.3a3.7,3.7,0,0,1-2.911-1.315Z" transform="translate(-236.588 -227.41)" fill="#fff"></path>
        <path id="Path_709" data-name="Path 709" d="M376.588,229.742a1.467,1.467,0,0,0-1.342-.971c-.889,0-1.6.6-1.6,2.05,0,.943.381,2.051,1.651,2.051a1.577,1.577,0,0,0,1.324-.907l1.279.617a3,3,0,0,1-2.6,1.651,3.224,3.224,0,0,1-3.265-3.411,3.15,3.15,0,0,1,3.138-3.411,2.914,2.914,0,0,1,2.7,1.688Z" transform="translate(-251.151 -227.41)" fill="#fff"></path>
        <path id="Path_710" data-name="Path 710" d="M391.624,234.232a3.414,3.414,0,1,1,3.265-3.411A3.224,3.224,0,0,1,391.624,234.232Zm0-5.461c-.943,0-1.651.6-1.651,2.05,0,.943.381,2.051,1.651,2.051,1.2,0,1.651-1.053,1.651-2.051C393.274,229.805,392.821,228.771,391.624,228.771Z" transform="translate(-261.214 -227.41)" fill="#fff"></path>
        <path id="Path_711" data-name="Path 711" d="M408.066,237.8v-1.306h2.249V237.8Z" transform="translate(-273.364 -233.007)" fill="#fff"></path>
        <path id="Path_712" data-name="Path 712" d="M419.841,234.232a3.414,3.414,0,1,1,3.265-3.411A3.224,3.224,0,0,1,419.841,234.232Zm0-5.461c-.943,0-1.651.6-1.651,2.05,0,.943.381,2.051,1.651,2.051,1.2,0,1.65-1.053,1.65-2.051C421.491,229.805,421.038,228.771,419.841,228.771Z" transform="translate(-278.61 -227.41)" fill="#fff"></path>
        <path id="Path_713" data-name="Path 713" d="M436.13,227.883h3.2c1.741,0,2.385.907,2.385,2.186,0,.862-.481,2.187-2.693,2.187h-1.261v2.086H436.13Zm1.614,3.175H439.1a.907.907,0,0,0,1-.98c0-.644-.309-1-1.043-1h-1.315Z" transform="translate(-290.665 -227.702)" fill="#fff"></path>
        <path id="Path_714" data-name="Path 714" d="M452.659,234.342v-6.459h4.752v1.252h-3.138v1.18H457.2v1.252h-2.929v1.524h3.41v1.252Z" transform="translate(-300.855 -227.702)" fill="#fff"></path>
        <path id="Path_715" data-name="Path 715" d="M468.26,227.883h3.229c1.451,0,2.34.671,2.34,2.123a1.784,1.784,0,0,1-1.333,1.742l1.478,2.595h-1.805L470.9,232.02h-1.025v2.322H468.26Zm1.614,2.939h1.478a.871.871,0,0,0,0-1.742h-1.478Z" transform="translate(-310.473 -227.702)" fill="#fff"></path>
        <path id="Path_716" data-name="Path 716" d="M486.657,227.883h1.669l2.44,6.459h-1.732l-.326-1.016h-2.385l-.327,1.016h-1.723Zm1.659,4.246-.8-2.668H487.5l-.8,2.668Z" transform="translate(-320.345 -227.702)" fill="#fff"></path>
        <path id="Path_717" data-name="Path 717" d="M499.946,227.883h4.988v1.252h-1.687v5.208h-1.614v-5.208h-1.687Z" transform="translate(-330.007 -227.702)" fill="#fff"></path>
        <path id="Path_718" data-name="Path 718" d="M514.69,227.883H516.3v6.459H514.69Z" transform="translate(-339.097 -227.702)" fill="#fff"></path>
        <path id="Path_719" data-name="Path 719" d="M522.22,227.883h1.633l2.349,4.128h.018v-4.128h1.469v6.459h-1.614l-2.367-4.064h-.018v4.064h-1.47Z" transform="translate(-343.739 -227.702)" fill="#fff"></path>
        <path id="Path_720" data-name="Path 720" d="M543.886,229.614a1.655,1.655,0,0,0-1.524-.843c-.989,0-1.659.635-1.659,2.05,0,1.252.562,2.051,1.659,2.051A1.36,1.36,0,0,0,543.8,231.7h-1.433v-1.252h2.794v3.6H543.9v-.58a2.437,2.437,0,0,1-1.877.762c-1.95,0-2.939-1.415-2.939-3.384s1.061-3.439,3.165-3.439a3.34,3.34,0,0,1,2.975,1.615Z" transform="translate(-354.139 -227.41)" fill="#fff"></path>
    </g>
    <g id="Group_313" data-name="Group 313" transform="translate(114.664)">
        <path id="Path_721" data-name="Path 721" d="M372.763,105.923a15.647,15.647,0,0,0-2.071.315C371.356,106.126,372.043,106.019,372.763,105.923Z" transform="translate(-364.987 -87.126)" fill="none"></path>
        <path id="Path_722" data-name="Path 722" d="M495.011,110.1a3.787,3.787,0,1,0,3.961,3.56A3.761,3.761,0,0,0,495.011,110.1Z" transform="translate(-439.419 -89.696)" fill="#fff"></path>
        <path id="Path_723" data-name="Path 723" d="M496.408,95.1q1.526.062,3.053.09a.906.906,0,0,0,.948-.94,16.021,16.021,0,0,0-.4-2.187,1.024,1.024,0,0,0-1.157-.788c-.393.015-.787.046-1.18.071s-.787.04-1.18.074a1.065,1.065,0,0,0-1.087,1.241c.028.51.052,1.021.1,1.53A.981.981,0,0,0,496.408,95.1Z" transform="translate(-441.872 -78.098)" fill="#fff"></path>
        <path id="Path_724" data-name="Path 724" d="M517.786,122.987a.828.828,0,0,1-.133.032c-1.146.088-2.29.213-3.436.318a1.622,1.622,0,0,1-.249,0,6.063,6.063,0,0,1-1.836,3.078,30.359,30.359,0,0,0,6.923-1A3.291,3.291,0,0,1,517.786,122.987Z" transform="translate(-452.184 -97.643)" fill="#fff"></path>
        <ellipse id="Ellipse_17" data-name="Ellipse 17" cx="1.862" cy="1.862" rx="1.862" ry="1.862" transform="translate(67.049 23.346)" fill="#fff"></ellipse>
        <path id="Path_725" data-name="Path 725" d="M355.815,56.927V71.836c2.553-.679,11.042-2.382,24.793.3,8.873,1.733,17.234,7.023,24.994,10.375a6.539,6.539,0,0,1-.178-1.075,6.434,6.434,0,0,1,1.234-4.05,4.019,4.019,0,0,1-1.9.507c.424-.5.739-.929,1.112-1.3.571-.569,1.169-1.113,1.78-1.639a.87.87,0,0,0,.322-.806c-.1-1.432-.184-2.865-.272-4.319,0,0-.095-.952.8-1.019,2.435-.181,4.853-.3,7.266-.444a.878.878,0,0,1-.276,1.033.57.57,0,0,0-.154.467c.271,1.469.575,2.933.849,4.4.062.33.189.435.538.45,2.281.1,4.559.233,6.906.359-.1-1.583-.191-3.133-.288-4.712l1.187-.073.288,4.726,2.373-.145c.052,1.583.49,3.16-.429,4.63a3.294,3.294,0,0,1,1.263,2.585,3.331,3.331,0,0,1-.066.659c1.425-.664,2.81-1.4,4.2-2.185V56.927Z" transform="translate(-355.815 -56.927)" fill="#fff"></path>
        <path id="Path_726" data-name="Path 726" d="M361.52,105.748A58.2,58.2,0,0,0,355.815,107v4.834a61.692,61.692,0,0,1,36.209.34,96.345,96.345,0,0,0,16.248,3.894,6.158,6.158,0,0,1-1.537-1.4c-8-3.162-16.61-7.562-25.488-8.751a79.447,79.447,0,0,0-16.935-.574c-.24.029-.488.056-.722.087C362.871,105.529,362.184,105.636,361.52,105.748Z" transform="translate(-355.815 -86.636)" fill="#fff"></path>
    </g>
</svg>