<svg xmlns="http://www.w3.org/2000/svg" viewBox="0 0 636.19 124.64">
    <path d="M226 66.39v37.24h-15.1V71.95c0-12.83-4.2-19.65-12.72-19.65-4.65 0-13.06 3.06-13.06 16.92v34.41h-15.1V40.61h13.97v5.45c5-4.88 10.11-7.61 17.37-7.61 8.18 0 24.64 5.11 24.64 27.94Zm-78.36-25.78h15.56v63.01h-15.56V40.61Zm96.87 31.46c0 11.24 8.18 19.76 18.96 19.76 6.25 0 10.79-3.63 13.97-8.74h17.03c-5.33 14.42-17.14 22.6-31.57 22.6-18.62 0-33.5-15.33-33.5-33.84s14.87-33.38 33.38-33.38c14.19 0 26.8 8.52 31.68 23.05h-17.03c-3.29-5.9-7.72-9.2-14.65-9.2-10.67 0-18.28 8.52-18.28 19.76Zm-80.35-45.85c0 4.82-3.91 8.74-8.74 8.74s-8.74-3.91-8.74-8.74 3.91-8.74 8.74-8.74 8.74 3.91 8.74 8.74Zm371.1 12.24c-7.84 0-14.85 2.74-20.33 7.27v-5.11h-15.51v84.03h15.51V98.66c5.46 4.44 12.45 7.07 20.33 7.07 18.02 0 32.72-15.34 32.72-33.52s-14.26-33.75-32.72-33.75Zm-1.75 53.4c-11.26 0-19.28-9.09-19.28-19.54s8.14-20 19.4-20c10.66 0 19.4 9.32 19.4 19.89s-8.14 19.66-19.52 19.66Zm-54.79-46.14c-5.49-4.53-12.49-7.27-20.33-7.27-18.46 0-32.72 15.57-32.72 33.75s14.7 33.52 32.72 33.52c7.89 0 14.88-2.63 20.33-7.07v5.02h15.51V40.61h-15.51v5.11Zm-18.59 46.14c-11.37 0-19.52-9.09-19.52-19.66s8.74-19.89 19.4-19.89c11.25 0 19.4 9.66 19.4 20s-8.02 19.54-19.28 19.54Zm176.06-20.59c0-18.4-14.31-32.82-32.59-32.82-19.19 0-33.16 15.22-33.16 33.84s14.31 33.38 33.27 33.38c13.4 0 26.34-9.2 30.43-21.92h-15.9c-3.06 5.57-8.29 8.06-14.53 8.06-9.31 0-16.24-7.38-17.37-12.94h48.94c.57-2.72.91-5.23.91-7.61Zm-50.3-4.54c2.38-9.65 9.42-14.42 17.71-14.42 9.43 0 15.67 5.34 17.15 14.42h-34.86Zm-213.13 5.34c0 11.24 8.18 19.76 18.96 19.76 6.25 0 10.79-3.63 13.97-8.74h17.03c-5.34 14.42-17.14 22.6-31.57 22.6-18.62 0-33.5-15.33-33.5-33.84s14.87-33.38 33.39-33.38c14.19 0 26.79 8.52 31.68 23.05h-17.03c-3.29-5.9-7.72-9.2-14.65-9.2-10.68 0-18.28 8.52-18.28 19.76Zm-18.62-6.93v38.49h-15.1V70.81c0-13.06-4.31-18.51-12.95-18.51s-12.72 6.13-12.72 18.74v32.59h-15.1V19.61h15.1v25.43c4.65-4.43 9.88-6.59 16.35-6.59 7.61 0 24.41 5.34 24.41 26.68Z" fill="white"></path>
    <path d="M124.12 62.06C124.12 27.79 96.33 0 62.06 0S0 27.79 0 62.06s25.75 59.97 58.25 61.93c6.14-5.16 25.05-23.44 25.05-53.04.09-8.46-2.78-23.29-7.99-31.49l21.98-7.5s13.82 14.48 17.55 36.9c0 0 2.31 14.8-1.09 27.52 6.55-9.83 10.37-21.63 10.37-34.33Zm-55-32.44s-6.13-9.51-20.86-18.75c0 0 21.41-.27 39.27 12.53l-18.41 6.23Z" fill="white"></path>
</svg>