<svg xmlns="http://www.w3.org/2000/svg" xmlns:svg="http://www.w3.org/2000/svg" viewBox="-0.03 0 94.12 35.93">

 <g class="layer">
  <title>Layer 1</title>
  <path d="m65.08,3.97c-1.84,-1.98 -2.86,-3.02 -3.53,-3.97c-3.18,0.23 -8.55,0.33 -14.52,0.33c-4.71,0 -9.04,-0.06 -12.22,-0.2q-1.29,-0.06 -2.29,-0.13c-0.68,0.95 -1.69,2 -3.54,3.97c-2.24,2.41 -4.47,3.96 -4.47,3.96s2.07,1.45 4.47,3.97c1.86,1.95 2.86,3.01 3.54,3.97c3.17,-0.24 8.54,-0.33 14.51,-0.33s11.34,0.09 14.52,0.33c0.68,-0.96 1.67,-2.02 3.54,-3.97c2.4,-2.52 4.47,-3.97 4.47,-3.97s-2.23,-1.55 -4.47,-3.96m-2.08,25.62c1.01,0 1.81,0.29 2.4,0.86q0.95,0.91 0.95,2.33c0,0.58 -0.15,1.13 -0.46,1.63c-0.59,1 -1.55,1.49 -2.89,1.49q-1.51,-0.01 -2.39,-0.87a3.1,3.1 0 0 1 -0.73,-1.1a3.3,3.3 0 0 1 -0.22,-1.2c0,-0.61 0.15,-1.17 0.45,-1.68q0.86,-1.45 2.88,-1.47m-0.02,5.15c1.13,0 2.05,-0.89 2.05,-1.99c0,-1.1 -0.92,-1.99 -2.05,-1.99s-2.05,0.89 -2.05,1.99s0.92,1.99 2.05,1.99m-39.25,-4.67a1.7,1.7 0 0 0 -0.66,-0.3c-0.25,-0.07 -0.58,-0.09 -1.01,-0.09l-3.47,0l0,0.07l0.07,0.07c0.04,0.05 0.05,0.16 0.05,0.26l0,5.35a0.6,0.6 0 0 1 -0.05,0.24c-0.02,0.02 -0.04,0.05 -0.07,0.08l0,0.07l1.53,0l0,-0.07s-0.06,-0.05 -0.07,-0.08c-0.04,-0.05 -0.06,-0.15 -0.06,-0.24l0,-2.12l2.08,0c0.54,0 0.95,-0.06 1.25,-0.16c0.3,-0.12 0.54,-0.3 0.72,-0.57c0.21,-0.31 0.32,-0.67 0.32,-1.08q0,-0.42 -0.17,-0.81a1.6,1.6 0 0 0 -0.46,-0.6l0,-0.02zm-1,1.96c-0.18,0.1 -0.42,0.13 -0.81,0.13l-1.94,0l0,-1.39l1.94,0c0.39,0 0.61,0.02 0.81,0.13c0.15,0.07 0.34,0.27 0.34,0.58a0.61,0.61 0 0 1 -0.33,0.56l-0.01,-0.01zm20.03,3.3l0,-5.25c0,-0.09 0.02,-0.18 0.05,-0.23c0,-0.02 0.02,-0.03 0.03,-0.04a0.2,0.2 0 0 1 0.04,-0.05l0,-0.07l-1.51,0l0,0.07s0.06,0.05 0.07,0.08c0.04,0.05 0.06,0.15 0.06,0.24l0,3.6l-3.11,-3.4c-0.12,-0.15 -0.15,-0.24 -0.13,-0.38q0,-0.08 0.07,-0.13l0,-0.07l-1.7,0l0,0.07s0.05,0.05 0.07,0.08c0.05,0.05 0.05,0.17 0.05,0.25l0,5.23c0,0.17 -0.01,0.23 -0.05,0.3a0.5,0.5 0 0 1 -0.07,0.12l0,0.06l1.52,0l0,-0.06s-0.06,-0.07 -0.07,-0.09c-0.04,-0.06 -0.06,-0.17 -0.06,-0.32l0,-3.59l3.15,3.42c0.14,0.14 0.19,0.25 0.22,0.3c0.07,0.15 0.01,0.24 -0.04,0.28l0,0.06l1.53,0l0,-0.06s-0.07,-0.08 -0.1,-0.12c-0.04,-0.07 -0.03,-0.19 -0.03,-0.28l0.01,-0.02zm-38.99,-5.58s0.06,0.06 0.07,0.08c0.04,0.05 0.06,0.15 0.06,0.24l0,3.45c0,0.64 -0.15,0.89 -0.58,1.06c-0.18,0.07 -0.56,0.11 -0.74,0.1c-0.45,-0.02 -0.93,-0.21 -1.13,-0.42c-0.09,-0.09 -0.3,-0.33 -0.23,-0.44l-0.03,-0.06l-1.2,0.62l0.03,0.06s0.06,0.02 0.08,0.03c0.05,0.03 0.13,0.19 0.2,0.27c0.11,0.17 0.23,0.3 0.41,0.47c0.52,0.47 1.24,0.62 1.93,0.63l0.07,0c0.88,-0.01 1.46,-0.23 1.81,-0.52c0.31,-0.25 0.44,-0.52 0.52,-0.72c0.09,-0.19 0.11,-0.41 0.12,-0.65l0,-3.89c0,-0.09 0.01,-0.17 0.05,-0.22q0.03,-0.05 0.07,-0.08l0,-0.07l-1.53,0l0,0.07l0.02,-0.01zm52.59,0.08s0.04,-0.06 0.07,-0.09l0,-0.06l-1.53,0l0,0.06s0.06,0.06 0.08,0.08c0.04,0.05 0.05,0.16 0.05,0.24l0,1.96l-3.35,0l0,-1.95c0,-0.09 0.04,-0.18 0.06,-0.23c0.02,-0.03 0.03,-0.06 0.06,-0.09l0,-0.07l-1.52,0l0,0.07s0.06,0.06 0.07,0.08c0.04,0.05 0.06,0.15 0.06,0.24l0,5.35a0.5,0.5 0 0 1 -0.06,0.24c-0.01,0.02 -0.04,0.05 -0.06,0.09l0,0.06l1.52,0l0,-0.06s-0.05,-0.06 -0.07,-0.08c-0.04,-0.05 -0.06,-0.16 -0.06,-0.25l0,-2.25l3.35,0l0,2.26a0.6,0.6 0 0 1 -0.05,0.23c-0.02,0.03 -0.04,0.06 -0.07,0.09l0,0.07l1.53,0l0,-0.07s-0.06,-0.05 -0.08,-0.08c-0.04,-0.05 -0.05,-0.15 -0.05,-0.24l0,-5.35c0,-0.09 0.03,-0.18 0.05,-0.23l0,-0.02zm27.98,2.95c-0.26,-0.18 -0.64,-0.33 -1.15,-0.44l-1.16,-0.25c-0.45,-0.1 -0.89,-0.18 -1.03,-0.25c-0.21,-0.11 -0.34,-0.27 -0.34,-0.48c0,-0.34 0.29,-0.76 1.35,-0.76c0.4,0 0.76,0.07 1.11,0.18c0.17,0.04 0.57,0.16 0.73,0.32c0.07,0.07 0.07,0.11 0.07,0.21l0.06,0.03l0.65,-1.21l-0.06,-0.03s-0.06,0.02 -0.14,0.01c-0.09,0 -0.23,-0.08 -0.39,-0.14a5.84,5.84 0 0 0 -1.92,-0.39c-1.04,0 -1.63,0.24 -2.01,0.53a1.62,1.62 0 0 0 -0.66,1.34c0,0.59 0.26,0.98 0.6,1.2c0.3,0.21 0.92,0.42 1.62,0.55l0.72,0.15c0.42,0.08 0.81,0.17 1,0.28q0.29,0.16 0.29,0.46c0,0.34 -0.27,0.48 -0.67,0.6c-0.21,0.06 -0.47,0.09 -0.81,0.09s-0.79,-0.08 -1.08,-0.16c-0.25,-0.07 -0.54,-0.17 -0.75,-0.26a1.1,1.1 0 0 1 -0.37,-0.23a0.2,0.2 0 0 1 -0.05,-0.11l-0.06,-0.03l-0.54,1.29l0.06,0.02s0.04,-0.01 0.08,-0.02a0.75,0.75 0 0 1 0.37,0.1s0.54,0.23 0.91,0.33c0.37,0.09 0.83,0.19 1.48,0.19c0.98,0 1.6,-0.25 1.98,-0.54c0.47,-0.36 0.7,-0.82 0.7,-1.36c0,-0.55 -0.19,-0.95 -0.59,-1.23l0,0.01zm-10.18,-3.01s0.06,0.06 0.07,0.08c0.04,0.05 0.06,0.16 0.06,0.25l0,3.03q0,0.53 -0.06,0.78a0.86,0.86 0 0 1 -0.21,0.42c-0.27,0.3 -0.73,0.45 -1.39,0.45c-0.66,0 -1.13,-0.16 -1.39,-0.45a0.86,0.86 0 0 1 -0.21,-0.42q-0.06,-0.26 -0.06,-0.78l0,-3.02c0,-0.09 0.03,-0.19 0.06,-0.24l0.06,-0.09l0,-0.06l-1.51,0l0,0.06s0.05,0.06 0.07,0.08c0.04,0.05 0.05,0.16 0.05,0.24l0,3.5c0,0.43 0.06,0.8 0.17,1.11c0.11,0.31 0.3,0.55 0.59,0.74c0.49,0.31 1.2,0.47 2.13,0.47l0.08,0c0.93,0 1.63,-0.16 2.13,-0.47a1.43,1.43 0 0 0 0.59,-0.74q0.16,-0.47 0.16,-1.11l0,-3.5c0,-0.09 0.04,-0.19 0.06,-0.24q0.03,-0.04 0.07,-0.09l0,-0.06l-1.53,0l0,0.07l0.01,-0.01zm19.76,4.96c-0.04,0.04 -0.15,0.05 -0.24,0.05l-3.79,0l0,-1.58l3.27,0a0.5,0.5 0 0 1 0.23,0.05q0.04,0.03 0.09,0.07l0.06,0l0,-1.37l-0.06,0a0.6,0.6 0 0 1 -0.08,0.07c-0.05,0.04 -0.15,0.05 -0.24,0.05l-3.27,0l0,-1.38l3.69,0c0.08,0 0.17,0.04 0.23,0.06c0.02,0.02 0.06,0.03 0.09,0.07l0.06,0l0,-1.26l-0.06,0s-0.06,0.05 -0.08,0.07c-0.05,0.04 -0.16,0.06 -0.24,0.06l-5.1,0l0,0.06s0.05,0.05 0.08,0.08c0.04,0.06 0.05,0.15 0.05,0.32l0,5.16c0,0.19 -0.01,0.25 -0.05,0.31a0.3,0.3 0 0 1 -0.08,0.09l0,0.07l5.19,0a0.5,0.5 0 0 1 0.24,0.06c0.02,0.01 0.05,0.04 0.09,0.06l0.06,0l0,-1.26l-0.06,0a0.6,0.6 0 0 1 -0.08,0.07l0,0.02zm-60.62,0.83c-0.06,-0.08 -0.14,-0.27 -0.22,-0.46l-2.21,-4.7a1,1 0 0 1 -0.1,-0.34c-0.01,-0.15 -0.02,-0.25 0.03,-0.29l0,-0.07l-1.59,0l0,0.07c0.06,0.04 0.05,0.13 0.04,0.3a1.4,1.4 0 0 1 -0.12,0.42l-2.03,4.44l-0.11,0.24c-0.07,0.16 -0.16,0.34 -0.19,0.38c-0.04,0.06 -0.12,0.16 -0.16,0.16l0,0.08l1.63,0l0,-0.07a0.42,0.42 0 0 1 -0.12,-0.33c0,-0.07 0.03,-0.17 0.08,-0.28l0.08,-0.19l0.32,-0.69l2.64,0l0.41,0.9c0.08,0.16 0.09,0.29 0.08,0.38a0.4,0.4 0 0 1 -0.13,0.21l0,0.07l1.82,0l0,-0.08s-0.11,-0.1 -0.16,-0.16l0.01,0.01zm-2.49,-2.38l-1.7,0l0.85,-1.95zl0.85,1.95z" fill="white" id="svg_1" xmlns="http://www.w3.org/2000/svg"/>
  <path d="m33.3,35.55c-0.06,-0.08 -0.14,-0.27 -0.22,-0.46l-2.21,-4.7c-0.06,-0.1 -0.08,-0.26 -0.1,-0.34c-0.01,-0.07 -0.02,-0.25 0.03,-0.29l0,-0.07l-1.59,0l0,0.07c0.06,0.04 0.05,0.2 0.04,0.3a1.5,1.5 0 0 1 -0.12,0.42l-2.03,4.44l-0.11,0.24c-0.07,0.16 -0.16,0.34 -0.19,0.38c-0.04,0.06 -0.12,0.16 -0.16,0.16l0,0.08l1.63,0l0,-0.07a0.42,0.42 0 0 1 -0.12,-0.33c0,-0.07 0.03,-0.17 0.08,-0.28l0.08,-0.19l0.32,-0.69l2.64,0l0.41,0.9c0.08,0.16 0.09,0.29 0.08,0.38a0.4,0.4 0 0 1 -0.13,0.21l0,0.07l1.82,0l0,-0.08s-0.11,-0.1 -0.16,-0.16l0.01,0.01zm-3.34,-4.33l0.85,1.95l-1.7,0l0.85,-1.95zm-14.85,4.33c-0.06,-0.08 -0.14,-0.27 -0.22,-0.46l-2.21,-4.7a1,1 0 0 1 -0.1,-0.34c-0.01,-0.15 -0.02,-0.25 0.03,-0.29l0,-0.07l-1.59,0l0,0.07c0.06,0.04 0.05,0.13 0.04,0.3a1.4,1.4 0 0 1 -0.12,0.42l-2.03,4.44l-0.11,0.24c-0.07,0.16 -0.16,0.34 -0.19,0.38c-0.04,0.06 -0.12,0.16 -0.16,0.16l0,0.08l1.63,0l0,-0.07a0.43,0.43 0 0 1 -0.12,-0.33c0,-0.07 0.03,-0.17 0.08,-0.28l0.08,-0.19l0.32,-0.69l2.63,0l0.42,0.9c0.08,0.16 0.09,0.29 0.08,0.38a0.4,0.4 0 0 1 -0.13,0.21l0,0.07l1.82,0l0,-0.08s-0.11,-0.1 -0.16,-0.16l0.01,0.01zm-3.33,-4.33l0.84,1.95l-1.7,0l0.86,-1.95z" fill="white" id="svg_2" xmlns="http://www.w3.org/2000/svg"/>
  <path d="m15.11,35.55c-0.06,-0.08 -0.14,-0.27 -0.22,-0.46l-2.21,-4.7c-0.06,-0.1 -0.08,-0.26 -0.1,-0.34c-0.01,-0.07 -0.02,-0.25 0.03,-0.29l0,-0.07l-1.59,0l0,0.07c0.06,0.04 0.05,0.2 0.04,0.3a1.5,1.5 0 0 1 -0.12,0.42l-2.03,4.44l-0.11,0.24c-0.07,0.16 -0.16,0.34 -0.19,0.38c-0.04,0.06 -0.12,0.16 -0.16,0.16l0,0.08l1.63,0l0,-0.07a0.43,0.43 0 0 1 -0.12,-0.33c0,-0.07 0.03,-0.17 0.08,-0.28l0.08,-0.19l0.32,-0.69l2.63,0l0.42,0.9c0.08,0.16 0.09,0.29 0.08,0.38a0.4,0.4 0 0 1 -0.13,0.21l0,0.07l1.82,0l0,-0.08s-0.11,-0.1 -0.16,-0.16l0.01,0.01zm-3.33,-4.33l0.84,1.95l-1.7,0l0.86,-1.95z" fill="white" id="svg_3" xmlns="http://www.w3.org/2000/svg"/>
 </g>
</svg>
