<svg viewBox="0 0 152 33" fill="none" xmlns="http://www.w3.org/2000/svg">
    <path d="M150.863 23.5831C149.927 23.5214 145.837 23.8231 138.287 18.7778C137.446 18.2162 134.663 21.753 133.94 22.5833C133.791 22.7551 133.512 22.6141 133.56 22.3917L134.017 20.2753C134.331 18.8659 131.837 18.2449 130.538 18.007C130.367 17.9762 130.191 18.0379 130.074 18.17C122.266 27.1001 114.624 30.2977 112.428 27.8621C112.316 27.7387 112.283 27.5714 112.426 27.4833C122.083 21.4623 118.597 16.3619 114.041 16.2761C110.204 16.2034 105.604 19.9252 107.444 27.2675C107.466 27.3578 107.4 27.4458 107.314 27.4833C105.45 28.2563 92.5208 32.5969 97.7691 20.7576C102.545 9.98204 113.694 3.35109 106.806 0.129205C106.633 0.0477217 106.426 0.0829567 106.292 0.219496C99.5317 7.15657 97.9142 17.7075 85.0286 26.3645C77.7737 31.2381 77.321 25.4264 78.2221 23.1955C83.2264 10.8101 96.4461 3.55369 88.8374 0.0411146C88.6791 -0.0315594 88.4945 -0.00733529 88.3648 0.109384C84.9671 3.13306 77.0089 16.2342 75.9276 18.4629C73.776 22.9026 57.2245 34.7573 63.1629 23.0259C64.5189 20.3458 61.0992 18.8571 60.4267 19.346C57.8245 21.2333 35.6445 39.3424 47.2334 20.2203C48.3631 18.355 45.8312 17.0601 43.5961 17.364C38.2994 18.3219 33.9346 20.7334 29.5303 23.7395C29.3413 23.8694 29.1061 23.6558 29.2138 23.4554C30.1391 21.742 32.3632 17.7361 34.0599 15.0142C36.2951 11.4267 31.0138 8.60564 15.4799 18.7117C15.2557 18.8571 15.0118 18.551 15.2074 18.3682C16.5502 17.1173 17.9216 15.8907 19.3062 14.6816C22.704 11.7152 18.9348 9.79706 18.2073 9.56142C18.0535 9.51076 17.8865 9.55261 17.77 9.66272C0.455893 26.2897 -1.99244 32.0001 1.19215 32.4648C9.36349 33.654 10.6382 23.1933 28.5083 14.6244C28.6995 14.5319 28.8973 14.7389 28.7962 14.9261C26.4095 19.4209 21.7963 27.2741 22.8842 28.6747C23.2381 29.1328 26.5963 30.2339 29.838 27.7035C37.3852 21.8147 39.6313 20.9977 41.3192 20.4295C41.5082 20.3656 41.6752 20.566 41.5807 20.7422C30.2863 41.7472 54.163 26.8336 57.7234 24.453C57.8794 24.3495 58.1476 24.497 58.0619 24.6644C50.2004 39.7982 70.5782 26.4945 73.7232 23.7791C73.8749 23.6492 74.1056 23.7747 74.0815 23.9729C73.176 31.6653 77.3474 32.6894 82.2418 30.3902C86.1495 28.5536 91.0066 23.887 92.7824 22.1296C92.9406 21.9733 93.1999 22.123 93.1472 22.3388C91.6659 28.4413 93.5955 35.6712 108.162 29.3926C108.255 29.353 108.36 29.3794 108.424 29.4565C114.373 36.5389 125.866 24.8208 128.705 22.493C128.857 22.3675 129.083 22.493 129.063 22.6868L127.044 31.0509C127.028 31.2161 127.092 31.4033 127.246 31.4649C130.982 32.9515 133.386 28.2541 137.147 23.9619C137.349 23.7307 137.65 23.6183 137.936 23.7351C151.166 29.1372 152.527 23.6294 150.861 23.5853L150.863 23.5831ZM111.171 25.4792C109.984 16.6725 121.345 19.2491 111.496 25.6664C111.358 25.7567 111.193 25.6422 111.171 25.4792Z" fill="white"></path>
    <path d="M66.9034 14.3843C67.343 14.1553 68.8814 13.1159 69.2111 11.0964C69.4177 9.72441 68.0968 8.54842 67.0265 8.24671C64.9782 7.66972 62.7101 16.5778 66.9034 14.3821V14.3843Z" fill="white"></path>
</svg>