<?xml version="1.0" encoding="UTF-8"?>
<svg version="1.1" xmlns="http://www.w3.org/2000/svg" viewBox="0 0 401 158">
<path d="M0 0 C1.17730179 0.00280975 1.17730179 0.00280975 2.37838745 0.00567627 C4.03078486 0.01237621 5.68316696 0.02624967 7.33544922 0.046875 C9.86570973 0.07810676 12.3953468 0.08785727 14.92578125 0.09375 C16.53386177 0.10291787 18.14193596 0.11329295 19.75 0.125 C20.88443039 0.13137482 20.88443039 0.13137482 22.04177856 0.13787842 C25.19858091 0.18093619 27.72596396 0.32271715 30.7421875 1.328125 C31.2371875 2.318125 31.2371875 2.318125 31.7421875 3.328125 C33.45599366 4.36369797 33.45599366 4.36369797 35.7421875 4.328125 C36.61423828 3.68166016 37.48628906 3.03519531 38.38476562 2.36914062 C42.30858132 -0.01619236 45.32112588 -0.25348882 49.7734375 -0.203125 C50.52757935 -0.2069519 51.28172119 -0.21077881 52.05871582 -0.21472168 C53.6454401 -0.21743094 55.23220979 -0.21013895 56.81884766 -0.19335938 C59.23572163 -0.17193232 61.64962378 -0.19319119 64.06640625 -0.21875 C65.61458984 -0.21610654 67.16277159 -0.21098119 68.7109375 -0.203125 C69.42672974 -0.21122192 70.14252197 -0.21931885 70.88000488 -0.22766113 C76.71003738 -0.11970396 80.22963709 1.88875567 84.3515625 5.890625 C88.31875934 10.89037992 89.99388937 13.85125068 89.98269653 20.27593994 C89.98544586 21.49307678 89.98819519 22.71021362 89.99102783 23.9642334 C89.98395007 25.30981544 89.97668046 26.65539649 89.96923828 28.00097656 C89.96867403 29.42026766 89.96899099 30.83955934 89.97012329 32.2588501 C89.97069728 36.10978124 89.95893554 39.96058786 89.94497538 43.81149006 C89.9324757 47.83670229 89.93129812 51.86191735 89.92892456 55.887146 C89.92270755 63.50855649 89.90629374 71.12990962 89.88622558 78.75129485 C89.86387346 87.42836077 89.85287488 96.10542942 89.84283471 104.78251696 C89.82192771 122.63108639 89.78634471 140.47959898 89.7421875 158.328125 C85.7821875 158.328125 81.8221875 158.328125 77.7421875 158.328125 C77.73410065 156.59560486 77.72601379 154.86308472 77.71768188 153.07806396 C77.64029459 136.77375232 77.55269239 120.46952596 77.45466042 104.16532516 C77.40452083 95.78259865 77.35807807 87.39988199 77.3203125 79.01708984 C77.28738989 71.71135979 77.24755719 64.40570584 77.19939744 57.10005975 C77.1741351 53.23113597 77.15235306 49.36226266 77.13884354 45.4932785 C77.12602074 41.85221499 77.10396408 38.21132457 77.07480431 34.57035637 C77.06140119 32.59591375 77.05780744 30.6214122 77.05448914 28.64692688 C77.04332565 27.47186081 77.03216217 26.29679474 77.0206604 25.08612061 C77.01512964 24.06477398 77.00959888 23.04342735 77.00390053 21.99113083 C76.73526526 19.25768918 76.23273481 17.6194341 74.7421875 15.328125 C73.7521875 14.833125 73.7521875 14.833125 72.7421875 14.328125 C72.7421875 13.668125 72.7421875 13.008125 72.7421875 12.328125 C68.32455773 12.37992899 63.90889368 12.47499379 59.4921875 12.578125 C57.61080078 12.59939453 57.61080078 12.59939453 55.69140625 12.62109375 C54.48613281 12.65332031 53.28085938 12.68554688 52.0390625 12.71875 C50.92885742 12.73969727 49.81865234 12.76064453 48.67480469 12.78222656 C45.02629205 13.46138692 44.02887818 14.44618327 41.7421875 17.328125 C41.13908329 20.07965164 41.13908329 20.07965164 41.22320557 23.16204834 C41.20233635 24.94988991 41.20233635 24.94988991 41.18104553 26.77384949 C41.18859108 28.72995903 41.18859108 28.72995903 41.19628906 30.72558594 C41.18755323 32.11533261 41.17706741 33.50506923 41.16496277 34.89479065 C41.13708273 38.66517461 41.13369851 42.43523071 41.13468266 46.20570278 C41.13155524 50.14691463 41.10594066 54.08797843 41.08270264 58.02911377 C41.04212582 65.49112289 41.02179802 72.9530446 41.00872874 80.41514707 C40.99286435 88.91092448 40.95445114 97.406553 40.91413546 105.90224409 C40.83171352 123.37749709 40.77843564 140.8527174 40.7421875 158.328125 C36.4521875 158.328125 32.1621875 158.328125 27.7421875 158.328125 C26.4182293 155.6802086 26.61929857 153.70105543 26.62193298 150.73471069 C26.62055832 149.54556564 26.61918365 148.35642059 26.61776733 147.13124084 C26.62316025 145.16434547 26.62316025 145.16434547 26.62866211 143.15771484 C26.62894407 141.76827496 26.62878608 140.37883493 26.6282196 138.98939514 C26.62793196 135.21069549 26.63382337 131.43202739 26.64079356 127.65333509 C26.64703258 123.70684944 26.64763133 119.76036311 26.64881897 115.81387329 C26.65193066 108.3376222 26.66014188 100.86138568 26.67016846 93.38514102 C26.68133461 84.87498044 26.68684131 76.36481919 26.69186389 67.85465312 C26.70232462 50.34580198 26.71992095 32.83696503 26.7421875 15.328125 C26.0821875 15.328125 25.4221875 15.328125 24.7421875 15.328125 C24.7421875 14.668125 24.7421875 14.008125 24.7421875 13.328125 C20.67970261 13.29902731 16.61724464 13.28129326 12.5546875 13.265625 C11.40419922 13.25724609 10.25371094 13.24886719 9.06835938 13.24023438 C7.95654297 13.23701172 6.84472656 13.23378906 5.69921875 13.23046875 C4.16744995 13.22261353 4.16744995 13.22261353 2.60473633 13.21459961 C-0.20405364 13.32599299 -2.5844599 13.4453131 -5.2578125 14.328125 C-7.40970907 17.55436775 -7.51576673 20.30761191 -7.5362854 24.12408447 C-7.54744888 25.3075647 -7.55861237 26.49104492 -7.57011414 27.71038818 C-7.57227432 29.00511047 -7.57443451 30.29983276 -7.57666016 31.63378906 C-7.5859603 33.01367784 -7.5961291 34.393561 -7.60710144 35.7734375 C-7.63440595 39.51687098 -7.64955215 43.26026681 -7.66252947 47.00377369 C-7.67815805 50.9169274 -7.70494914 54.83000422 -7.7305603 58.74310303 C-7.77735294 66.15196126 -7.81409469 73.56083395 -7.84723318 80.96976447 C-7.88545114 89.40505257 -7.93486215 97.84026345 -7.98521733 106.27548647 C-8.0885444 123.62631107 -8.17740524 140.97717959 -8.2578125 158.328125 C-12.5478125 158.328125 -16.8378125 158.328125 -21.2578125 158.328125 C-21.44321217 139.44768041 -21.58587429 120.56749394 -21.67230988 101.68632603 C-21.71351508 92.91890486 -21.76966511 84.15206058 -21.86132812 75.38500977 C-21.94120844 67.74124679 -21.99271168 60.0979017 -22.01052046 52.45373291 C-22.02092677 48.40806225 -22.0452812 44.36358678 -22.10365295 40.31830025 C-22.15822336 36.5053264 -22.17465292 32.69403217 -22.16267395 28.88070488 C-22.1648631 27.48630496 -22.18062167 26.09184509 -22.2114563 24.69778442 C-22.35938473 17.66074136 -22.21369571 12.6094866 -17.5135498 7.11412048 C-12.04119924 1.68986641 -7.65881404 -0.12570729 0 0 Z " fill="#FFFFFF" transform="translate(22.2578125,-0.328125)"/>
<path d="M0 0 C0.80277878 -0.00524185 1.60555756 -0.0104837 2.43266296 -0.0158844 C4.1314478 -0.0223065 5.83027709 -0.02096513 7.52905273 -0.01245117 C10.11719001 -0.00397024 12.70309812 -0.03264962 15.29101562 -0.06445312 C16.94400976 -0.0660661 18.59700778 -0.06548577 20.25 -0.0625 C21.01895096 -0.07373398 21.78790192 -0.08496796 22.58015442 -0.09654236 C28.52488385 -0.02021495 32.0984057 1.78717331 36.43359375 5.99609375 C40.40079059 10.99584867 42.07592062 13.95671943 42.06472778 20.38140869 C42.06747711 21.59854553 42.07022644 22.81568237 42.07305908 24.06970215 C42.06598132 25.41528419 42.05871171 26.76086524 42.05126953 28.10644531 C42.05070528 29.52573641 42.05102224 30.94502809 42.05215454 32.36431885 C42.05272853 36.21524999 42.04096679 40.06605661 42.02700663 43.91695881 C42.01450695 47.94217104 42.01332937 51.9673861 42.01095581 55.99261475 C42.0047388 63.61402524 41.98832499 71.23537837 41.96825683 78.8567636 C41.94590471 87.53382952 41.93490613 96.21089817 41.92486596 104.88798571 C41.90395896 122.73655424 41.86877868 140.58506938 41.82421875 158.43359375 C35.1534856 158.61195375 28.48337314 158.73402926 21.81079102 158.81811523 C19.54395572 158.85318855 17.2772773 158.9008618 15.01098633 158.96166992 C11.74130452 159.04716589 8.47372561 159.0864144 5.203125 159.1171875 C4.19963516 159.1533165 3.19614532 159.1894455 2.1622467 159.22666931 C-4.54800779 159.23036375 -8.20529437 157.70504411 -13.3118372 153.3499136 C-19.99327987 146.48072609 -20.92039645 139.76331284 -20.8046875 130.4609375 C-20.80709946 129.33845108 -20.80951141 128.21596466 -20.81199646 127.0594635 C-20.81102167 124.69870451 -20.79771684 122.33792161 -20.77270508 119.97729492 C-20.73834669 116.37794901 -20.75208119 112.78105499 -20.77148438 109.18164062 C-20.76458636 106.87889587 -20.75491439 104.57615741 -20.7421875 102.2734375 C-20.74714737 101.20552475 -20.75210724 100.137612 -20.75721741 99.03733826 C-20.62892062 90.84335463 -18.69620958 84.92946675 -13.30078125 78.55859375 C-12.84960938 78.00429687 -12.3984375 77.45 -11.93359375 76.87890625 C-7.36463407 73.12220607 -1.80189403 73.15645924 3.84765625 73.23828125 C4.59383209 73.24111115 5.34000793 73.24394104 6.10879517 73.24685669 C8.47243863 73.25797688 10.83569143 73.28306554 13.19921875 73.30859375 C14.80989033 73.31863413 16.4205679 73.32775813 18.03125 73.3359375 C21.96238819 73.35788935 25.89323742 73.3923619 29.82421875 73.43359375 C29.7572247 65.83439863 29.66741975 58.23571822 29.56176758 50.63696289 C29.52851764 48.05206421 29.50048598 45.46709291 29.4777832 42.88208008 C29.44423948 39.16586366 29.39192147 35.45031274 29.3359375 31.734375 C29.32954758 30.57899734 29.32315765 29.42361969 29.3165741 28.23323059 C29.28688286 26.61211617 29.28688286 26.61211617 29.2565918 24.95825195 C29.23993721 23.53595024 29.23993721 23.53595024 29.22294617 22.08491516 C28.74752254 18.92360547 27.68379567 17.01377559 25.82421875 14.43359375 C21.48128265 12.2621257 15.65698315 13.20392519 10.88671875 13.18359375 C9.68080078 13.16296875 8.47488281 13.14234375 7.23242188 13.12109375 C5.50088867 13.11335937 5.50088867 13.11335937 3.734375 13.10546875 C2.14314819 13.0914502 2.14314819 13.0914502 0.51977539 13.07714844 C-2.19434816 13.20647543 -2.19434816 13.20647543 -3.98266602 14.82910156 C-6.03975866 17.59546392 -6.31475672 19.39833938 -6.38110352 22.79150391 C-6.40104874 23.69228668 -6.42099396 24.59306946 -6.44154358 25.52114868 C-6.46661232 26.98214493 -6.46661232 26.98214493 -6.4921875 28.47265625 C-6.5129686 29.46864838 -6.53374969 30.4646405 -6.55516052 31.49081421 C-6.62067167 34.68000229 -6.67954829 37.86927433 -6.73828125 41.05859375 C-6.78146498 43.21745668 -6.82507922 45.37631105 -6.86914062 47.53515625 C-6.97635461 52.83454605 -7.0781181 58.13401981 -7.17578125 63.43359375 C-9.30050701 63.48746004 -11.42561777 63.52632446 -13.55078125 63.55859375 C-14.73414063 63.58179688 -15.9175 63.605 -17.13671875 63.62890625 C-20.17578125 63.43359375 -20.17578125 63.43359375 -22.17578125 61.43359375 C-21.51578125 61.43359375 -20.85578125 61.43359375 -20.17578125 61.43359375 C-20.18910492 60.61459595 -20.18910492 60.61459595 -20.20269775 59.77905273 C-20.29156404 54.06846645 -20.35167738 48.35807834 -20.39550781 42.64697266 C-20.41555593 40.51896173 -20.44280179 38.39100543 -20.47753906 36.26318359 C-20.52635673 33.19484942 -20.54881851 30.12724702 -20.56640625 27.05859375 C-20.58705139 26.11556396 -20.60769653 25.17253418 -20.62896729 24.20092773 C-20.63107861 17.90918526 -19.34718979 13.81776397 -16.17578125 8.43359375 C-15.48537551 6.77661996 -14.80606712 5.11435606 -14.17578125 3.43359375 C-13.18578125 3.43359375 -12.19578125 3.43359375 -11.17578125 3.43359375 C-10.78753174 2.94753662 -10.39928223 2.46147949 -9.99926758 1.96069336 C-7.06400016 -0.49748011 -3.6606806 -0.01386594 0 0 Z M-5.17578125 89.43359375 C-8.03628208 93.97239182 -7.48157914 99.40025784 -7.4765625 104.58984375 C-7.48084763 105.56973267 -7.48513275 106.54962158 -7.48954773 107.5592041 C-7.49527979 109.6268639 -7.49579958 111.69454385 -7.49145508 113.76220703 C-7.4882923 116.92255031 -7.51177837 120.08195967 -7.53710938 123.2421875 C-7.53938222 125.25390507 -7.54008593 127.26562515 -7.5390625 129.27734375 C-7.54827225 130.22017212 -7.55748199 131.16300049 -7.56697083 132.13439941 C-7.54769947 138.81530081 -7.54769947 138.81530081 -4.17578125 144.43359375 C6.36514428 148.64996396 18.47129451 146.43359375 29.82421875 146.43359375 C29.82421875 126.63359375 29.82421875 106.83359375 29.82421875 86.43359375 C3.13985806 83.86111497 3.13985806 83.86111497 -5.17578125 89.43359375 Z " fill="#FFFFFF" transform="translate(359.17578125,-0.43359375)"/>
<path d="M0 0 C0.77538116 -0.00902847 1.55076233 -0.01805695 2.34963989 -0.02735901 C3.98517011 -0.04182263 5.62075768 -0.05073856 7.25634766 -0.05444336 C9.74351578 -0.06633788 12.22819866 -0.11555411 14.71484375 -0.16601562 C16.30988382 -0.17548165 17.90493901 -0.18271583 19.5 -0.1875 C20.23564178 -0.20703232 20.97128357 -0.22656464 21.72921753 -0.24668884 C27.36002472 -0.19808283 30.74101203 1.5952299 34.8828125 5.37109375 C36.625 7.50390625 36.625 7.50390625 37.7578125 9.49609375 C38.34175781 10.48996094 38.34175781 10.48996094 38.9375 11.50390625 C40.68585121 14.95726111 41.01103292 17.70986094 41.02325439 21.5196228 C41.02896454 22.58511856 41.03467468 23.65061432 41.04055786 24.74839783 C41.04167572 25.91730057 41.04279358 27.08620331 41.04394531 28.29052734 C41.05139267 30.13719246 41.05139267 30.13719246 41.05899048 32.02116394 C41.07109987 35.39932931 41.07855733 38.77743277 41.08300114 42.15561247 C41.08593323 44.26646027 41.09003828 46.37730266 41.09450531 48.48814774 C41.10817698 55.09346948 41.1178455 61.69877883 41.1217072 68.30411375 C41.12618863 75.92738 41.14374167 83.55046701 41.1727078 91.17367876 C41.1943254 97.06761523 41.2044115 102.96150128 41.20574832 108.85547698 C41.20679621 112.37514044 41.21270054 115.89463534 41.23056793 119.41425705 C41.25011228 123.34052057 41.24575931 127.26656006 41.23925781 131.19287109 C41.25307999 132.94015251 41.25307999 132.94015251 41.2671814 134.72273254 C41.26161224 135.79386795 41.25604309 136.86500336 41.25030518 137.96859741 C41.25177174 138.89663366 41.2532383 139.82466991 41.2547493 140.78082848 C40.80837722 143.8894805 39.5884003 145.76452813 37.8828125 148.37109375 C37.7384375 149.09296875 37.5940625 149.81484375 37.4453125 150.55859375 C36.8828125 152.37109375 36.8828125 152.37109375 35.2578125 153.37109375 C34.4740625 153.70109375 33.6903125 154.03109375 32.8828125 154.37109375 C32.01011719 155.04269531 31.13742188 155.71429688 30.23828125 156.40625 C24.72643834 159.57534448 18.17911028 158.92701836 12.01245117 158.83764648 C9.82198575 158.80861593 7.63393599 158.81707257 5.44335938 158.83007812 C-8.55069496 158.76804165 -8.55069496 158.76804165 -14.41796875 153.1796875 C-15.08183594 152.39722656 -15.74570313 151.61476562 -16.4296875 150.80859375 C-17.44482422 149.63103516 -17.44482422 149.63103516 -18.48046875 148.4296875 C-21.06019663 145.18501782 -21.24701062 143.3384909 -21.27108765 139.24911499 C-21.27968811 138.16408691 -21.28828857 137.07905884 -21.29714966 135.96115112 C-21.30140961 134.76531403 -21.30566956 133.56947693 -21.31005859 132.33740234 C-21.31823608 131.08199646 -21.32641357 129.82659058 -21.33483887 128.53314209 C-21.36106816 124.36196034 -21.37637174 120.19076854 -21.390625 116.01953125 C-21.39598513 114.58274962 -21.40136264 113.14596805 -21.40675735 111.70918655 C-21.4283913 105.73001411 -21.44712567 99.75084437 -21.45837975 93.77164268 C-21.47460196 85.20951345 -21.50773109 76.64783928 -21.56478059 68.08588159 C-21.60353987 62.06283614 -21.62301973 56.03991207 -21.62830031 50.01674521 C-21.63194691 46.42138116 -21.64389235 42.82650235 -21.67640305 39.23127365 C-21.71220503 35.21429376 -21.70809775 31.19828506 -21.70068359 27.18115234 C-21.71708893 25.99746063 -21.73349426 24.81376892 -21.75039673 23.59420776 C-21.6961557 16.40891251 -20.60540849 12.00686641 -16.1171875 6.37109375 C-15.6221875 5.58734375 -15.1271875 4.80359375 -14.6171875 3.99609375 C-10.74751048 -0.19605635 -5.34000143 0.03871463 0 0 Z M-8.1171875 16.37109375 C-8.2317269 17.92585094 -8.27733496 19.48573781 -8.29559326 21.04460144 C-8.30971756 22.05541779 -8.32384186 23.06623413 -8.33839417 24.10768127 C-8.34886276 25.22609909 -8.35933136 26.34451691 -8.37011719 27.49682617 C-8.38483566 28.66751648 -8.39955414 29.83820679 -8.41471863 31.04437256 C-8.45369106 34.26565934 -8.4880001 37.48694908 -8.51930523 40.70831847 C-8.53900814 42.72100999 -8.55985901 44.73368646 -8.58106232 46.74636269 C-8.64707712 53.04357385 -8.70904054 59.34080571 -8.76524138 65.63811225 C-8.83014387 72.90662624 -8.9082405 80.17483814 -8.99792361 87.44308776 C-9.06643698 93.06005496 -9.12319581 98.67706499 -9.17109036 104.29424554 C-9.19995231 107.64915827 -9.23374443 111.00384678 -9.27974701 114.35857201 C-9.32815034 118.10520829 -9.35734552 121.85153027 -9.38183594 125.59838867 C-9.40040146 126.70668533 -9.41896698 127.81498199 -9.43809509 128.9568634 C-9.45346924 134.49541975 -9.37304465 138.6459967 -6.1171875 143.37109375 C-0.91917996 147.25152287 4.28689362 146.60669123 10.4453125 146.18359375 C11.37794922 146.13912109 12.31058594 146.09464844 13.27148438 146.04882812 C19.83118959 145.72382392 19.83118959 145.72382392 25.8828125 143.37109375 C28.06145116 140.10313576 28.13735831 139.15992802 28.15696716 135.37442017 C28.16694229 134.34258102 28.17691742 133.31074188 28.18719482 132.24763489 C28.1878595 131.1161351 28.18852417 129.98463531 28.18920898 128.81884766 C28.1975325 127.62675186 28.20585602 126.43465607 28.21443176 125.20643616 C28.23441962 121.93568967 28.24517623 118.66509082 28.25025821 115.3942914 C28.25390129 113.35043892 28.26014109 111.30661094 28.2672596 109.26276779 C28.29175587 102.13122227 28.30480633 94.9997495 28.30834961 87.86816406 C28.31198491 81.22253238 28.3418788 74.57736253 28.38375419 67.93187201 C28.41845467 62.22475815 28.433898 56.51779735 28.43459564 50.8105787 C28.43538858 47.4025749 28.4441332 43.99504149 28.47259331 40.58714676 C28.49938896 36.78506282 28.49471598 32.98425842 28.48217773 29.18212891 C28.49701202 28.05467758 28.51184631 26.92722626 28.52713013 25.76560974 C28.50216192 19.52588555 28.50216192 19.52588555 25.51930237 14.1713562 C22.43599614 12.06599616 20.80902478 11.75077562 17.1015625 11.77734375 C15.46767578 11.78121094 15.46767578 11.78121094 13.80078125 11.78515625 C12.67285156 11.81351563 11.54492188 11.841875 10.3828125 11.87109375 C8.69091797 11.86722656 8.69091797 11.86722656 6.96484375 11.86328125 C-1.31282215 11.92040995 -1.31282215 11.92040995 -8.1171875 16.37109375 Z " fill="#FFFFFF" transform="translate(144.1171875,-0.37109375)"/>
<path d="M0 0 C4.62 0 9.24 0 14 0 C14 23.76 14 47.52 14 72 C25.55 72.33 37.1 72.66 49 73 C49 48.91 49 24.82 49 0 C53.29 0 57.58 0 62 0 C62 52.14 62 104.28 62 158 C57.71 158 53.42 158 49 158 C49 134.24 49 110.48 49 86 C37.12 86 25.24 86 13 86 C13 109.76 13 133.52 13 158 C8.38 158 3.76 158 -1 158 C-1.33 157.01 -1.66 156.02 -2 155 C-1.34 155 -0.68 155 0 155 C0 103.85 0 52.7 0 0 Z " fill="#FFFFFF" transform="translate(267,0)"/>
<path d="M0 0 C0.77300949 -0.0099852 1.54601898 -0.0199704 2.342453 -0.03025818 C3.9737719 -0.04540173 5.60518315 -0.05248514 7.23657227 -0.05200195 C9.71333708 -0.05854847 12.18605595 -0.11301526 14.66210938 -0.16992188 C27.89151594 -0.31907096 27.89151594 -0.31907096 32.7421875 2.9765625 C38.73403548 9.16256291 41.48784228 15.21920149 41.48445129 23.8419342 C41.45864487 24.84542404 41.43283844 25.84891388 41.40625 26.8828125 C41.39917526 27.93548813 41.39210052 28.98816376 41.3848114 30.07273865 C41.35702754 33.4047123 41.29431748 36.73494842 41.23046875 40.06640625 C41.20536527 42.3378662 41.18255572 44.60935273 41.16210938 46.88085938 C41.10725306 52.42253512 41.02109068 57.96292704 40.91796875 63.50390625 C36.62796875 63.50390625 32.33796875 63.50390625 27.91796875 63.50390625 C27.88823975 61.43725708 27.88823975 61.43725708 27.85791016 59.32885742 C27.78192087 54.22417717 27.69319316 49.11978447 27.60058594 44.01538086 C27.56226858 41.80482657 27.52742061 39.59420933 27.49609375 37.38354492 C27.45050323 34.20859254 27.39249872 31.03407453 27.33203125 27.859375 C27.32048004 26.86866501 27.30892883 25.87795502 27.29702759 24.85722351 C27.2771579 23.93649551 27.25728821 23.01576752 27.23681641 22.06713867 C27.22349274 21.25661545 27.21016907 20.44609222 27.19644165 19.61100769 C27.03573098 17.20290434 27.03573098 17.20290434 24.91796875 14.50390625 C20.05854723 12.88409908 15.0686847 13.31938356 9.98046875 13.31640625 C8.33401367 13.29803711 8.33401367 13.29803711 6.65429688 13.27929688 C5.59791016 13.27736328 4.54152344 13.27542969 3.453125 13.2734375 C2.48769775 13.26932861 1.52227051 13.26521973 0.52758789 13.26098633 C-2.23226942 13.51789137 -3.83301223 13.88503479 -6.08203125 15.50390625 C-7.11120471 18.53334108 -7.21175965 21.369949 -7.22247314 24.55163574 C-7.22818329 25.5694664 -7.23389343 26.58729706 -7.23977661 27.63597107 C-7.24089447 28.74674515 -7.24201233 29.85751923 -7.24316406 31.00195312 C-7.24812897 32.1762941 -7.25309387 33.35063507 -7.25820923 34.56056213 C-7.2703026 37.77743929 -7.27777141 40.99428015 -7.28221989 44.21117592 C-7.28515434 46.2213481 -7.28925974 48.23151463 -7.29372406 50.24168396 C-7.30738761 56.53251191 -7.31706114 62.82332689 -7.32092595 69.11416864 C-7.32541094 76.37407538 -7.34298386 83.63379425 -7.37192655 90.89364386 C-7.39353298 96.50818184 -7.40362959 102.12266691 -7.40496707 107.73724604 C-7.4060154 111.08975105 -7.41192943 114.44207918 -7.42978668 117.79454041 C-7.44678328 121.53179303 -7.44498267 125.26858412 -7.43847656 129.00585938 C-7.45229874 130.67202049 -7.45229874 130.67202049 -7.46640015 132.37184143 C-7.45804642 133.89858742 -7.45804642 133.89858742 -7.44952393 135.45617676 C-7.45099049 136.33958992 -7.45245705 137.22300308 -7.45396805 138.13318634 C-6.99869045 141.03511934 -6.09647886 142.3896335 -4.08203125 144.50390625 C0.48077176 146.02484059 5.01341443 145.72930108 9.79296875 145.75390625 C10.78683594 145.77453125 11.78070313 145.79515625 12.8046875 145.81640625 C19.88328216 145.92761556 19.88328216 145.92761556 25.91796875 142.50390625 C27.08222851 140.17538673 27.07254867 138.74110441 27.12329102 136.14599609 C27.15320885 134.79482193 27.15320885 134.79482193 27.18373108 133.41635132 C27.20044357 132.44235382 27.21715607 131.46835632 27.234375 130.46484375 C27.2551561 129.46885162 27.27593719 128.4728595 27.29734802 127.44668579 C27.36285917 124.25749771 27.42173579 121.06822567 27.48046875 117.87890625 C27.52365248 115.72004332 27.56726672 113.56118895 27.61132812 111.40234375 C27.71854217 106.10295115 27.81980523 100.80347391 27.91796875 95.50390625 C32.20796875 95.50390625 36.49796875 95.50390625 40.91796875 95.50390625 C41.06695274 102.17495078 41.17548774 108.84501437 41.24755859 115.51733398 C41.27762061 117.78410729 41.31848232 120.05076533 41.37060547 122.31713867 C41.44388538 125.58671589 41.47753211 128.85474772 41.50390625 132.125 C41.55035782 133.63023476 41.55035782 133.63023476 41.5977478 135.1658783 C41.60125536 142.59850311 39.50832721 146.75773974 34.91796875 152.50390625 C34.25796875 153.49390625 33.59796875 154.48390625 32.91796875 155.50390625 C26.01597904 159.13391294 19.38805103 159.06232659 11.73022461 159.05981445 C9.4883376 159.06638319 7.25087235 159.12096328 5.00976562 159.17773438 C-2.1708876 159.26261396 -8.03597513 159.24853475 -13.62744141 154.15673828 C-18.18381825 148.97938494 -21.17765963 144.64892021 -21.26043701 137.57884216 C-21.27456131 136.56264297 -21.28868561 135.54644379 -21.30323792 134.49945068 C-21.31370651 133.38515686 -21.32417511 132.27086304 -21.33496094 131.12280273 C-21.35703865 129.36133659 -21.35703865 129.36133659 -21.37956238 127.56428528 C-21.41845627 124.34078191 -21.45280038 121.11727541 -21.48414898 117.89369082 C-21.50389057 115.8766026 -21.52473539 113.85952861 -21.54590607 111.84245491 C-21.61188442 105.52281667 -21.67382171 99.20315749 -21.73008513 92.88342518 C-21.79492589 85.60535023 -21.87301944 78.32757936 -21.96276736 71.04976982 C-22.03144206 65.41486636 -22.08813751 59.7799196 -22.13593411 54.14480072 C-22.16470054 50.78415789 -22.19989903 47.42390533 -22.24459076 44.06341362 C-22.29322708 40.30583563 -22.32226522 36.54857451 -22.34667969 32.79077148 C-22.36524521 31.69064728 -22.38381073 30.59052307 -22.40293884 29.45706177 C-22.42862442 20.10428521 -21.17870231 12.09501314 -14.77734375 4.9765625 C-10.0802184 0.89634071 -6.11737417 0.02772736 0 0 Z " fill="#FFFFFF" transform="translate(216.08203125,-0.50390625)"/>
<path d="M0 0 C0.33 0 0.66 0 1 0 C1 46.2 1 92.4 1 140 C0.67 140 0.34 140 0 140 C0 93.8 0 47.6 0 0 Z " fill="#FFFFFF" transform="translate(15,18)"/>
<path d="M0 0 C0.33 0.66 0.66 1.32 1 2 C0.34 1.67 -0.32 1.34 -1 1 C-0.67 0.67 -0.34 0.34 0 0 Z " fill="#FFFFFF" transform="translate(72,14)"/>
<path d="" fill="#FFFFFF" transform="translate(0,0)"/>
<path d="" fill="#FFFFFF" transform="translate(0,0)"/>
<path d="" fill="#FFFFFF" transform="translate(0,0)"/>
<path d="" fill="#FFFFFF" transform="translate(0,0)"/>
<path d="" fill="#FFFFFF" transform="translate(0,0)"/>
<path d="" fill="#FFFFFF" transform="translate(0,0)"/>
<path d="" fill="#FFFFFF" transform="translate(0,0)"/>
<path d="" fill="#FFFFFF" transform="translate(0,0)"/>
<path d="" fill="#FFFFFF" transform="translate(0,0)"/>
<path d="" fill="#FFFFFF" transform="translate(0,0)"/>
<path d="" fill="#FFFFFF" transform="translate(0,0)"/>
<path d="" fill="#FFFFFF" transform="translate(0,0)"/>
</svg>
