<svg xmlns="http://www.w3.org/2000/svg" fill="none" viewBox="0 0 212 118" height="118" width="212">
    <path fill="white" d="M130.496 89.4131C136.989 85.2402 144.89 79.6113 148.298 76.2068C146.618 77.8833 137.416 84.1703 131.636 87.663C131.092 87.9939 130.548 88.3212 130 88.6447"/>
    <path fill="white" d="M118.452 95.0348C78.2892 115.745 36.196 122.139 26.5927 106.237C22.019 98.6709 23.986 89.1007 30.5892 76.4753C22.7139 88.9243 20.2874 100.182 25.0081 107.998C35.3761 125.161 76.3958 119.591 118.941 96.2333"/>
    <path fill="white" d="M82.8777 28.3597C98.5216 18.569 141.916 -2.48319 167.766 0.241166C198.477 3.47656 192.444 32.2312 177.984 46.6691C191.98 32.551 195.565 3.94349 165.513 1.88092C132.041 -0.42062 81.0541 29.4995 82.8777 28.3597Z"/>
    <path fill="white" d="M129.782 93.0161C129.782 95.7147 127.595 97.8986 124.896 97.8986C122.198 97.8986 120.014 95.7147 120.014 93.0161C120.014 90.3175 122.205 88.1299 124.896 88.1299C127.587 88.1299 129.782 90.3175 129.782 93.0161Z"/>
    <path fill="white" d="M24.915 67.7138C24.915 73.0412 22.2642 72.2397 21.1686 72.2397L21.562 74.078C21.562 74.078 25.1724 73.8831 28.1394 73.8831C31.1064 73.8831 34.7499 74.078 34.7499 74.078L35.1396 72.2397C34.0514 72.2397 31.3969 73.0375 31.3969 67.7138V53.1214H31.3822C31.3822 43.2902 24.3084 42.5623 21.7054 42.5623C16.1905 42.5623 11.3227 47.2867 11.3227 47.2867L11.1499 46.8822V43.4483H8.64245C8.64245 43.4483 6.94754 44.6579 4.9291 45.7903C2.90697 46.9227 0.120117 48.0514 0.120117 48.0514L0.197325 49.3382C0.197325 49.3382 4.60923 48.4816 4.60923 52.3052V67.7138C4.60923 73.0412 1.95841 72.2397 0.866464 72.2397L1.25618 74.078C1.25618 74.078 4.86292 73.8831 7.82993 73.8831C10.7969 73.8831 14.4441 74.078 14.4441 74.078L14.8338 72.2397C13.7382 72.2397 11.0874 73.0375 11.0874 67.7138V52.1508C11.0874 52.1508 13.7014 47.1139 19.0104 47.1139C24.3194 47.1139 24.9297 51.6398 24.9297 53.9817V67.7138H24.915Z"/>
    <path fill="white" d="M169.935 67.7138C169.935 73.0412 167.28 72.2397 166.188 72.2397L166.578 74.078C166.578 74.078 170.181 73.8831 173.152 73.8831C176.122 73.8831 179.766 74.078 179.766 74.078L180.156 72.2397C179.064 72.2397 176.409 73.0375 176.409 67.7138V53.1214H176.391C176.391 43.2902 169.317 42.5623 166.718 42.5623C161.203 42.5623 156.331 47.2867 156.331 47.2867L156.158 46.8822V43.4483H153.647C153.647 43.4483 151.952 44.6579 149.934 45.7903C147.912 46.9227 145.125 48.0514 145.125 48.0514L145.202 49.3382C145.202 49.3382 149.614 48.4816 149.614 52.3052V67.7138C149.614 73.0412 146.96 72.2397 145.864 72.2397L146.254 74.078C146.254 74.078 149.86 73.8831 152.831 73.8831C155.802 73.8831 159.438 74.078 159.438 74.078L159.831 72.2397C158.736 72.2397 156.089 73.0375 156.089 67.7138V52.1508C156.089 52.1508 158.703 47.1139 164.004 47.1139C169.306 47.1139 169.927 51.6398 169.927 53.9817V67.7138H169.935Z"/>
    <path fill="white" d="M107.079 50.0258L105.171 50.0663C105.171 50.0663 104.219 45.5992 98.4941 45.5992C94.6926 45.5992 92.5638 47.9927 92.5638 50.1288C92.5638 57.5665 109.623 52.4524 109.623 63.9491C109.623 69.4603 105.05 74.3685 95.7367 74.3685C90.8505 74.3685 85.9092 71.7655 85.9092 71.7655V65.791H87.8504C87.8504 65.791 88.196 71.5559 95.8397 71.5559C100.369 71.5559 103.178 69.2176 103.178 66.1991C103.178 58.6548 86.0636 63.2321 86.0636 51.9965C86.0636 45.2316 92.4241 42.7866 98.7074 42.7866C103.487 42.7866 106.829 44.5367 106.829 44.5367L107.079 50.0222V50.0258Z"/>
    <path fill="white" d="M203.785 50.0258L201.877 50.0663C201.877 50.0663 200.921 45.5992 195.204 45.5992C191.402 45.5992 189.273 47.9927 189.273 50.1288C189.273 57.5665 206.333 52.4524 206.333 63.9491C206.333 69.4639 201.755 74.3685 192.443 74.3685C187.556 74.3685 182.611 71.7655 182.611 71.7655V65.791H184.56C184.56 65.791 184.902 71.5559 192.545 71.5559C197.079 71.5559 199.888 69.2139 199.888 66.1991C199.888 58.6548 182.766 63.2321 182.766 51.9965C182.766 45.2315 189.126 42.7903 195.41 42.7903C200.196 42.7903 203.535 44.5367 203.535 44.5367L203.785 50.0221V50.0258Z"/>
    <path fill="white" d="M112.804 58.4525C112.804 49.7059 119.741 42.6174 128.297 42.6174C136.852 42.6174 143.786 49.7096 143.786 58.4525C143.786 67.1954 136.852 74.2913 128.297 74.2913C119.741 74.2913 112.804 67.2028 112.804 58.4525ZM129.848 71.5412C134.503 70.9676 137.566 64.7101 136.687 57.5628C135.804 50.4155 131.319 45.0807 126.664 45.6543C122.006 46.2242 118.944 52.4854 119.819 59.6364C120.697 66.7837 125.186 72.1147 129.845 71.5412"/>
    <path fill="white" d="M63.2362 65.0336H66.7436C66.7436 65.0336 62.6111 74.3243 51.9196 74.3243C41.2281 74.3243 36.625 66.8277 36.625 58.0113C36.625 49.1948 43.1032 42.8711 51.7615 42.8711C60.4199 42.8711 64.5928 48.7169 65.8098 53.1766C66.0377 54.0369 65.887 54.6582 64.3281 55.206C63.2987 55.5627 43.6473 61.368 43.6473 61.368C43.6473 61.368 45.8349 70.6404 53.9491 70.6404C59.9603 70.6404 63.2362 65.0336 63.2362 65.0336ZM59.1037 53.467C59.1037 53.467 58.0853 45.9925 51.4564 45.9925C43.0296 45.9925 43.3385 58.0885 43.3385 58.0885L59.1037 53.4633V53.467Z"/>
    <path fill="white" d="M78.4465 40.4298C78.4465 32.0546 82.0238 30.128 82.0238 30.128L81.4503 29.2971C81.4503 29.2971 76.6781 32.3818 74.3765 33.8708C72.1228 35.3304 67.6631 37.6209 67.6631 37.6209V38.8673C71.2036 38.2423 71.9684 39.2791 71.9684 45.7315V67.7101C71.9684 73.0375 69.3102 72.236 68.2219 72.236L68.608 74.0743C68.608 74.0743 72.2184 73.8794 75.1817 73.8794C78.145 73.8794 81.7959 74.0743 81.7959 74.0743L82.1893 72.236C81.0937 72.236 78.4428 73.0338 78.4428 67.7101V40.4262L78.4245 53.1177"/>
    <path fill="white" d="M211.881 45.3235C211.881 46.5147 210.947 47.4522 209.726 47.4522C208.505 47.4522 207.561 46.5147 207.561 45.3235C207.561 44.1323 208.52 43.2205 209.726 43.2205C210.932 43.2205 211.881 44.158 211.881 45.3235ZM208.097 45.3235C208.097 46.261 208.792 47.0037 209.737 47.0037C210.682 47.0037 211.34 46.261 211.34 45.3382C211.34 44.4154 210.664 43.6469 209.726 43.6469C208.789 43.6469 208.097 44.4043 208.097 45.3271M209.391 46.4301H208.903V44.3271C209.094 44.2903 209.362 44.2609 209.711 44.2609C210.108 44.2609 210.289 44.3271 210.443 44.4154C210.557 44.5036 210.645 44.6727 210.645 44.8749C210.645 45.1066 210.465 45.2867 210.211 45.3602V45.386C210.417 45.4632 210.535 45.6176 210.597 45.897C210.664 46.2169 210.7 46.3456 210.752 46.4228H210.226C210.164 46.3456 210.123 46.1544 210.061 45.908C210.024 45.6764 209.895 45.5735 209.627 45.5735H209.395V46.4191L209.391 46.4301ZM209.403 45.2389H209.634C209.903 45.2389 210.123 45.1507 210.123 44.9301C210.123 44.7389 209.983 44.6102 209.675 44.6102C209.546 44.6102 209.454 44.6212 209.406 44.6359V45.2389H209.403Z"/>
</svg>