<svg fill="none" xmlns="http://www.w3.org/2000/svg" viewBox="26.98 18.5 57.03 74">    <g>        <path d="M26.9995 71.1362H29.8782C31.5594 71.1362 32.5763 72.1442 32.5763 73.6014V73.6214C32.5763 75.2718 31.3082 76.1266 29.7277 76.1266H28.5499V78.2654H26.9995V71.1362ZM29.7776 74.7313C30.5528 74.7313 31.0053 74.263 31.0053 73.6519V73.6319C31.0053 72.9294 30.5218 72.5525 29.7466 72.5525H28.549V74.7321H29.7767L29.7776 74.7313Z" fill="white"></path>        <path d="M35.1753 71.1362H40.4905V72.5316H36.7153V73.9774H40.0371V75.3728H36.7153V76.87H40.5404V78.2654H35.1753V71.1362Z" fill="white"></path>        <path d="M43.0117 74.7208V74.7007C43.0117 72.6743 44.5724 71.0134 46.7061 71.0134C47.9742 71.0134 48.7391 71.3599 49.4747 71.991L48.4982 73.1826C47.9544 72.7239 47.4718 72.4593 46.6562 72.4593C45.5291 72.4593 44.6326 73.4673 44.6326 74.6799V74.6999C44.6326 76.0038 45.5188 76.9605 46.7663 76.9605C47.3298 76.9605 47.8331 76.8177 48.2263 76.5331V75.5146H46.6656V74.1602H49.7259V77.2564C49.0015 77.878 48.0043 78.3872 46.7164 78.3872C44.5216 78.3872 43.0117 76.829 43.0117 74.7208Z" fill="white"></path>        <path d="M54.9523 71.0847H56.3814L59.4012 78.2652H57.7803L57.1359 76.6662H54.1565L53.5121 78.2652H51.9316L54.9515 71.0847H54.9523ZM56.5836 75.2813L55.6475 72.9693L54.7114 75.2813H56.5836Z" fill="white"></path>        <path d="M61.4644 77.2259L62.3806 76.1161C63.0147 76.6453 63.6789 76.9822 64.4842 76.9822C65.1183 76.9822 65.5011 76.7272 65.5011 76.3102V76.2902C65.5011 75.8933 65.2594 75.6896 64.0815 75.384C62.662 75.0176 61.7466 74.6198 61.7466 73.2044V73.1843C61.7466 71.8908 62.773 71.0352 64.2132 71.0352C65.2396 71.0352 66.1154 71.3607 66.8304 71.9413L66.0251 73.1225C65.4013 72.6847 64.787 72.4201 64.1934 72.4201C63.5997 72.4201 63.2874 72.6951 63.2874 73.0416V73.0616C63.2874 73.5299 63.5894 73.6831 64.8077 73.9982C66.2367 74.3752 67.042 74.8948 67.042 76.137V76.157C67.042 77.5724 65.9752 78.3671 64.4549 78.3671C63.3881 78.3671 62.3109 77.9902 61.4652 77.2268L61.4644 77.2259Z" fill="white"></path>        <path d="M69.7358 75.2099V71.1361H71.2862V75.169C71.2862 76.3302 71.86 76.9309 72.8064 76.9309C73.7528 76.9309 74.3267 76.3502 74.3267 75.2195V71.1353H75.877V75.1586C75.877 77.3173 74.6794 78.3767 72.7866 78.3767C70.8939 78.3767 69.7367 77.3069 69.7367 75.2091L69.7358 75.2099Z" fill="white"></path>        <path d="M78.4229 77.2259L79.3391 76.1161C79.9732 76.6453 80.6374 76.9822 81.4427 76.9822C82.0768 76.9822 82.4596 76.7272 82.4596 76.3102V76.2902C82.4596 75.8933 82.2179 75.6896 81.04 75.384C79.6205 75.0176 78.705 74.6198 78.705 73.2044V73.1843C78.705 71.8908 79.7314 71.0352 81.1717 71.0352C82.1981 71.0352 83.0739 71.3607 83.7889 71.9413L82.9836 73.1225C82.3598 72.6847 81.7455 72.4201 81.1519 72.4201C80.5582 72.4201 80.2459 72.6951 80.2459 73.0416V73.0616C80.2459 73.5299 80.5479 73.6831 81.7662 73.9982C83.1952 74.3752 84.0005 74.8948 84.0005 76.137V76.157C84.0005 77.5724 82.9337 78.3671 81.4134 78.3671C80.3466 78.3671 79.2694 77.9902 78.4237 77.2268L78.4229 77.2259Z" fill="white"></path>        <path d="M35.1323 85.2378H36.6827V88.059H39.5416V85.2378H41.092V92.367H39.5416V89.5048H36.6827V92.367H35.1323V85.2378Z" fill="white"></path>        <path d="M43.4443 88.8223V88.8023C43.4443 86.7758 45.0248 85.115 47.1989 85.115C49.373 85.115 50.9337 86.755 50.9337 88.7814V88.8014C50.9337 90.8279 49.3532 92.4887 47.1791 92.4887C45.005 92.4887 43.4443 90.8488 43.4443 88.8223ZM49.3128 88.8223V88.8023C49.3128 87.5802 48.4266 86.5617 47.1783 86.5617C45.9299 86.5617 45.0644 87.5601 45.0644 88.7823V88.8023C45.0644 90.0244 45.9505 91.0429 47.198 91.0429C48.4456 91.0429 49.3119 90.0445 49.3119 88.8223H49.3128Z" fill="white"></path>        <path d="M53.2684 85.2378H54.9392L56.7916 88.2522L58.6439 85.2378H60.3147V92.367H58.7747V87.7125L56.7916 90.7574H56.7511L54.7878 87.743V92.367H53.2676V85.2378H53.2684Z" fill="white"></path>        <path d="M63.0347 85.2378H68.3499V86.6332H64.5747V88.079H67.8965V89.4744H64.5747V90.9716H68.3998V92.367H63.0347V85.2378Z" fill="white"></path>        <path d="M70.29 91.3278L71.2063 90.2179C71.8404 90.7471 72.5046 91.084 73.3099 91.084C73.944 91.084 74.3268 90.829 74.3268 90.412V90.392C74.3268 89.9951 74.0851 89.7914 72.9072 89.4858C71.4876 89.1194 70.5714 88.7216 70.5714 87.3062V87.2862C70.5714 85.9926 71.5978 85.137 73.038 85.137C74.0644 85.137 74.9402 85.4625 75.6552 86.0431L74.8499 87.2244C74.2261 86.7865 73.6119 86.5219 73.0182 86.5219C72.4246 86.5219 72.1123 86.797 72.1123 87.1434V87.1634C72.1123 87.6317 72.4142 87.7849 73.6325 88.1C75.0615 88.477 75.8668 88.9966 75.8668 90.2388V90.2588C75.8668 91.6742 74.8 92.4689 73.2798 92.4689C72.2129 92.4689 71.1358 92.092 70.29 91.3286V91.3278Z" fill="white"></path>        <path d="M73.3011 21.1799C69.919 19.4293 66.1808 18.511 62.3574 18.511C55.916 18.511 49.6905 21.1799 45.1323 25.8552L46.619 27.3907C50.8287 23.0627 56.384 20.6837 62.3583 20.6837C66.3925 20.6837 70.3234 21.7988 73.7657 23.9149V48.0974H69.6265C68.4324 48.0974 67.4154 47.2287 67.2107 46.0335C67.1444 45.6436 67.1048 45.1605 67.0627 44.6478C66.888 42.5377 66.6497 39.6495 64.2459 37.1591C62.6069 35.4617 62.3419 33.793 63.4346 32.059C63.6041 31.7883 63.8071 31.5193 64.036 31.2599C64.5272 30.7019 64.9772 30.3738 64.978 30.372L63.7796 28.5867C63.7151 28.6337 63.1292 29.0602 62.4787 29.7984C62.175 30.144 61.9023 30.5052 61.6709 30.8734C60.7176 32.3872 59.5914 35.4155 62.7566 38.6929C64.6184 40.6227 64.8034 42.8589 64.966 44.8323C65.0125 45.3946 65.0563 45.9256 65.1398 46.4122C65.5227 48.6476 67.4094 50.2701 69.6265 50.2701H75.8701V18.5275L73.3011 21.1799Z" fill="white"></path>        <path d="M60.4312 49.3865L35.1738 32.0554V34.6642L59.6706 51.4721C59.9537 50.7923 60.2057 50.0951 60.4303 49.3856" fill="white"></path>        <path d="M55.3646 58.3828H35.1738V60.5555H53.1904C53.957 59.8765 54.6866 59.1549 55.3646 58.3828Z" fill="white"></path>        <path d="M61.3146 45.6314L35.1729 18.6355V21.7083L60.7864 48.1593C61.0032 47.3332 61.1804 46.4906 61.3146 45.6314Z" fill="white"></path>        <path d="M57.6729 55.2996L35.1738 50.8672V53.0791L56.3032 57.2416C56.7884 56.6184 57.2453 55.9699 57.6729 55.2988" fill="white"></path>        <path d="M59.2601 52.4107L35.1729 42.2593V44.6061L58.2569 54.3345C58.6174 53.7103 58.9538 53.0697 59.2601 52.4107Z" fill="white"></path>    </g></svg>