<?xml version="1.0" encoding="UTF-8"?>
<svg version="1.1" xmlns="http://www.w3.org/2000/svg" viewBox="0 0 1116 337">
<path d="M0 0 C196.68 0 393.36 0 596 0 C596 5.28 596 10.56 596 16 C399.32 16 202.64 16 0 16 C0 10.72 0 5.44 0 0 Z " fill="#FFFFFF" transform="translate(520,39)"/>
<path d="M0 0 C93.72 0 187.44 0 284 0 C284 4.95 284 9.9 284 15 C190.28 15 96.56 15 0 15 C0 10.05 0 5.1 0 0 Z " fill="#FFFFFF" transform="translate(0,164)"/>
<path d="M0 0 C7.59 0 15.18 0 23 0 C29.6 17.82 36.2 35.64 43 54 C43.33 36.18 43.66 18.36 44 0 C49.94 0 55.88 0 62 0 C62 29.04 62 58.08 62 88 C54.41 88 46.82 88 39 88 C32.07 69.52 25.14 51.04 18 32 C17.67 50.48 17.34 68.96 17 88 C11.39 88 5.78 88 0 88 C0 58.96 0 29.92 0 0 Z " fill="#FFFFFF" transform="translate(1047,249)"/>
<path d="M0 0 C5.97736416 -0.04965857 11.95460663 -0.08584173 17.93212891 -0.10986328 C19.96307468 -0.11988386 21.99400617 -0.13350401 24.02490234 -0.15087891 C26.95413758 -0.17530117 29.88318106 -0.18652279 32.8125 -0.1953125 C34.16142334 -0.21079636 34.16142334 -0.21079636 35.53759766 -0.22659302 C44.32674206 -0.22813634 52.83971851 1.16735543 59.4765625 7.3828125 C64.82463979 13.35639591 65.47735722 19.28598452 65.3046875 27.02734375 C64.75858038 32.35538887 63.24000276 36.15661745 59.05859375 39.59765625 C55.85374947 41.71651278 53.90232379 43 50 43 C50 43.66 50 44.32 50 45 C50.73863281 45.09796875 51.47726562 45.1959375 52.23828125 45.296875 C55.34691784 46.0883242 56.80750988 47.13240724 59.1875 49.25 C59.86167969 49.83265625 60.53585937 50.4153125 61.23046875 51.015625 C65.49117991 55.79364104 65.37020326 60.87684667 65.25 66.9921875 C64.6790957 73.86087985 62.30905365 78.46788103 57 83 C56.360625 83.556875 55.72125 84.11375 55.0625 84.6875 C49.06294922 88.50539595 42.98994143 88.26630157 36.1328125 88.1953125 C35.09808807 88.1924826 34.06336365 88.18965271 32.99728394 88.18673706 C29.70640286 88.17558048 26.41579822 88.15048397 23.125 88.125 C20.88802478 88.11496437 18.65104527 88.10583953 16.4140625 88.09765625 C10.94260252 88.0756559 5.47134806 88.041157 0 88 C0 82.72 0 77.44 0 72 C2.64 72 5.28 72 8 72 C8 53.85 8 35.7 8 17 C5.36 17 2.72 17 0 17 C0 11.39 0 5.78 0 0 Z M26 17 C26 23.27 26 29.54 26 36 C29.3103125 36.061875 29.3103125 36.061875 32.6875 36.125 C33.92886719 36.14820312 35.17023438 36.17140625 36.44921875 36.1953125 C40.67278594 35.96299307 43.41442587 35.19698703 46.78515625 32.65234375 C48.78551573 29.93159758 48.46570251 27.42972722 48.359375 24.16015625 C48.1297689 21.78781381 48.1297689 21.78781381 46.1875 19.5 C42.04080496 16.65655197 38.13654464 16.87939137 33.3125 16.9375 C30.899375 16.958125 28.48625 16.97875 26 17 Z M26 52 C26 58.6 26 65.2 26 72 C36.47489791 72.55510967 36.47489791 72.55510967 46 69 C48.45380136 65.31929796 48.81652381 62.27425218 48 58 C45.79846699 55.04365567 44.31094792 53.35916381 40.71875 52.375 C37.67372672 51.95499679 34.76048718 51.90373091 31.6875 51.9375 C29.810625 51.958125 27.93375 51.97875 26 52 Z " fill="#FFFFFF" transform="translate(317,0)"/>
<path d="M0 0 C47.24565757 0 47.24565757 0 56 8 C62.04442692 14.36255465 62.45518509 21.12403335 62.3125 29.578125 C61.83041592 34.85694569 60.47015162 38.79450748 56.46875 42.3671875 C54.32261819 43.89262432 52.68195899 45 50 45 C50 45.66 50 46.32 50 47 C50.9075 47.04125 51.815 47.0825 52.75 47.125 C56 48 56 48 58.17871094 50.55322266 C60.28259509 54.53480931 60.51759375 57.64004269 60.390625 62.0234375 C60.38496521 62.76961334 60.37930542 63.51578918 60.37347412 64.28457642 C60.35122898 66.64872637 60.30105984 69.01131459 60.25 71.375 C60.22991944 72.98565507 60.2116714 74.59633409 60.1953125 76.20703125 C60.15481751 80.13909448 60.07651817 84.0678165 60 88 C54.06 88 48.12 88 42 88 C41.67 78.1 41.34 68.2 41 58 C37.43726645 56.21863323 36.17604413 55.73686665 32.453125 55.5859375 C31.69161133 55.55032715 30.93009766 55.5147168 30.14550781 55.47802734 C29.18999023 55.44402832 28.23447266 55.4100293 27.25 55.375 C24.1975 55.25125 21.145 55.1275 18 55 C18 65.89 18 76.78 18 88 C12.06 88 6.12 88 0 88 C0 58.96 0 29.92 0 0 Z M18 17 C18 24.26 18 31.52 18 39 C22.269375 39.0928125 22.269375 39.0928125 26.625 39.1875 C27.51010254 39.21481201 28.39520508 39.24212402 29.30712891 39.27026367 C34.29420547 39.32245792 37.6870292 38.7821324 42 36 C44.1979747 33.28916453 44.92397877 31.51042828 45.4375 28.0625 C44.87672496 24.13707473 43.49711051 22.05202395 41 19 C38.06774525 17.16830483 35.88415868 16.75832218 32.453125 16.8046875 C31.31085449 16.81218018 31.31085449 16.81218018 30.14550781 16.81982422 C29.18999023 16.83803223 28.23447266 16.85624023 27.25 16.875 C24.1975 16.91625 21.145 16.9575 18 17 Z " fill="#FFFFFF" transform="translate(8,0)"/>
<path d="M0 0 C1.08023438 -0.00644531 2.16046875 -0.01289063 3.2734375 -0.01953125 C11.58745051 0.09199819 18.12793959 1.80059538 24.125 7.8125 C31.15569406 15.26054119 32.51943666 23.80330683 32.375 33.625 C26.765 33.625 21.155 33.625 15.375 33.625 C14.72395833 30.890625 14.07291667 28.15625 13.421875 25.421875 C11.96028363 21.51702641 9.75290859 19.47606119 6.25 17.3125 C0.7815188 16.00481971 -4.5202806 16.59503093 -9.5625 19.0625 C-15.475546 26.4090117 -15.08956911 36.20570906 -15 45.1875 C-15.01160156 46.35474609 -15.02320313 47.52199219 -15.03515625 48.72460938 C-15.01186005 55.61640286 -14.26059157 61.25840454 -11.625 67.625 C-11.295 68.615 -10.965 69.605 -10.625 70.625 C-4.60266067 73.63616966 3.01852203 73.67389937 9.375 71.6875 C12.32428486 68.94415487 12.32428486 68.94415487 14.375 60.625 C8.105 60.625 1.835 60.625 -4.625 60.625 C-4.625 55.015 -4.625 49.405 -4.625 43.625 C7.585 43.625 19.795 43.625 32.375 43.625 C32.375 58.475 32.375 73.325 32.375 88.625 C27.095 88.625 21.815 88.625 16.375 88.625 C16.375 85.655 16.375 82.685 16.375 79.625 C15.715 79.625 15.055 79.625 14.375 79.625 C14.27832031 80.21925781 14.18164062 80.81351562 14.08203125 81.42578125 C13.22814734 84.08178478 12.19019878 85.04017703 10.0625 86.8125 C9.46824219 87.32167969 8.87398437 87.83085938 8.26171875 88.35546875 C3.12845684 91.80952697 -3.70844586 91.14897527 -9.625 90.625 C-15.85384558 89.04416195 -20.51695885 86.67202199 -24.625 81.625 C-25.26888672 80.87089844 -25.26888672 80.87089844 -25.92578125 80.1015625 C-33.48525918 70.60204156 -33.12840269 59.37146996 -33.07104492 47.81225586 C-33.06252866 45.19630313 -33.09137815 42.58253537 -33.12304688 39.96679688 C-33.17241321 28.24124721 -32.17746013 17.81794172 -24.42480469 8.39868164 C-17.15477926 1.23417612 -9.93117413 -0.29841268 0 0 Z " fill="#FFFFFF" transform="translate(245.625,-0.625)"/>
<path d="M0 0 C7.05375 -0.103125 14.1075 -0.20625 21.375 -0.3125 C23.58106934 -0.35802002 25.78713867 -0.40354004 28.06005859 -0.45043945 C29.83950284 -0.46506394 31.61896403 -0.47779995 33.3984375 -0.48828125 C34.74675659 -0.526651 34.74675659 -0.526651 36.12231445 -0.5657959 C43.54323024 -0.57082226 49.88511339 1.51930114 55.62240601 6.37236023 C61.63584918 12.95759193 62.58122156 20.32602375 62.34375 28.875 C61.75720136 34.20726035 60.2512636 38.03315728 56.17578125 41.59375 C54.5077975 42.8117503 52.75897743 43.91755235 51 45 C51.928125 45.556875 52.85625 46.11375 53.8125 46.6875 C57.11950055 49.08669648 58.30409297 50.35237172 60 54 C60.25139766 56.65508364 60.35182051 59.0615348 60.29296875 61.70703125 C60.28872391 62.43242599 60.28447906 63.15782074 60.28010559 63.90519714 C60.26339543 66.20801891 60.2257596 68.50994553 60.1875 70.8125 C60.17244316 72.3795446 60.1587565 73.946603 60.14648438 75.51367188 C60.11607628 79.34306503 60.05734635 83.17053795 60 87 C54.06 87 48.12 87 42 87 C41.93941406 84.92976563 41.87882813 82.85953125 41.81640625 80.7265625 C41.75383471 78.72427335 41.69123056 76.72198506 41.62768555 74.71972656 C41.58434154 73.3268741 41.54266604 71.93396869 41.50268555 70.54101562 C41.44497068 68.54023349 41.38078131 66.53964141 41.31640625 64.5390625 C41.26141968 62.73236084 41.26141968 62.73236084 41.20532227 60.88916016 C41.18947013 58.06003633 41.18947013 58.06003633 40 56 C29.11 55.505 29.11 55.505 18 55 C18 65.56 18 76.12 18 87 C12.06 87 6.12 87 0 87 C0 58.29 0 29.58 0 0 Z M18 16 C18 23.26 18 30.52 18 38 C21.031875 38.061875 24.06375 38.12375 27.1875 38.1875 C28.13391357 38.21481201 29.08032715 38.24212402 30.05541992 38.27026367 C34.88152781 38.3179049 38.08168373 38.1422614 42 35 C44.44487818 32.55512182 44.7485106 30.55254791 45.09375 27.16796875 C44.92281863 23.2151808 43.38480791 21.13790514 41 18 C36.45054662 15.38556933 31.76881583 15.77153326 26.6875 15.875 C22.3871875 15.936875 22.3871875 15.936875 18 16 Z " fill="#FFFFFF" transform="translate(840,125)"/>
<path d="M0 0 C5.49006119 4.39405997 8.44157399 9.27790288 10.4453125 15.95703125 C10.79367422 19.44064842 10.6953125 22.95603933 10.6953125 26.45703125 C4.7553125 26.45703125 -1.1846875 26.45703125 -7.3046875 26.45703125 C-7.5521875 25.05453125 -7.7996875 23.65203125 -8.0546875 22.20703125 C-8.95897861 18.17882539 -9.83927257 15.93232763 -13.3046875 13.45703125 C-18.62074619 10.58348601 -23.42449014 10.90221891 -29.1171875 12.58203125 C-32.47582719 14.19953208 -32.47582719 14.19953208 -33.9296875 17.33203125 C-34.54456455 20.43990812 -34.54456455 20.43990812 -33.3046875 23.14453125 C-28.22196504 29.0214291 -20.05405971 29.86496712 -12.82421875 31.47460938 C-4.89793008 33.33289708 4.05304666 36.17873125 8.88671875 43.18359375 C12.99486165 50.82731609 13.25644467 60.19339094 10.8125 68.43359375 C7.3685493 75.98291615 2.41753038 80.50890912 -5.1171875 83.83203125 C-15.6154482 87.27360983 -28.42907796 86.886883 -38.68359375 82.84765625 C-46.89680652 78.49012459 -52.08195653 72.40490555 -54.89453125 63.61328125 C-55.77532289 58.98283378 -55.35564473 54.14509648 -55.3046875 49.45703125 C-49.6946875 49.45703125 -44.0846875 49.45703125 -38.3046875 49.45703125 C-38.0571875 50.98328125 -37.8096875 52.50953125 -37.5546875 54.08203125 C-36.604705 58.682289 -35.56878617 61.93524058 -32.3046875 65.45703125 C-27.16451278 68.46117781 -22.1458719 69.01333453 -16.3046875 68.45703125 C-12.21927841 67.27715868 -9.73464901 66.10197351 -7.3046875 62.45703125 C-6.96996963 59.4445704 -6.75860109 57.35774829 -7.3046875 54.45703125 C-11.68837741 49.05048036 -19.54702117 48.12608532 -26.0078125 46.55859375 C-36.22465405 44.0440331 -44.03888223 41.30287398 -50.3046875 32.45703125 C-53.57959967 25.73362499 -53.50743815 17.64707886 -51.46484375 10.53125 C-48.10556745 3.07750224 -42.82826951 -1.28633472 -35.3671875 -4.41796875 C-23.81661617 -7.76102839 -10.04235283 -6.72327012 0 0 Z " fill="#FFFFFF" transform="translate(995.3046875,128.54296875)"/>
<path d="M0 0 C5.93750976 4.77843787 8.79471724 10.15152521 10.62109375 17.45703125 C10.62109375 20.42703125 10.62109375 23.39703125 10.62109375 26.45703125 C4.68109375 26.45703125 -1.25890625 26.45703125 -7.37890625 26.45703125 C-7.8671875 24.2109375 -8.35546875 21.96484375 -8.84375 19.71875 C-9.37776784 17.31163025 -9.37776784 17.31163025 -10.37890625 14.45703125 C-16.30968267 11.32989459 -21.83893536 11.20098633 -28.25 12.62109375 C-30.67964229 13.57511843 -31.85450751 14.33549543 -33.37890625 16.45703125 C-33.74037082 18.74033226 -33.74037082 18.74033226 -33.56640625 21.14453125 C-33.53933594 21.95277344 -33.51226562 22.76101563 -33.484375 23.59375 C-33.43216797 24.51607422 -33.43216797 24.51607422 -33.37890625 25.45703125 C-28.7830077 27.48929471 -24.04796768 28.61777227 -19.19140625 29.83203125 C3.14352207 35.58172175 3.14352207 35.58172175 7.8359375 42.16015625 C12.47267603 50.01456031 12.90854012 59.18073019 11.08984375 68.046875 C8.37988435 75.72018395 3.5676466 79.74839934 -3.37890625 83.45703125 C-8.70404647 85.23207799 -14.3677746 84.76956569 -19.94140625 84.83203125 C-21.79862305 84.88810547 -21.79862305 84.88810547 -23.69335938 84.9453125 C-32.712023 85.03125 -39.62696522 83.70534588 -46.484375 77.57470703 C-52.84451065 71.08645607 -55.59708081 63.84924054 -55.62890625 54.83203125 C-55.50515625 52.17140625 -55.50515625 52.17140625 -55.37890625 49.45703125 C-49.76890625 49.45703125 -44.15890625 49.45703125 -38.37890625 49.45703125 C-37.98703125 51.33390625 -37.59515625 53.21078125 -37.19140625 55.14453125 C-35.63699565 61.34028053 -33.7309257 64.44581958 -28.19140625 67.76953125 C-22.55428119 69.14749515 -17.2988478 69.211294 -11.87890625 67.08203125 C-9.12285063 65.2905951 -7.65301785 64.3022087 -6.62890625 61.14453125 C-6.32707659 57.89986243 -6.80804642 56.29953952 -8.37890625 53.45703125 C-11.73581886 50.27893723 -15.49247927 49.4865849 -19.87890625 48.51953125 C-21.31839913 48.17474645 -22.75720013 47.82706089 -24.1953125 47.4765625 C-24.90445801 47.30463379 -25.61360352 47.13270508 -26.34423828 46.95556641 C-37.16717918 44.30372512 -45.11533988 40.9169803 -51.44140625 31.33203125 C-53.16960302 24.18881792 -53.90849772 15.91353496 -50.87890625 9.01953125 C-46.57102019 2.00983511 -40.2599597 -2.39880553 -32.49609375 -4.8828125 C-21.39113567 -7.2346144 -9.65667737 -6.26336217 0 0 Z " fill="#FFFFFF" transform="translate(163.37890625,252.54296875)"/>
<path d="M0 0 C5.93750976 4.77843787 8.79471724 10.15152521 10.62109375 17.45703125 C10.62109375 20.42703125 10.62109375 23.39703125 10.62109375 26.45703125 C4.68109375 26.45703125 -1.25890625 26.45703125 -7.37890625 26.45703125 C-7.8671875 24.2109375 -8.35546875 21.96484375 -8.84375 19.71875 C-9.37776784 17.31163025 -9.37776784 17.31163025 -10.37890625 14.45703125 C-16.30968267 11.32989459 -21.83893536 11.20098633 -28.25 12.62109375 C-30.67964229 13.57511843 -31.85450751 14.33549543 -33.37890625 16.45703125 C-33.74037082 18.74033226 -33.74037082 18.74033226 -33.56640625 21.14453125 C-33.53933594 21.95277344 -33.51226562 22.76101563 -33.484375 23.59375 C-33.43216797 24.51607422 -33.43216797 24.51607422 -33.37890625 25.45703125 C-28.7830077 27.48929471 -24.04796768 28.61777227 -19.19140625 29.83203125 C3.14352207 35.58172175 3.14352207 35.58172175 7.8359375 42.16015625 C12.47267603 50.01456031 12.90854012 59.18073019 11.08984375 68.046875 C8.37988435 75.72018395 3.5676466 79.74839934 -3.37890625 83.45703125 C-8.70404647 85.23207799 -14.3677746 84.76956569 -19.94140625 84.83203125 C-21.79862305 84.88810547 -21.79862305 84.88810547 -23.69335938 84.9453125 C-32.712023 85.03125 -39.62696522 83.70534588 -46.484375 77.57470703 C-52.84451065 71.08645607 -55.59708081 63.84924054 -55.62890625 54.83203125 C-55.50515625 52.17140625 -55.50515625 52.17140625 -55.37890625 49.45703125 C-49.76890625 49.45703125 -44.15890625 49.45703125 -38.37890625 49.45703125 C-37.96640625 51.33390625 -37.55390625 53.21078125 -37.12890625 55.14453125 C-35.53194892 61.51166249 -35.53194892 61.51166249 -31.37890625 66.45703125 C-26.34482278 68.97407298 -20.89666604 69.0571772 -15.37890625 68.45703125 C-11.97722125 67.120655 -9.94411779 66.02224279 -7.37890625 63.45703125 C-6.42730043 60.5229133 -6.28060817 58.83235121 -7.06640625 55.83203125 C-9.23628532 51.9055834 -11.55817433 50.70010838 -15.84765625 49.4296875 C-17.18977355 49.11915905 -18.53363882 48.81611564 -19.87890625 48.51953125 C-21.31839913 48.17474645 -22.75720013 47.82706089 -24.1953125 47.4765625 C-24.90445801 47.30463379 -25.61360352 47.13270508 -26.34423828 46.95556641 C-37.16717918 44.30372512 -45.11533988 40.9169803 -51.44140625 31.33203125 C-53.16960302 24.18881792 -53.90849772 15.91353496 -50.87890625 9.01953125 C-46.57102019 2.00983511 -40.2599597 -2.39880553 -32.49609375 -4.8828125 C-21.39113567 -7.2346144 -9.65667737 -6.26336217 0 0 Z " fill="#FFFFFF" transform="translate(267.37890625,252.54296875)"/>
<path d="M0 0 C10.56 0 21.12 0 32 0 C37.67715468 22.51434348 43.30139287 45.03900981 48.6875 67.625 C49.01702667 69.00205109 49.01702667 69.00205109 49.35321045 70.40692139 C49.97119141 72.99201469 50.58587605 75.57786529 51.19921875 78.1640625 C51.38305618 78.93284729 51.56689362 79.70163208 51.75630188 80.49371338 C53 85.76893253 53 85.76893253 53 88 C46.73 88 40.46 88 34 88 C32.68 82.06 31.36 76.12 30 70 C20.76 70 11.52 70 2 70 C0.7246621 75.5487742 0.7246621 75.5487742 -0.54272461 81.09936523 C-1.88888889 86.88888889 -1.88888889 86.88888889 -3 88 C-4.34267413 88.08631874 -5.68974322 88.10706473 -7.03515625 88.09765625 C-8.12775757 88.09390991 -8.12775757 88.09390991 -9.24243164 88.09008789 C-10.1730542 88.08098389 -11.10367676 88.07187988 -12.0625 88.0625 C-13.65681725 88.05101129 -15.25113714 88.03988509 -16.84545898 88.02905273 C-18.92272949 88.01452637 -18.92272949 88.01452637 -21 88 C-17.72340823 71.58706819 -13.81690073 55.32420596 -9.91723633 39.05102539 C-8.98576122 35.16383861 -8.05890726 31.27556616 -7.13330555 27.3869772 C-6.41535531 24.37292432 -5.69506063 21.3594356 -4.97403526 18.34611702 C-4.63082444 16.91053554 -4.28834093 15.47477997 -3.94660378 14.03884697 C-3.47305834 12.05063657 -2.99601715 10.06325975 -2.51879883 8.07592773 C-2.24884598 6.94742905 -1.97889313 5.81893036 -1.70075989 4.65623474 C-1 2 -1 2 0 0 Z M15 9 C13.71103254 14.31851439 12.42950861 19.63874701 11.15478516 24.96069336 C10.72029384 26.77010181 10.28378894 28.57902799 9.84521484 30.38745117 C9.21439385 32.99012418 8.59088546 35.59445778 7.96875 38.19921875 C7.77188599 39.00461594 7.57502197 39.81001312 7.37219238 40.63981628 C7.19200562 41.4002272 7.01181885 42.16063812 6.82617188 42.9440918 C6.66628784 43.60805466 6.50640381 44.27201752 6.3416748 44.95610046 C5.86259986 47.47655112 5.86259986 47.47655112 6 52 C12.6 52 19.2 52 26 52 C24.52278564 42.48017413 22.53438187 33.13131456 20.375 23.75 C20.04655561 22.31127079 19.71842868 20.87246907 19.390625 19.43359375 C18.59739665 15.95488818 17.7999164 12.47717458 17 9 C16.34 9 15.68 9 15 9 Z " fill="#FFFFFF" transform="translate(22,249)"/>
<path d="M0 0 C10.56 0 21.12 0 32 0 C36.9092921 19.3957278 41.72619745 38.80556429 46.31723022 58.27902222 C46.81339555 60.38178716 47.31145795 62.48410539 47.81143188 64.58596802 C48.51675429 67.55469063 49.21454436 70.52508286 49.91015625 73.49609375 C50.12222717 74.38420746 50.3342981 75.27232117 50.55279541 76.18734741 C50.74428162 77.01296173 50.93576782 77.83857605 51.13305664 78.68920898 C51.30132462 79.4044725 51.46959259 80.11973602 51.64295959 80.85667419 C52 83 52 83 52 88 C46.06 88 40.12 88 34 88 C32.68 81.73 31.36 75.46 30 69 C20.43 69 10.86 69 1 69 C0.67 71.97 0.34 74.94 0 78 C-0.29749946 79.67343448 -0.62127066 81.34305915 -1 83 C-1.165 83.7425 -1.33 84.485 -1.5 85.25 C-2 87 -2 87 -3 88 C-4.34267413 88.08631874 -5.68974322 88.10706473 -7.03515625 88.09765625 C-7.84404297 88.09443359 -8.65292969 88.09121094 -9.48632812 88.08789062 C-10.33646484 88.07951172 -11.18660156 88.07113281 -12.0625 88.0625 C-12.91650391 88.05798828 -13.77050781 88.05347656 -14.65039062 88.04882812 C-16.76695663 88.03700373 -18.88348685 88.01906769 -21 88 C-19.43320035 78.4202068 -17.17629044 69.01946116 -14.90234375 59.58984375 C-14.50384012 57.92888446 -14.10553319 56.26787796 -13.70741272 54.60682678 C-12.8780797 51.14960808 -12.04664311 47.69290437 -11.21362305 44.23657227 C-10.14502291 39.80218387 -9.0813834 35.36662307 -8.01923275 30.930686 C-7.20008752 27.51170788 -6.37855936 24.09330593 -5.55627632 20.67508125 C-5.16285633 19.03853522 -4.77013642 17.40182073 -4.37812614 15.76493645 C-3.83252403 13.4884579 -3.28377007 11.21276253 -2.73413086 8.93725586 C-2.49176697 7.92200584 -2.49176697 7.92200584 -2.24450684 6.88624573 C-1.11432351 2.22864702 -1.11432351 2.22864702 0 0 Z M15 9 C14.05555853 12.87310138 13.11373294 16.74682965 12.17407227 20.62109375 C11.70133424 22.56802486 11.22667259 24.51448858 10.75195312 26.4609375 C8.69473126 34.94968457 6.79685585 43.45249495 5 52 C11.93 52 18.86 52 26 52 C24.52278564 42.48017413 22.53438187 33.13131456 20.375 23.75 C20.04655561 22.31127079 19.71842868 20.87246907 19.390625 19.43359375 C18.59739665 15.95488818 17.7999164 12.47717458 17 9 C16.34 9 15.68 9 15 9 Z " fill="#FFFFFF" transform="translate(646,249)"/>
<path d="M0 0 C6.58408976 5.19602606 10.42297476 12.27310975 11.71875 20.52734375 C11.88280757 23.48927093 11.90646094 26.44804366 11.921875 29.4140625 C11.92757507 30.27111282 11.93327515 31.12816315 11.93914795 32.01118469 C11.94857297 33.8224668 11.95512198 35.63376585 11.95898438 37.44506836 C11.96865641 40.18830068 11.99968945 42.93077243 12.03125 45.67382812 C12.16310847 67.04087158 12.16310847 67.04087158 5.59375 75.33984375 C4.81644531 76.37044922 4.81644531 76.37044922 4.0234375 77.421875 C-3.48993404 84.28578561 -10.37417917 85.30050858 -20.34375 85.08984375 C-21.47619141 85.10080078 -22.60863281 85.11175781 -23.77539062 85.12304688 C-31.75375208 85.05334657 -37.26685094 83.83416888 -43.453125 78.73828125 C-52.64957274 68.03944354 -53.48434793 56.68180265 -53.52148438 43.06201172 C-53.53112966 40.92895591 -53.56217448 38.79689044 -53.59375 36.6640625 C-53.68572347 24.71342236 -52.72761543 12.60777791 -44.375 3.43359375 C-32.43461263 -8.17044468 -13.92810088 -8.9912569 0 0 Z M-30.28125 13.52734375 C-34.62614022 19.16395809 -35.45091521 23.47645197 -35.51953125 30.4140625 C-35.527603 31.18990189 -35.53567474 31.96574127 -35.54399109 32.76509094 C-35.5578163 34.40839414 -35.56854545 36.05172586 -35.57641602 37.69506836 C-35.58791102 39.36605311 -35.60832356 41.03700185 -35.63793945 42.70776367 C-35.68088076 45.13094866 -35.69682297 47.55304292 -35.70703125 49.9765625 C-35.72453934 50.71331711 -35.74204742 51.45007172 -35.76008606 52.20915222 C-35.73742822 57.71149689 -34.33104507 61.92511586 -31.28125 66.52734375 C-27.59283131 69.61764049 -24.04197233 70.28109949 -19.28125 70.52734375 C-13.76346484 69.57600148 -10.7307766 67.96244938 -7.28125 63.52734375 C-4.88163926 56.63036255 -4.94361543 49.96590301 -4.96557617 42.7668457 C-4.96873722 40.59860978 -4.94522624 38.43173985 -4.91992188 36.26367188 C-4.87994223 27.66105536 -4.93103046 20.46385171 -10.78125 13.58984375 C-14.46606441 10.54987186 -17.50176788 10.22978444 -22.22265625 10.31640625 C-25.48588408 10.65077874 -27.58431116 11.68852181 -30.28125 13.52734375 Z " fill="#FFFFFF" transform="translate(994.28125,252.47265625)"/>
<path d="M0 0 C1.34888732 0.00015905 2.69778075 0.00584927 4.04663086 0.01586914 C5.10991859 0.01799156 5.10991859 0.01799156 6.19468689 0.02015686 C8.46699173 0.02577096 10.73919936 0.03832576 13.01147461 0.05102539 C14.54858257 0.05603858 16.08569206 0.0606018 17.62280273 0.06469727 C21.39823103 0.07574497 25.17358632 0.09301898 28.94897461 0.11352539 C36.29688724 29.03461994 43.21869205 58.04279919 49.94897461 87.11352539 C43.67897461 87.11352539 37.40897461 87.11352539 30.94897461 87.11352539 C29.62897461 81.50352539 28.30897461 75.89352539 26.94897461 70.11352539 C17.37897461 69.78352539 7.80897461 69.45352539 -2.05102539 69.11352539 C-2.38102539 72.08352539 -2.71102539 75.05352539 -3.05102539 78.11352539 C-3.71102539 81.08352539 -4.37102539 84.05352539 -5.05102539 87.11352539 C-11.32102539 87.11352539 -17.59102539 87.11352539 -24.05102539 87.11352539 C-20.71935217 70.6912621 -16.86769067 54.40400813 -12.96826172 38.10961914 C-12.03601873 34.21354412 -11.10947759 30.31613653 -10.18433094 26.4183712 C-9.46710585 23.39989608 -8.74657983 20.38221645 -8.02506065 17.36476517 C-7.68144927 15.92566122 -7.33896489 14.4862877 -6.99762917 13.0466423 C-6.52512152 11.05558764 -6.04760594 9.0657234 -5.56982422 7.07592773 C-5.29987137 5.94520844 -5.02991852 4.81448914 -4.75178528 3.64950562 C-3.78221634 0.14073222 -3.78221634 0.14073222 0 0 Z M11.94897461 9.11352539 C10.84360659 13.62947993 9.74102337 18.14610255 8.64086914 22.66333008 C8.26726041 24.1957373 7.89292868 25.72796846 7.51782227 27.26000977 C6.97467775 29.47893617 6.43425166 31.69851078 5.89428711 33.91821289 C5.72961945 34.58843475 5.56495178 35.25865662 5.39529419 35.94918823 C4.09274751 41.32111734 3.03585694 46.67911374 1.94897461 52.11352539 C8.87897461 52.11352539 15.80897461 52.11352539 22.94897461 52.11352539 C21.47176025 42.59369952 19.48335648 33.24483995 17.32397461 23.86352539 C16.99553022 22.42479618 16.66740329 20.98599446 16.33959961 19.54711914 C15.54637126 16.06841357 14.74889101 12.59069997 13.94897461 9.11352539 C13.28897461 9.11352539 12.62897461 9.11352539 11.94897461 9.11352539 Z " fill="#FFFFFF" transform="translate(545.051025390625,124.886474609375)"/>
<path d="M0 0 C6.28198829 4.95761389 10.0427148 11.73097872 11.71875 19.52734375 C11.81992027 20.90322798 11.87646434 22.28288956 11.89575195 23.66235352 C11.91500481 24.86995079 11.91500481 24.86995079 11.93464661 26.10194397 C11.94203354 26.96548996 11.94942047 27.82903595 11.95703125 28.71875 C11.965103 29.61923569 11.97317474 30.51972137 11.98149109 31.44749451 C11.99531035 33.35470672 12.00604214 35.26194343 12.01391602 37.16918945 C12.02539807 39.10383439 12.04578954 41.0384486 12.07543945 42.97290039 C12.46939241 68.69428727 12.46939241 68.69428727 3.45019531 78.04077148 C-3.96419647 84.40656837 -10.77460644 85.29204724 -20.34375 85.08984375 C-21.47619141 85.10080078 -22.60863281 85.11175781 -23.77539062 85.12304688 C-31.75375208 85.05334657 -37.26685094 83.83416888 -43.453125 78.73828125 C-52.7104364 67.9686368 -53.46823291 56.54339244 -53.46655273 42.78613281 C-53.46872939 40.79618201 -53.48721666 38.80627091 -53.50585938 36.81640625 C-53.52468007 24.29437159 -52.91287412 13.01085635 -44.3046875 3.296875 C-32.41228768 -8.2383326 -13.80391664 -8.91109002 0 0 Z M-30.28125 13.52734375 C-34.62614022 19.16395809 -35.45091521 23.47645197 -35.51953125 30.4140625 C-35.527603 31.18990189 -35.53567474 31.96574127 -35.54399109 32.76509094 C-35.5578163 34.40839414 -35.56854545 36.05172586 -35.57641602 37.69506836 C-35.58791102 39.36605311 -35.60832356 41.03700185 -35.63793945 42.70776367 C-35.68088076 45.13094866 -35.69682297 47.55304292 -35.70703125 49.9765625 C-35.72453934 50.71331711 -35.74204742 51.45007172 -35.76008606 52.20915222 C-35.73742822 57.71149689 -34.33104507 61.92511586 -31.28125 66.52734375 C-27.59283131 69.61764049 -24.04197233 70.28109949 -19.28125 70.52734375 C-13.75398271 69.57436663 -10.77905121 67.92457956 -7.28125 63.52734375 C-5.38205591 58.94808342 -4.96124708 54.72106146 -4.9453125 49.8203125 C-4.9386557 49.09548172 -4.9319989 48.37065094 -4.92514038 47.62385559 C-4.91506214 46.09683754 -4.91032186 44.56977588 -4.91064453 43.04272461 C-4.90628145 40.73150354 -4.86994282 38.42221088 -4.83203125 36.11132812 C-4.67666235 24.72604262 -4.67666235 24.72604262 -9.28125 14.52734375 C-12.66328604 11.54581857 -15.83947849 10.31376547 -20.34375 10.08984375 C-24.4993031 10.55157187 -26.836937 11.17894852 -30.28125 13.52734375 Z " fill="#FFFFFF" transform="translate(370.28125,252.47265625)"/>
<path d="M0 0 C18.48 0 36.96 0 56 0 C56 5.28 56 10.56 56 16 C43.46 16 30.92 16 18 16 C18 22.27 18 28.54 18 35 C30.21 35 42.42 35 55 35 C55 40.61 55 46.22 55 52 C42.79 52 30.58 52 18 52 C18 58.27 18 64.54 18 71 C31.2 71 44.4 71 58 71 C58 76.28 58 81.56 58 87 C38.86 87 19.72 87 0 87 C0 58.29 0 29.58 0 0 Z " fill="#FFFFFF" transform="translate(737,125)"/>
<path d="M0 0 C5.94 0 11.88 0 18 0 C18.01458252 1.9073291 18.02916504 3.8146582 18.04418945 5.77978516 C18.0959163 12.09429045 18.16122248 18.40854215 18.23571491 24.72281837 C18.28036877 28.54972843 18.31963555 32.37653325 18.34643555 36.20361328 C18.37251875 39.89965759 18.41295576 43.59529587 18.46318626 47.2910881 C18.47982125 48.69836741 18.49135648 50.10571689 18.49761391 51.5130806 C18.50729081 53.49011701 18.53707786 55.46702359 18.56762695 57.44384766 C18.57873001 58.56747711 18.58983307 59.69110657 18.60127258 60.8487854 C19.12279554 64.97047529 20.32072271 68.69691185 23.69140625 71.3125 C29.39892539 73.40962603 34.31469643 73.25399646 40 71 C44.33688579 66.76889191 45.12426259 63.80372582 45.20532227 57.89794922 C45.22526749 56.61677216 45.24521271 55.33559509 45.26576233 54.01559448 C45.28274669 52.61196006 45.29962549 51.20832437 45.31640625 49.8046875 C45.3369754 48.37264403 45.35797186 46.94060663 45.37937927 45.50857544 C45.43460403 41.73733437 45.48401147 37.96603848 45.53222656 34.19470215 C45.58243867 30.34719964 45.63812624 26.49977687 45.69335938 22.65234375 C45.8009459 15.1016281 45.9018838 7.55084574 46 0 C51.94 0 57.88 0 64 0 C64.06815753 8.00693707 64.12303387 16.01364327 64.15543652 24.02079391 C64.17099914 27.74004771 64.19206198 31.45909034 64.22631836 35.17822266 C64.25925193 38.77683801 64.27692343 42.37525206 64.28463173 45.97400665 C64.29275785 47.99443713 64.31612094 50.01478821 64.33988953 52.03509521 C64.34176559 62.47052336 63.71332522 73.02318659 56.73046875 81.31640625 C49.48429573 88.36629468 41.52656946 90.06628426 31.6875 90.375 C22.54413504 90.22943399 14.29750949 88.26152939 7.5 81.83984375 C1.78918971 74.83517801 -0.1307419 67.33207976 -0.11352539 58.46557617 C-0.11344986 57.16460495 -0.11337433 55.86363373 -0.11329651 54.52323914 C-0.10819062 53.11314861 -0.10297464 51.70305849 -0.09765625 50.29296875 C-0.09578979 48.84279937 -0.09436696 47.39262935 -0.09336853 45.94245911 C-0.0895613 42.13667034 -0.07974642 38.33092009 -0.06866455 34.52514648 C-0.05841177 30.63721233 -0.05386264 26.74927192 -0.04882812 22.86132812 C-0.03812246 15.24086587 -0.02054028 7.62044325 0 0 Z " fill="#FFFFFF" transform="translate(110,0)"/>
<path d="M0 0 C6.12953334 4.98915504 9.77564398 10.4878394 11.6875 18.1875 C11.99362218 22.58496948 11.87549039 26.76972592 11.6875 31.1875 C6.0775 31.1875 0.4675 31.1875 -5.3125 31.1875 C-5.56 29.49625 -5.8075 27.805 -6.0625 26.0625 C-6.97154105 21.08838101 -7.99198489 17.99632616 -11.3125 14.1875 C-15.53138595 11.61175911 -19.49812988 11.63531418 -24.3125 12.1875 C-28.47338642 13.94431871 -30.74139949 16.51449927 -33.3125 20.1875 C-34.540966 23.87289801 -34.49395784 27.30474527 -34.515625 31.14453125 C-34.52417511 32.31540535 -34.52417511 32.31540535 -34.53289795 33.50993347 C-34.5423395 35.16163786 -34.54887858 36.81336102 -34.55273438 38.46508789 C-34.56242418 40.98031887 -34.59344801 43.49472691 -34.625 46.00976562 C-34.63153214 47.61718267 -34.63678178 49.22460553 -34.640625 50.83203125 C-34.6529718 51.57910843 -34.6653186 52.32618561 -34.67803955 53.09590149 C-34.65255225 59.13087623 -33.27659621 63.16884557 -29.0625 67.5 C-25.00526026 69.98966984 -21.67953401 70.66879691 -16.96875 69.7109375 C-12.45510106 68.37735941 -9.74106991 67.41393659 -7.3125 63.1875 C-6.52621974 60.15481113 -6.52621974 60.15481113 -6.125 56.9375 C-5.856875 55.04 -5.58875 53.1425 -5.3125 51.1875 C0.2975 51.1875 5.9075 51.1875 11.6875 51.1875 C12.17313029 62.59981186 11.06518164 70.71666479 3.640625 79.6171875 C-3.74668094 85.55658148 -10.49319425 85.86290738 -19.6875 85.8125 C-20.85539062 85.84472656 -22.02328125 85.87695312 -23.2265625 85.91015625 C-31.35762799 85.91927179 -36.96140997 84.37274441 -43.3125 79.1875 C-53.06346424 68.90168856 -53.49945862 56.9911314 -53.49780273 43.39135742 C-53.4999832 41.39042053 -53.51848312 39.38952326 -53.53710938 37.38867188 C-53.55524287 25.29362876 -52.68782421 13.76544219 -44.59375 4.14453125 C-32.51305053 -7.46581312 -14.24068571 -7.79207332 0 0 Z " fill="#FFFFFF" transform="translate(474.3125,251.8125)"/>
<path d="M0 0 C7.095 -0.0825 14.19 -0.165 21.5 -0.25 C23.72427734 -0.28641602 25.94855469 -0.32283203 28.24023438 -0.36035156 C30.0247298 -0.37204592 31.80923598 -0.38223597 33.59375 -0.390625 C34.50286133 -0.41108887 35.41197266 -0.43155273 36.34863281 -0.45263672 C43.50510919 -0.45651347 48.703571 1.2228315 54.20703125 5.859375 C60.9515773 13.80185745 62.61290357 20.04156943 62.34375 30.52734375 C61.56488613 38.39563895 58.71491356 44.27229494 52.86328125 49.59765625 C47.25158952 53.82113074 40.83787787 55.14010968 33.91796875 55.09765625 C33.0777417 55.09515869 32.23751465 55.09266113 31.37182617 55.09008789 C29.79558472 55.07643188 29.79558472 55.07643188 28.1875 55.0625 C23.1446875 55.0315625 23.1446875 55.0315625 18 55 C18 65.56 18 76.12 18 87 C12.06 87 6.12 87 0 87 C0 58.29 0 29.58 0 0 Z M18 16 C18 23.26 18 30.52 18 38 C21.01125 38.0825 24.0225 38.165 27.125 38.25 C28.06230957 38.28641602 28.99961914 38.32283203 29.96533203 38.36035156 C35.45059249 38.43278738 38.74506089 37.81269347 43 34 C44.5328623 31.42754943 44.91656936 28.98125476 45 26 C43.90229105 21.81498463 43.0924222 19.7260406 39.4609375 17.3125 C35.02975863 15.63205294 31.30706013 15.66802354 26.625 15.8125 C23.77875 15.874375 20.9325 15.93625 18 16 Z " fill="#FFFFFF" transform="translate(320,125)"/>
<path d="M0 0 C19.47 0 38.94 0 59 0 C59 5.28 59 10.56 59 16 C52.4 16 45.8 16 39 16 C39 34.15 39 52.3 39 71 C45.6 71 52.2 71 59 71 C59 76.61 59 82.22 59 88 C39.53 88 20.06 88 0 88 C0 82.39 0 76.78 0 71 C6.93 71 13.86 71 21 71 C21 52.85 21 34.7 21 16 C14.07 16 7.14 16 0 16 C0 10.72 0 5.44 0 0 Z " fill="#FFFFFF" transform="translate(528,249)"/>
<path d="M0 0 C19.47 0 38.94 0 59 0 C59 5.28 59 10.56 59 16 C52.07 16 45.14 16 38 16 C38 34.15 38 52.3 38 71 C44.93 71 51.86 71 59 71 C59 76.61 59 82.22 59 88 C39.53 88 20.06 88 0 88 C0 82.39 0 76.78 0 71 C6.93 71 13.86 71 21 71 C21 52.85 21 34.7 21 16 C14.07 16 7.14 16 0 16 C0 10.72 0 5.44 0 0 Z " fill="#FFFFFF" transform="translate(840,249)"/>
<path d="M0 0 C6.27 0 12.54 0 19 0 C25.43952342 11.80579293 31.29896352 23.82195263 37 36 C39.80977365 32.58567979 41.66055312 28.83476587 43.5390625 24.86328125 C43.86538666 24.18323532 44.19171082 23.50318939 44.52792358 22.80253601 C45.56442241 20.64114307 46.59507298 18.4770312 47.625 16.3125 C48.6628595 14.1376515 49.70196919 11.96342189 50.74349976 9.79032898 C51.3902138 8.4403764 52.03466774 7.08933835 52.67666626 5.73713684 C54.88835767 1.11164233 54.88835767 1.11164233 56 0 C57.41570123 -0.08651611 58.835595 -0.10704904 60.25390625 -0.09765625 C61.53491211 -0.09282227 61.53491211 -0.09282227 62.84179688 -0.08789062 C64.18854492 -0.07532227 64.18854492 -0.07532227 65.5625 -0.0625 C66.46419922 -0.05798828 67.36589844 -0.05347656 68.29492188 -0.04882812 C70.53001314 -0.03700225 72.76497437 -0.0205222 75 0 C73.64028657 4.38482829 71.9332419 8.37924227 69.875 12.48046875 C69.57159698 13.08717911 69.26819397 13.69388947 68.95559692 14.31898499 C67.97459223 16.27729511 66.98755432 18.23248573 66 20.1875 C65.32261619 21.53541257 64.64537086 22.88339474 63.96826172 24.23144531 C58.77251273 34.55532068 53.43760599 44.80146788 48 55 C46.5235764 57.9528472 46.77727061 60.68448983 46.68359375 63.9765625 C46.66281265 64.66181 46.64203156 65.3470575 46.62062073 66.05307007 C46.55519815 68.24361069 46.49627446 70.43427189 46.4375 72.625 C46.39430782 74.1093875 46.3506933 75.59376278 46.30664062 77.078125 C46.19872862 80.71862818 46.09960219 84.35922195 46 88 C40.39 88 34.78 88 29 88 C29.19464844 86.28425781 29.38929688 84.56851563 29.58984375 82.80078125 C31.19995466 57.31145993 20.00485099 38.41950105 7.66308594 16.77416992 C0 3.21222369 0 3.21222369 0 0 Z " fill="#FFFFFF" transform="translate(416,0)"/>
<path d="M0 0 C6.6 0 13.2 0 20 0 C21.78009825 3.53704494 23.55886158 7.07471798 25.33447266 10.61401367 C26.23066671 12.39899324 27.12898207 14.18290726 28.02734375 15.96679688 C30.91178834 21.7194813 33.72789907 27.45296336 36.16699219 33.41040039 C36.90545494 35.19633467 36.90545494 35.19633467 39 36 C39.26353271 35.15219971 39.52706543 34.30439941 39.79858398 33.4309082 C41.05411794 29.84545429 42.56799868 26.52453278 44.22265625 23.10546875 C44.52819931 22.47264481 44.83374237 21.83982086 45.14854431 21.18782043 C45.78975743 19.86175871 46.43273249 18.53654763 47.07739258 17.2121582 C48.06709361 15.17805891 49.05054774 13.14102648 50.03320312 11.10351562 C54.85661135 1.14338865 54.85661135 1.14338865 56 0 C57.41570123 -0.08651611 58.835595 -0.10704904 60.25390625 -0.09765625 C61.53491211 -0.09282227 61.53491211 -0.09282227 62.84179688 -0.08789062 C64.18854492 -0.07532227 64.18854492 -0.07532227 65.5625 -0.0625 C66.46419922 -0.05798828 67.36589844 -0.05347656 68.29492188 -0.04882812 C70.53001314 -0.03700225 72.76497437 -0.0205222 75 0 C73.40492678 5.38337211 71.03189604 10.20121001 68.5 15.1875 C68.06147705 16.05810059 67.6229541 16.92870117 67.17114258 17.82568359 C63.68585107 24.7167873 60.11462504 31.56178751 56.48828125 38.37963867 C55.71137356 39.84171768 54.94386657 41.30883032 54.18579102 42.78076172 C53.38452777 44.28034643 52.52838281 45.75167391 51.62475586 47.19189453 C47.03682812 54.99112586 47.21962902 62.85669812 47.1875 71.625 C47.16431048 73.12112949 47.13893603 74.61722677 47.11132812 76.11328125 C47.04500588 79.74291679 47.02346815 83.36883698 47 87 C41.06 87 35.12 87 29 87 C29.18304687 85.27265625 29.36609375 83.5453125 29.5546875 81.765625 C31.02635874 56.64024601 20.48624784 38.11799752 8.54150391 16.61572266 C5.51494407 11.15951368 2.73649524 5.6081836 0 0 Z " fill="#FFFFFF" transform="translate(624,125)"/>
<path d="M0 0 C21.12 0 42.24 0 64 0 C64 5.28 64 10.56 64 16 C56.41 16 48.82 16 41 16 C41 39.76 41 63.52 41 88 C35.06 88 29.12 88 23 88 C23 64.24 23 40.48 23 16 C15.41 16 7.82 16 0 16 C0 10.72 0 5.44 0 0 Z " fill="#FFFFFF" transform="translate(734,249)"/>
<path d="M0 0 C5.61 0 11.22 0 17 0 C17 23.43 17 46.86 17 71 C29.87 71 42.74 71 56 71 C56 76.28 56 81.56 56 87 C37.52 87 19.04 87 0 87 C0 58.29 0 29.58 0 0 Z " fill="#FFFFFF" transform="translate(426,125)"/>
<path d="M0 0 C25.08 0 50.16 0 76 0 C76 4.95 76 9.9 76 15 C50.92 15 25.84 15 0 15 C0 10.05 0 5.1 0 0 Z " fill="#FFFFFF" transform="translate(1040,164)"/>
</svg>
